<svg width="136" height="41" viewBox="0 0 136 41" fill="none" xmlns="http://www.w3.org/2000/svg">
<g clip-path="url(#clip0_726_448)">
<path d="M124.539 0.0221027H11.0457C10.632 0.0221027 10.2233 0.0221027 9.81066 0.0241027C9.46528 0.0261027 9.12264 0.0319127 8.77394 0.0368027C8.0164 0.0447045 7.26064 0.103779 6.51322 0.213513C5.76686 0.325635 5.04388 0.537018 4.36873 0.840513C3.69441 1.14657 3.07826 1.54427 2.54264 2.01917C2.0042 2.49274 1.55538 3.04012 1.21342 3.64026C0.870516 4.23921 0.632745 4.88104 0.50832 5.54358C0.382712 6.20529 0.315121 6.87462 0.306154 7.54558C0.295685 7.85218 0.294579 8.1598 0.289062 8.46644V31.5807C0.294579 31.8912 0.295685 32.192 0.306154 32.5026C0.315124 33.1735 0.382715 33.8428 0.50832 34.5045C0.632402 35.1674 0.870186 35.8096 1.21342 36.4088C1.55522 37.007 2.00411 37.5522 2.54264 38.0231C3.07623 38.5001 3.69277 38.8981 4.36873 39.2018C5.04387 39.5061 5.76678 39.7188 6.51322 39.8326C7.26076 39.9415 8.01645 40.0006 8.77394 40.0094C9.12264 40.0162 9.46528 40.0201 9.81066 40.0201C10.2233 40.0221 10.632 40.0221 11.0457 40.0221H124.539C124.944 40.0221 125.356 40.0221 125.761 40.0201C126.105 40.0201 126.458 40.0162 126.801 40.0094C127.558 40.001 128.312 39.9419 129.058 39.8326C129.807 39.7179 130.532 39.5054 131.211 39.2018C131.886 38.8979 132.502 38.5 133.035 38.0231C133.572 37.5503 134.022 37.0056 134.368 36.4088C134.709 35.8092 134.944 35.167 135.066 34.5045C135.192 33.8427 135.262 33.1736 135.276 32.5026C135.28 32.192 135.28 31.8912 135.28 31.5807C135.289 31.2174 135.289 30.8561 135.289 30.4869V9.55823C135.289 9.19202 135.289 8.82874 135.28 8.46644C135.28 8.1598 135.28 7.85218 135.276 7.54554C135.262 6.87453 135.192 6.20534 135.066 5.54354C134.944 4.88138 134.708 4.23961 134.368 3.64022C133.672 2.4373 132.567 1.45813 131.211 0.840423C130.532 0.53767 129.807 0.326343 129.058 0.213423C128.312 0.103205 127.558 0.0441104 126.801 0.0366627C126.458 0.0317827 126.105 0.0259227 125.761 0.0239727C125.356 0.0219727 124.944 0.0219727 124.539 0.0219727V0.0221027Z" fill="#A6A6A6"/>
<path d="M9.71907 39.1501C9.37475 39.1501 9.03875 39.1462 8.69713 39.1394C7.98944 39.1312 7.2834 39.0767 6.5848 38.9762C5.9334 38.877 5.30236 38.6923 4.71251 38.4282C4.12806 38.1664 3.59501 37.8231 3.13375 37.4114C2.66582 37.0046 2.27624 36.5328 1.98046 36.0146C1.68143 35.4931 1.47447 34.9341 1.36682 34.3571C1.25056 33.7371 1.18765 33.1101 1.17865 32.4817C1.17149 32.2708 1.16211 31.5684 1.16211 31.5684V8.46301C1.16211 8.46301 1.1721 7.77146 1.17871 7.56829C1.18733 6.94084 1.24986 6.31488 1.36578 5.69582C1.47363 5.11722 1.68075 4.5566 1.97995 4.03338C2.27464 3.51558 2.66205 3.0434 3.12716 2.63513C3.59175 2.22299 4.12652 1.8779 4.71196 1.61245C5.30045 1.34928 5.9303 1.16588 6.58038 1.0684C7.28127 0.966942 7.98976 0.91209 8.69991 0.904302L9.71963 0.89209H125.859L126.891 0.904793C127.595 0.912193 128.297 0.966555 128.991 1.06742C129.648 1.16612 130.284 1.3508 130.879 1.61538C132.052 2.15034 133.007 2.99669 133.609 4.03582C133.903 4.55543 134.107 5.11148 134.213 5.68508C134.331 6.30921 134.396 6.94009 134.41 7.57269C134.413 7.85595 134.413 8.16021 134.413 8.46301C134.422 8.83809 134.422 9.1951 134.422 9.55503V30.4881C134.422 30.8515 134.422 31.206 134.413 31.5635C134.413 31.8888 134.413 32.1867 134.409 32.4934C134.396 33.1147 134.331 33.7343 134.216 34.3473C134.11 34.9285 133.904 35.4918 133.605 36.0176C133.307 36.5302 132.92 36.9979 132.458 37.4036C131.996 37.8175 131.462 38.1628 130.876 38.4263C130.283 38.6924 129.647 38.8778 128.991 38.9762C128.293 39.0772 127.587 39.1318 126.879 39.1394C126.548 39.1462 126.201 39.1501 125.865 39.1501L124.64 39.1521L9.71907 39.1501Z" fill="black"/>
<path d="M33.0864 20.3228C33.0971 19.4881 33.3188 18.6698 33.7309 17.9438C34.1429 17.2178 34.7318 16.6079 35.4429 16.1707C34.9912 15.5256 34.3953 14.9946 33.7024 14.6201C33.0096 14.2455 32.239 14.0377 31.4518 14.0131C29.7725 13.8368 28.1446 15.0179 27.2889 15.0179C26.4166 15.0179 25.0991 14.0306 23.6804 14.0597C22.7627 14.0894 21.8684 14.3562 21.0845 14.8343C20.3006 15.3124 19.6539 15.9853 19.2075 16.7876C17.2735 20.136 18.716 25.0571 20.5687 27.7637C21.4956 29.089 22.5788 30.5695 23.9963 30.517C25.3833 30.4595 25.9014 29.6325 27.5757 29.6325C29.2344 29.6325 29.7205 30.517 31.1667 30.4836C32.6551 30.4594 33.5928 29.1524 34.4872 27.8145C35.1532 26.8701 35.6656 25.8264 36.0056 24.722C35.1409 24.3562 34.403 23.7441 33.8839 22.9618C33.3647 22.1795 33.0874 21.2617 33.0864 20.3228Z" fill="white"/>
<path d="M30.355 12.2328C31.1665 11.2586 31.5663 10.0064 31.4695 8.74219C30.2296 8.87241 29.0844 9.46497 28.2619 10.4018C27.8598 10.8595 27.5518 11.3919 27.3555 11.9687C27.1593 12.5454 27.0786 13.1552 27.1182 13.7632C27.7383 13.7696 28.3518 13.6352 28.9125 13.3701C29.4732 13.105 29.9664 12.7161 30.355 12.2328Z" fill="white"/>
<path d="M50.6201 27.1616H45.8867L44.75 30.5181H42.7451L47.2285 18.1001H49.3115L53.7949 30.5181H51.7558L50.6201 27.1616ZM46.3769 25.6128H50.1289L48.2793 20.1655H48.2276L46.3769 25.6128Z" fill="white"/>
<path d="M63.4776 25.9919C63.4776 28.8054 61.9717 30.613 59.6992 30.613C59.1236 30.6431 58.5511 30.5105 58.0473 30.2304C57.5435 29.9502 57.1288 29.5339 56.8506 29.029H56.8076V33.5134H54.9492V21.4646H56.7481V22.9704H56.7823C57.0732 22.468 57.4949 22.0538 58.0026 21.7719C58.5102 21.4901 59.0847 21.3511 59.6651 21.3698C61.9629 21.3698 63.4776 23.1862 63.4776 25.9919ZM61.5674 25.9919C61.5674 24.1589 60.6201 22.9538 59.1748 22.9538C57.7549 22.9538 56.7998 24.1843 56.7998 25.9919C56.7998 27.8161 57.7549 29.0378 59.1748 29.0378C60.6201 29.0378 61.5674 27.8415 61.5674 25.9919Z" fill="white"/>
<path d="M73.4424 25.9919C73.4424 28.8054 71.9366 30.613 69.6641 30.613C69.0884 30.6431 68.5159 30.5105 68.0121 30.2304C67.5084 29.9502 67.0936 29.5339 66.8155 29.029H66.7725V33.5134H64.9141V21.4646H66.7129V22.9704H66.7471C67.038 22.4679 67.4597 22.0538 67.9674 21.7719C68.475 21.4901 69.0496 21.3511 69.6299 21.3698C71.9278 21.3698 73.4424 23.1862 73.4424 25.9919ZM71.5323 25.9919C71.5323 24.1589 70.585 22.9538 69.1397 22.9538C67.7198 22.9538 66.7647 24.1843 66.7647 25.9919C66.7647 27.8161 67.7198 29.0378 69.1397 29.0378C70.585 29.0378 71.5323 27.8415 71.5323 25.9919H71.5323Z" fill="white"/>
<path d="M80.0284 27.0582C80.1661 28.2896 81.3624 29.0982 82.9971 29.0982C84.5635 29.0982 85.6905 28.2896 85.6905 27.1792C85.6905 26.2153 85.0108 25.6382 83.4014 25.2427L81.792 24.855C79.5118 24.3042 78.4532 23.2378 78.4532 21.5073C78.4532 19.3647 80.3204 17.8931 82.9717 17.8931C85.5957 17.8931 87.3946 19.3647 87.4551 21.5073H85.5791C85.4668 20.2681 84.4424 19.52 82.9453 19.52C81.4483 19.52 80.4238 20.2769 80.4238 21.3784C80.4238 22.2564 81.0781 22.773 82.6787 23.1684L84.0469 23.5044C86.5947 24.1069 87.6533 25.1304 87.6533 26.9467C87.6533 29.27 85.8027 30.7251 82.8594 30.7251C80.1055 30.7251 78.2461 29.3042 78.126 27.0581L80.0284 27.0582Z" fill="white"/>
<path d="M91.6641 19.3218V21.4644H93.3857V22.936H91.6641V27.9272C91.6641 28.7026 92.0088 29.064 92.7656 29.064C92.97 29.0604 93.1741 29.046 93.3769 29.021V30.4839C93.0367 30.5474 92.6908 30.5762 92.3447 30.5698C90.5117 30.5698 89.7969 29.8813 89.7969 28.1255V22.936H88.4805V21.4644H89.7968V19.3218H91.6641Z" fill="white"/>
<path d="M94.3828 25.9917C94.3828 23.1431 96.0605 21.353 98.6768 21.353C101.302 21.353 102.972 23.143 102.972 25.9917C102.972 28.8481 101.311 30.6304 98.6768 30.6304C96.0439 30.6304 94.3828 28.8481 94.3828 25.9917ZM101.078 25.9917C101.078 24.0376 100.183 22.8843 98.6768 22.8843C97.1709 22.8843 96.2764 24.0464 96.2764 25.9917C96.2764 27.9536 97.1709 29.0981 98.6768 29.0981C100.183 29.0981 101.078 27.9536 101.078 25.9917H101.078Z" fill="white"/>
<path d="M104.504 21.4645H106.276V23.0055H106.319C106.439 22.5242 106.721 22.0989 107.118 21.801C107.514 21.5031 108.001 21.3508 108.497 21.3697C108.711 21.369 108.925 21.3922 109.134 21.4391V23.1774C108.863 23.0947 108.581 23.0568 108.299 23.0651C108.029 23.0541 107.76 23.1017 107.51 23.2046C107.26 23.3075 107.035 23.4632 106.851 23.6611C106.667 23.859 106.528 24.0944 106.444 24.351C106.36 24.6077 106.332 24.8796 106.362 25.1481V30.5182H104.504L104.504 21.4645Z" fill="white"/>
<path d="M117.702 27.8589C117.452 29.5024 115.852 30.6304 113.804 30.6304C111.17 30.6304 109.535 28.8657 109.535 26.0347C109.535 23.1948 111.179 21.353 113.726 21.353C116.23 21.353 117.806 23.0737 117.806 25.8188V26.4556H111.411V26.5679C111.382 26.9011 111.423 27.2367 111.534 27.5526C111.644 27.8684 111.82 28.1572 112.05 28.3997C112.281 28.6423 112.56 28.8331 112.87 28.9594C113.179 29.0857 113.512 29.1446 113.847 29.1323C114.286 29.1735 114.727 29.0718 115.103 28.8423C115.48 28.6129 115.773 28.268 115.938 27.8589L117.702 27.8589ZM111.42 25.1567H115.946C115.963 24.8571 115.918 24.5573 115.813 24.2761C115.708 23.9949 115.547 23.7384 115.338 23.5226C115.129 23.3068 114.879 23.1365 114.601 23.0223C114.324 22.9081 114.026 22.8524 113.726 22.8589C113.423 22.8571 113.123 22.9152 112.843 23.03C112.563 23.1447 112.308 23.3138 112.094 23.5274C111.88 23.741 111.71 23.995 111.594 24.2747C111.478 24.5543 111.419 24.8541 111.42 25.1567V25.1567Z" fill="white"/>
<path d="M46.1436 8.75286C46.5332 8.72491 46.9241 8.78377 47.2882 8.9252C47.6524 9.06663 47.9805 9.28711 48.2491 9.57074C48.5177 9.85436 48.72 10.1941 48.8414 10.5653C48.9628 10.9366 49.0003 11.3302 48.9512 11.7177C48.9512 13.624 47.9209 14.7197 46.1436 14.7197H43.9883V8.75286H46.1436ZM44.915 13.8759H46.04C46.3184 13.8925 46.597 13.8469 46.8556 13.7422C47.1141 13.6376 47.3461 13.4767 47.5346 13.2711C47.7231 13.0656 47.8634 12.8205 47.9452 12.5539C48.0271 12.2873 48.0485 12.0058 48.0078 11.7299C48.0455 11.455 48.022 11.1753 47.9388 10.9106C47.8557 10.6459 47.7151 10.4029 47.527 10.199C47.339 9.99507 47.1081 9.83526 46.851 9.73102C46.594 9.62679 46.317 9.5807 46.04 9.59607H44.915V13.8759Z" fill="white"/>
<path d="M49.9983 12.4663C49.97 12.1703 50.0039 11.8718 50.0977 11.5897C50.1916 11.3076 50.3433 11.0483 50.5432 10.8283C50.7432 10.6083 50.9869 10.4326 51.2588 10.3123C51.5306 10.192 51.8246 10.1299 52.1219 10.1299C52.4191 10.1299 52.7131 10.192 52.985 10.3123C53.2568 10.4326 53.5005 10.6083 53.7005 10.8283C53.9004 11.0483 54.0522 11.3076 54.146 11.5897C54.2399 11.8718 54.2737 12.1703 54.2454 12.4663C54.2742 12.7625 54.2408 13.0615 54.1472 13.344C54.0536 13.6265 53.9019 13.8863 53.702 14.1067C53.502 14.3272 53.2581 14.5033 52.9859 14.6238C52.7138 14.7444 52.4195 14.8066 52.1219 14.8066C51.8242 14.8066 51.5299 14.7444 51.2578 14.6238C50.9857 14.5033 50.7418 14.3272 50.5418 14.1067C50.3418 13.8863 50.1901 13.6265 50.0965 13.344C50.0029 13.0615 49.9695 12.7625 49.9983 12.4663ZM53.3313 12.4663C53.3313 11.4902 52.8928 10.9194 52.1233 10.9194C51.3509 10.9194 50.9163 11.4902 50.9163 12.4663C50.9163 13.4502 51.3509 14.0166 52.1233 14.0166C52.8929 14.0166 53.3313 13.4462 53.3313 12.4663H53.3313Z" fill="white"/>
<path d="M59.8906 14.7197H58.9688L58.0381 11.4033H57.9678L57.041 14.7197H56.1279L54.8867 10.2168H55.7881L56.5947 13.6528H56.6611L57.5869 10.2168H58.4395L59.3652 13.6528H59.4356L60.2383 10.2168H61.1269L59.8906 14.7197Z" fill="white"/>
<path d="M62.1709 10.2168H63.0264V10.9322H63.0928C63.2054 10.6753 63.3954 10.4599 63.6363 10.3161C63.8772 10.1723 64.1569 10.1072 64.4365 10.1299C64.6556 10.1134 64.8756 10.1465 65.0802 10.2266C65.2848 10.3067 65.4688 10.4318 65.6185 10.5926C65.7681 10.7535 65.8797 10.9459 65.9449 11.1557C66.0101 11.3656 66.0273 11.5874 65.9951 11.8047V14.7197H65.1064V12.0279C65.1064 11.3043 64.792 10.9444 64.1348 10.9444C63.986 10.9375 63.8375 10.9628 63.6995 11.0186C63.5614 11.0744 63.437 11.1595 63.3349 11.2678C63.2328 11.3762 63.1553 11.5054 63.1078 11.6465C63.0603 11.7877 63.0438 11.9374 63.0596 12.0855V14.7198H62.1709L62.1709 10.2168Z" fill="white"/>
<path d="M67.4111 8.45898H68.2998V14.7197H67.4111V8.45898Z" fill="white"/>
<path d="M69.5354 12.4663C69.5071 12.1704 69.541 11.8718 69.6349 11.5897C69.7287 11.3077 69.8805 11.0483 70.0805 10.8283C70.2804 10.6083 70.5242 10.4326 70.796 10.3123C71.0679 10.192 71.3619 10.1299 71.6592 10.1299C71.9565 10.1299 72.2505 10.192 72.5224 10.3123C72.7942 10.4326 73.038 10.6083 73.2379 10.8283C73.4379 11.0483 73.5897 11.3077 73.6835 11.5897C73.7774 11.8718 73.8113 12.1704 73.783 12.4663C73.8118 12.7626 73.7783 13.0616 73.6847 13.3441C73.5911 13.6266 73.4394 13.8864 73.2394 14.1068C73.0393 14.3272 72.7954 14.5034 72.5233 14.6239C72.2512 14.7444 71.9568 14.8067 71.6592 14.8067C71.3616 14.8067 71.0672 14.7444 70.7951 14.6239C70.523 14.5034 70.279 14.3272 70.079 14.1068C69.879 13.8864 69.7273 13.6266 69.6337 13.3441C69.5401 13.0616 69.5066 12.7626 69.5354 12.4663ZM72.8684 12.4663C72.8684 11.4903 72.4299 10.9195 71.6604 10.9195C70.888 10.9195 70.4534 11.4903 70.4534 12.4664C70.4534 13.4502 70.888 14.0166 71.6604 14.0166C72.4299 14.0166 72.8684 13.4463 72.8684 12.4663H72.8684Z" fill="white"/>
<path d="M74.7188 13.4463C74.7188 12.6357 75.3223 12.1685 76.3935 12.102L77.6133 12.0317V11.6431C77.6133 11.1675 77.2988 10.8989 76.6914 10.8989C76.1953 10.8989 75.8516 11.0811 75.7529 11.3994H74.8926C74.9834 10.626 75.7109 10.1299 76.7324 10.1299C77.8613 10.1299 78.498 10.6919 78.498 11.6431V14.7197H77.6426V14.0869H77.5723C77.4295 14.3139 77.2291 14.499 76.9915 14.6232C76.7539 14.7474 76.4876 14.8063 76.2197 14.7939C76.0307 14.8136 75.8396 14.7934 75.6589 14.7347C75.4781 14.676 75.3117 14.5801 75.1702 14.4531C75.0288 14.3261 74.9156 14.171 74.8378 13.9975C74.7601 13.8241 74.7195 13.6363 74.7188 13.4463ZM77.6133 13.0615V12.6851L76.5137 12.7554C75.8936 12.7969 75.6123 13.0078 75.6123 13.4048C75.6123 13.81 75.9639 14.0459 76.4473 14.0459C76.5889 14.0602 76.732 14.0459 76.868 14.0038C77.004 13.9617 77.1302 13.8927 77.239 13.8009C77.3478 13.709 77.437 13.5963 77.5013 13.4692C77.5656 13.3422 77.6037 13.2036 77.6133 13.0615Z" fill="white"/>
<path d="M79.665 12.4663C79.665 11.0435 80.3965 10.1421 81.5342 10.1421C81.8156 10.1291 82.0949 10.1965 82.3394 10.3364C82.5839 10.4763 82.7836 10.6829 82.915 10.9321H82.9815V8.45898H83.8701V14.7197H83.0186V14.0083H82.9482C82.8066 14.2558 82.6 14.4598 82.3508 14.5983C82.1015 14.7368 81.8191 14.8044 81.5342 14.7939C80.3887 14.794 79.665 13.8926 79.665 12.4663ZM80.583 12.4663C80.583 13.4214 81.0332 13.9961 81.7862 13.9961C82.5352 13.9961 82.9981 13.4131 82.9981 12.4702C82.9981 11.5318 82.5303 10.9404 81.7862 10.9404C81.0381 10.9404 80.583 11.5191 80.583 12.4663H80.583Z" fill="white"/>
<path d="M87.5472 12.4663C87.5188 12.1703 87.5527 11.8718 87.6465 11.5897C87.7404 11.3076 87.8921 11.0483 88.0921 10.8283C88.292 10.6083 88.5357 10.4326 88.8076 10.3123C89.0794 10.192 89.3734 10.1299 89.6707 10.1299C89.968 10.1299 90.2619 10.192 90.5338 10.3123C90.8056 10.4326 91.0494 10.6083 91.2493 10.8283C91.4492 11.0483 91.601 11.3076 91.6948 11.5897C91.7887 11.8718 91.8225 12.1703 91.7942 12.4663C91.8231 12.7625 91.7896 13.0615 91.696 13.344C91.6024 13.6265 91.4508 13.8863 91.2508 14.1067C91.0508 14.3272 90.8069 14.5033 90.5348 14.6238C90.2626 14.7444 89.9683 14.8066 89.6707 14.8066C89.3731 14.8066 89.0787 14.7444 88.8066 14.6238C88.5345 14.5033 88.2906 14.3272 88.0906 14.1067C87.8906 13.8863 87.7389 13.6265 87.6453 13.344C87.5518 13.0615 87.5183 12.7625 87.5472 12.4663ZM90.8802 12.4663C90.8802 11.4902 90.4417 10.9194 89.6722 10.9194C88.8997 10.9194 88.4652 11.4902 88.4652 12.4663C88.4652 13.4502 88.8997 14.0166 89.6722 14.0166C90.4417 14.0166 90.8802 13.4462 90.8802 12.4663Z" fill="white"/>
<path d="M92.9863 10.2168H93.8418V10.9322H93.9082C94.0209 10.6753 94.2109 10.4599 94.4517 10.3161C94.6926 10.1723 94.9723 10.1072 95.252 10.1299C95.4711 10.1134 95.6911 10.1465 95.8957 10.2266C96.1003 10.3067 96.2842 10.4318 96.4339 10.5926C96.5836 10.7535 96.6952 10.9459 96.7604 11.1557C96.8256 11.3656 96.8427 11.5874 96.8105 11.8047V14.7197H95.9219V12.0279C95.9219 11.3043 95.6074 10.9444 94.9502 10.9444C94.8014 10.9375 94.6529 10.9628 94.5149 11.0186C94.3768 11.0744 94.2525 11.1595 94.1504 11.2678C94.0482 11.3762 93.9707 11.5054 93.9232 11.6465C93.8757 11.7877 93.8592 11.9374 93.875 12.0855V14.7198H92.9863V10.2168Z" fill="white"/>
<path d="M101.833 9.0957V10.2373H102.809V10.9858H101.833V13.3013C101.833 13.773 102.027 13.9795 102.47 13.9795C102.583 13.9791 102.696 13.9723 102.809 13.959V14.6992C102.649 14.7278 102.487 14.743 102.325 14.7446C101.337 14.7446 100.943 14.397 100.943 13.5288V10.9858H100.229V10.2373H100.943V9.0957H101.833Z" fill="white"/>
<path d="M104.021 8.45898H104.902V10.9404H104.973C105.091 10.6811 105.286 10.4645 105.532 10.3202C105.777 10.1758 106.062 10.1107 106.346 10.1338C106.564 10.1219 106.782 10.1583 106.984 10.2404C107.186 10.3224 107.368 10.4481 107.516 10.6084C107.664 10.7688 107.775 10.9598 107.841 11.1679C107.906 11.3761 107.925 11.5962 107.896 11.8125V14.7197H107.007V12.0317C107.007 11.3125 106.672 10.9482 106.044 10.9482C105.891 10.9357 105.738 10.9567 105.594 11.0098C105.45 11.0628 105.32 11.1466 105.212 11.2554C105.104 11.3641 105.021 11.4951 104.969 11.6393C104.917 11.7834 104.897 11.9372 104.91 12.0898V14.7197H104.022L104.021 8.45898Z" fill="white"/>
<path d="M113.079 13.504C112.958 13.9155 112.696 14.2715 112.34 14.5097C111.983 14.7478 111.554 14.853 111.128 14.8067C110.831 14.8145 110.536 14.7577 110.264 14.6402C109.991 14.5227 109.747 14.3472 109.55 14.1261C109.352 13.905 109.204 13.6434 109.118 13.3596C109.031 13.0758 109.007 12.7765 109.048 12.4825C109.008 12.1876 109.032 11.8877 109.119 11.603C109.205 11.3183 109.352 11.0556 109.549 10.8325C109.746 10.6094 109.988 10.4313 110.26 10.31C110.532 10.1888 110.826 10.1274 111.124 10.13C112.377 10.13 113.132 10.986 113.132 12.4V12.71H109.953V12.7598C109.939 12.9251 109.96 13.0914 110.014 13.2482C110.068 13.4049 110.154 13.5486 110.267 13.6701C110.38 13.7915 110.517 13.8881 110.669 13.9535C110.822 14.0189 110.986 14.0517 111.152 14.0498C111.365 14.0754 111.58 14.0371 111.771 13.9399C111.961 13.8427 112.119 13.6909 112.223 13.5039L113.079 13.504ZM109.953 12.0528H112.227C112.238 11.9017 112.218 11.7499 112.167 11.6072C112.116 11.4644 112.036 11.334 111.931 11.2241C111.827 11.1142 111.701 11.0274 111.561 10.9693C111.421 10.9111 111.27 10.8828 111.119 10.8863C110.965 10.8844 110.813 10.9132 110.67 10.9712C110.528 11.0291 110.398 11.115 110.29 11.2237C110.181 11.3324 110.095 11.4618 110.037 11.6042C109.98 11.7466 109.951 11.8991 109.953 12.0528H109.953Z" fill="white"/>
</g>
<defs>
<clipPath id="clip0_726_448">
<rect width="135" height="40" fill="white" transform="translate(0.289062 0.0219727)"/>
</clipPath>
</defs>
</svg>
