<svg width="167" height="29" viewBox="0 0 167 29" fill="none" xmlns="http://www.w3.org/2000/svg">
<path opacity="0.2" d="M42.0796 8.57343L41.9146 8.10143L42.0796 8.57343ZM118.744 7.71978L118.898 7.24424L118.744 7.71978ZM166.239 22.7729C166.365 23.019 166.267 23.3201 166.021 23.4455L162.012 25.489C161.766 25.6144 161.465 25.5166 161.339 25.2706C161.214 25.0245 161.312 24.7234 161.558 24.598L165.121 22.7816L163.305 19.2178C163.18 18.9718 163.277 18.6707 163.523 18.5453C163.769 18.4199 164.07 18.5177 164.196 18.7637L166.239 22.7729ZM0.644578 22.528L4.08375 21.3258L4.41373 22.2698L0.974563 23.472L0.644578 22.528ZM10.9621 18.9214L17.8404 16.5169L18.1704 17.4609L11.2921 19.8653L10.9621 18.9214ZM24.7187 14.1125L31.5971 11.7081L31.9271 12.6521L25.0487 15.0565L24.7187 14.1125ZM38.4754 9.30365L41.9146 8.10143L42.2446 9.04542L38.8054 10.2476L38.4754 9.30365ZM41.9146 8.10143C42.9432 7.74185 43.9756 7.39662 45.0114 7.06574L45.3157 8.01832C44.2885 8.34645 43.2647 8.68882 42.2446 9.04542L41.9146 8.10143ZM51.2823 5.24819C53.3919 4.69824 55.513 4.20646 57.6431 3.77288L57.8425 4.75279C55.7301 5.18277 53.6267 5.67047 51.5345 6.21585L51.2823 5.24819ZM64.0741 2.64442C66.2291 2.3262 68.3907 2.06672 70.5567 1.86598L70.649 2.86172C68.501 3.06079 66.3573 3.31812 64.2202 3.63369L64.0741 2.64442ZM77.0722 1.4398C79.2474 1.35661 81.4245 1.33237 83.6011 1.3671L83.5851 2.36697C81.4266 2.33253 79.2676 2.35657 77.1104 2.43907L77.0722 1.4398ZM90.1244 1.6481C92.2943 1.80055 94.4613 2.01184 96.6228 2.28199L96.4988 3.27427C94.3552 3.00636 92.2062 2.79683 90.0543 2.64564L90.1244 1.6481ZM103.077 3.26698C105.217 3.65302 107.348 4.09745 109.469 4.60029L109.239 5.57333C107.135 5.07466 105.021 4.63392 102.9 4.25109L103.077 3.26698ZM115.779 6.27776C116.822 6.58549 117.862 6.90764 118.898 7.24424L118.589 8.19533C117.562 7.86154 116.53 7.54205 115.496 7.23688L115.779 6.27776ZM118.898 7.24424L121.839 8.19925L121.53 9.15035L118.589 8.19533L118.898 7.24424ZM127.72 10.1093L133.601 12.0193L133.293 12.9704L127.411 11.0604L127.72 10.1093ZM139.483 13.9293L145.364 15.8394L145.055 16.7905L139.174 14.8804L139.483 13.9293ZM151.245 17.7494L157.126 19.6594L156.818 20.6105L150.936 18.7005L151.245 17.7494ZM163.008 21.5694L165.948 22.5245L165.639 23.4755L162.699 22.5205L163.008 21.5694ZM42.0796 8.57343L41.7496 7.62944L42.0796 8.57343ZM118.744 7.71978L119.053 6.76868L118.744 7.71978ZM166.685 22.5459C166.936 23.0379 166.74 23.6401 166.248 23.8909L158.23 27.978C157.738 28.2288 157.135 28.0332 156.885 27.5412C156.634 27.0491 156.829 26.4469 157.321 26.1961L164.449 22.5632L160.816 15.4356C160.565 14.9436 160.761 14.3414 161.253 14.0906C161.745 13.8398 162.347 14.0353 162.598 14.5274L166.685 22.5459ZM0.479585 22.056L3.91875 20.8538L4.57872 22.7418L1.13956 23.944L0.479585 22.056ZM10.7971 18.4494L17.6754 16.0449L18.3354 17.9329L11.4571 20.3373L10.7971 18.4494ZM24.5538 13.6405L31.4321 11.2361L32.0921 13.1241L25.2137 15.5285L24.5538 13.6405ZM38.3104 8.83165L41.7496 7.62944L42.4096 9.51741L38.9704 10.7196L38.3104 8.83165ZM41.7496 7.62944C42.7825 7.26836 43.8192 6.9217 44.8592 6.58945L45.4678 8.49461C44.4449 8.82136 43.4254 9.1623 42.4096 9.51741L41.7496 7.62944ZM51.1562 4.76436C53.2745 4.21213 55.4044 3.71831 57.5433 3.28293L57.9422 5.24274C55.8387 5.67092 53.744 6.15658 51.6607 6.69968L51.1562 4.76436ZM64.001 2.14978C66.165 1.83025 68.3356 1.56968 70.5106 1.36812L70.6951 3.35958C68.5561 3.55782 66.4213 3.81408 64.2932 4.12833L64.001 2.14978ZM77.0531 0.940165C79.2373 0.856628 81.4235 0.832287 83.6091 0.867165L83.5771 2.86691C81.4277 2.83261 79.2777 2.85655 77.1295 2.9387L77.0531 0.940165ZM90.1595 1.14933C92.3384 1.30242 94.5143 1.51458 96.6848 1.78585L96.4368 3.77041C94.3021 3.50363 92.1622 3.29497 90.0193 3.14441L90.1595 1.14933ZM103.166 2.77493C105.314 3.16257 107.455 3.60884 109.585 4.11377L109.123 6.05985C107.028 5.56327 104.924 5.12437 102.811 4.74314L103.166 2.77493ZM115.921 5.7982C116.968 6.1072 118.012 6.4307 119.053 6.76868L118.435 8.67088C117.411 8.33848 116.385 8.02033 115.355 7.71643L115.921 5.7982ZM119.053 6.76868L121.993 7.7237L121.376 9.6259L118.435 8.67088L119.053 6.76868ZM127.875 9.63373L133.756 11.5438L133.138 13.446L127.257 11.5359L127.875 9.63373ZM139.637 13.4538L145.518 15.3638L144.901 17.266L139.019 15.356L139.637 13.4538ZM151.4 17.2738L157.281 19.1839L156.663 21.0861L150.782 19.176L151.4 17.2738ZM163.162 21.0939L166.103 22.0489L165.485 23.9511L162.544 22.9961L163.162 21.0939Z" fill="black"/>
</svg>
