<svg width="168" height="28" viewBox="0 0 168 28" fill="none" xmlns="http://www.w3.org/2000/svg">
<path opacity="0.2" d="M42.5708 19.6507L42.4058 20.1227L42.5708 19.6507ZM119.235 20.5043L119.39 20.9799L119.235 20.5043ZM166.731 5.45118C166.856 5.20515 166.758 4.90405 166.512 4.77865L162.503 2.73513C162.257 2.60973 161.956 2.70752 161.83 2.95354C161.705 3.19957 161.803 3.50067 162.049 3.62607L165.613 5.44253L163.796 9.00631C163.671 9.25233 163.769 9.55344 164.015 9.67884C164.261 9.80424 164.562 9.70645 164.687 9.46042L166.731 5.45118ZM1.13579 5.69611L4.57496 6.89833L4.90494 5.95434L1.46577 4.75213L1.13579 5.69611ZM11.4533 9.30276L18.3316 11.7072L18.6616 10.7632L11.7833 8.35877L11.4533 9.30276ZM25.21 14.1116L32.0883 16.516L32.4183 15.5721L25.5399 13.1676L25.21 14.1116ZM38.9666 18.9205L42.4058 20.1227L42.7358 19.1787L39.2966 17.9765L38.9666 18.9205ZM42.4058 20.1227C43.4345 20.4823 44.4668 20.8275 45.5026 21.1584L45.8069 20.2058C44.7797 19.8777 43.7559 19.5353 42.7358 19.1787L42.4058 20.1227ZM51.7735 22.9759C53.8831 23.5259 56.0042 24.0177 58.1343 24.4512L58.3337 23.4713C56.2213 23.0414 54.1179 22.5537 52.0258 22.0083L51.7735 22.9759ZM64.5653 25.5797C66.7203 25.8979 68.882 26.1574 71.0479 26.3581L71.1402 25.3624C68.9922 25.1633 66.8485 24.906 64.7114 24.5904L64.5653 25.5797ZM77.5634 26.7843C79.7386 26.8675 81.9157 26.8918 84.0923 26.857L84.0763 25.8571C81.9178 25.8916 79.7588 25.8676 77.6016 25.7851L77.5634 26.7843ZM90.6156 26.576C92.7855 26.4236 94.9525 26.2123 97.114 25.9421L96.99 24.9498C94.8464 25.2178 92.6974 25.4273 90.5456 25.5785L90.6156 26.576ZM103.569 24.9571C105.708 24.5711 107.839 24.1267 109.961 23.6238L109.73 22.6508C107.626 23.1495 105.512 23.5902 103.391 23.973L103.569 24.9571ZM116.27 21.9464C117.313 21.6386 118.353 21.3165 119.39 20.9799L119.081 20.0288C118.053 20.3626 117.022 20.6821 115.987 20.9872L116.27 21.9464ZM119.39 20.9799L122.33 20.0249L122.021 19.0738L119.081 20.0288L119.39 20.9799ZM128.211 18.1148L134.093 16.2048L133.784 15.2537L127.903 17.1637L128.211 18.1148ZM139.974 14.2948L145.855 12.3848L145.546 11.4337L139.665 13.3437L139.974 14.2948ZM151.736 10.4747L157.618 8.56471L157.309 7.61361L151.428 9.52364L151.736 10.4747ZM163.499 6.65468L166.44 5.69967L166.131 4.74857L163.19 5.70358L163.499 6.65468ZM42.5708 19.6507L42.2408 20.5947L42.5708 19.6507ZM119.235 20.5043L119.544 21.4554L119.235 20.5043ZM167.176 5.67824C167.427 5.18618 167.231 4.58398 166.739 4.33318L158.721 0.246141C158.229 -0.00466013 157.627 0.190915 157.376 0.682969C157.125 1.17502 157.32 1.77723 157.813 2.02803L164.94 5.66095L161.307 12.7885C161.056 13.2805 161.252 13.8827 161.744 14.1336C162.236 14.3844 162.838 14.1888 163.089 13.6967L167.176 5.67824ZM0.970796 6.16811L4.40996 7.37032L5.06993 5.48235L1.63077 4.28013L0.970796 6.16811ZM11.2883 9.77475L18.1666 12.1792L18.8266 10.2912L11.9483 7.88678L11.2883 9.77475ZM25.045 14.5836L31.9233 16.988L32.5833 15.1001L25.7049 12.6956L25.045 14.5836ZM38.8016 19.3925L42.2408 20.5947L42.9008 18.7067L39.4616 17.5045L38.8016 19.3925ZM42.2408 20.5947C43.2737 20.9558 44.3104 21.3024 45.3504 21.6347L45.959 19.7295C44.9362 19.4028 43.9166 19.0618 42.9008 18.7067L42.2408 20.5947ZM51.6474 23.4598C53.7658 24.012 55.8956 24.5058 58.0345 24.9412L58.4335 22.9814C56.3299 22.5532 54.2352 22.0675 52.1519 21.5244L51.6474 23.4598ZM64.4922 26.0743C66.6562 26.3939 68.8268 26.6544 71.0018 26.856L71.1863 24.8645C69.0473 24.6663 66.9126 24.41 64.7844 24.0958L64.4922 26.0743ZM77.5443 27.284C79.7286 27.3675 81.9147 27.3918 84.1003 27.357L84.0684 25.3572C81.9189 25.3915 79.7689 25.3676 77.6207 25.2854L77.5443 27.284ZM90.6507 27.0748C92.8296 26.9217 95.0055 26.7095 97.176 26.4383L96.928 24.4537C94.7934 24.7205 92.6534 24.9292 90.5105 25.0797L90.6507 27.0748ZM103.657 25.4492C105.805 25.0615 107.946 24.6153 110.076 24.1103L109.615 22.1643C107.52 22.6609 105.415 23.0997 103.302 23.481L103.657 25.4492ZM116.412 22.4259C117.459 22.1169 118.503 21.7934 119.544 21.4554L118.926 19.5532C117.903 19.8856 116.876 20.2038 115.846 20.5077L116.412 22.4259ZM119.544 21.4554L122.485 20.5004L121.867 18.5982L118.926 19.5532L119.544 21.4554ZM128.366 18.5904L134.247 16.6804L133.629 14.7782L127.748 16.6882L128.366 18.5904ZM140.128 14.7703L146.01 12.8603L145.392 10.9581L139.511 12.8681L140.128 14.7703ZM151.891 10.9503L157.772 9.04026L157.154 7.13806L151.273 9.04809L151.891 10.9503ZM163.653 7.13023L166.594 6.17522L165.976 4.27302L163.036 5.22803L163.653 7.13023Z" fill="black"/>
</svg>
