<svg width="31" height="30" viewBox="0 0 31 30" fill="none" xmlns="http://www.w3.org/2000/svg">
<path d="M27.9995 19.3124H28.528C29.6133 19.3124 30.4952 18.4281 30.4952 17.3438C30.4952 16.7018 30.1819 16.1347 29.7036 15.7762C29.6406 7.85502 23.1822 4.92294 15.2476 4.92294C7.31209 4.92294 0.854962 7.85358 0.791593 15.7749C0.314638 16.1344 0 16.7004 0 17.3425C0 18.4278 0.882989 19.3111 1.96856 19.3111H3.89963V20.2417C2.8786 20.328 2.0691 21.2163 2.0691 22.3055C2.0691 22.8327 2.26382 23.3097 2.57566 23.6771C0.972025 24.2855 0.903626 25.3918 0.90748 25.563C0.90748 25.5643 0.906204 25.5655 0.906204 25.5681V25.5796V25.599C0.906204 25.6028 0.908756 25.6054 0.908756 25.6092C0.944738 28.0754 4.2229 30 8.40527 30H22.0878C26.2941 30 29.5889 28.0534 29.5889 25.5681C29.5889 25.5127 29.5733 25.4624 29.558 25.4122C29.5141 25.0421 29.2434 24.1926 27.9143 23.6823C28.2277 23.3148 28.4247 22.8353 28.4247 22.3055C28.4247 21.6415 28.118 21.0423 27.6267 20.6542C27.7814 20.2959 27.9156 19.9052 27.9993 19.4438L27.9995 19.3124ZM1.82668 15.3755C2.09872 8.20826 8.01433 5.95429 15.2472 5.95429C22.4792 5.95429 28.396 8.20688 28.6678 15.3755H1.82668ZM1.03123 17.3438C1.03123 16.8281 1.45281 16.4067 1.96982 16.4067H28.5281C29.0438 16.4067 29.4638 16.827 29.4638 17.3438C29.4638 17.8608 29.0448 18.2809 28.5281 18.2809L1.96982 18.2811C1.4528 18.2799 1.03123 17.8596 1.03123 17.3438ZM26.976 19.3124L26.9773 19.3471C26.789 20.3398 26.3779 21.0204 25.7577 21.3697C24.7007 21.9705 23.3174 21.4665 23.3033 21.4601C23.1589 21.4047 22.9966 21.42 22.8649 21.4973C22.7309 21.5759 22.6393 21.7073 22.6148 21.8594C22.4653 22.7682 22.1315 23.8961 21.3914 24.1038C20.2364 24.4417 18.3531 22.6265 17.7845 21.9679C17.6608 21.8235 17.4686 21.763 17.2818 21.8002C17.0963 21.8416 16.9493 21.9819 16.8977 22.1639C16.7367 22.7375 16.5729 23.1926 16.4131 23.5651C16.3692 23.6243 16.3396 23.6927 16.3241 23.7662C15.9696 24.5254 15.6384 24.8375 15.4023 24.8413H15.3972C15.0673 24.8413 14.6457 24.3812 14.2254 23.6991C14.1983 23.6218 14.157 23.5521 14.0978 23.4967C13.6466 22.7169 13.2082 21.6959 12.8976 20.7057C12.8318 20.497 12.6399 20.3525 12.4206 20.3461C12.1912 20.3538 12.0016 20.4725 11.923 20.6774C10.474 24.4789 9.65028 24.5177 9.57039 24.4853C9.03933 24.4249 8.43072 22.6355 8.21559 21.0678C8.18089 20.8155 7.96423 20.6261 7.70648 20.6248H7.70521C7.44874 20.6248 7.23081 20.8132 7.19482 21.0684C7.15093 21.3713 6.09906 21.6834 4.9313 21.7684V19.3139L26.976 19.3137L26.976 19.3124ZM17.6882 23.3551H17.6045C17.6109 23.3345 17.6188 23.3179 17.6264 23.2972C17.643 23.3151 17.6675 23.3357 17.6882 23.3551ZM12.8474 23.3551H11.8678C12.0354 23.0367 12.2041 22.6965 12.3756 22.3045C12.5085 22.6332 12.6683 22.9928 12.8474 23.3551ZM3.89996 21.2924V22.3058C3.89996 22.4423 3.95407 22.5753 4.05334 22.672C4.15261 22.7687 4.22738 22.8435 4.42209 22.8216C4.99065 22.8139 6.44089 22.7455 7.37797 22.2466C7.45274 22.5934 7.55329 22.9749 7.67833 23.3539H4.06224C3.53246 23.3539 3.10066 22.8846 3.10066 22.3058C3.10066 21.7901 3.45009 21.3802 3.89996 21.2924ZM28.5428 25.5557C28.5428 25.5738 28.5504 25.5866 28.5504 25.6047C28.5132 27.4313 25.5726 28.9678 22.0882 28.9678H8.40697C4.90062 28.9678 1.93808 27.4119 1.93808 25.5684C1.93808 25.5659 1.9368 25.5633 1.9368 25.5608C1.9368 25.5582 1.93808 25.5569 1.93808 25.5544C1.93808 25.5184 1.97406 24.6431 3.97759 24.3813C3.98014 24.3813 3.98269 24.3787 3.98652 24.3787C4.01229 24.3787 4.03679 24.3864 4.06384 24.3864H8.11934C8.44931 24.9871 8.88265 25.4459 9.4535 25.5118C10.0568 25.5878 10.6447 25.2257 11.248 24.3864H13.4383C13.9862 25.2191 14.6487 25.8754 15.3977 25.8739H15.4171C16.099 25.8637 16.6752 25.3814 17.1741 24.3864H18.9582C19.7896 24.9432 20.7693 25.3545 21.669 25.0991C22.0725 24.9855 22.4116 24.7355 22.7028 24.3864H26.436C26.458 24.3864 26.4774 24.38 26.4993 24.38C26.5019 24.38 26.5032 24.3813 26.5044 24.3813C28.4733 24.6403 28.5415 25.4936 28.5428 25.5557ZM27.3928 22.3058C27.3928 22.8846 26.9636 23.3539 26.4351 23.3539H23.2794C23.3697 23.1153 23.456 22.8718 23.5218 22.5868C24.1766 22.722 25.2788 22.82 26.2572 22.2721C26.5795 22.0905 26.8477 21.8365 27.0887 21.5464C27.2755 21.7424 27.3928 22.0106 27.3928 22.3058Z" fill="black"/>
<path d="M25.6312 9.97815C25.2548 9.97815 25.0588 10.6046 25.0588 11.2235C25.0588 11.841 25.2548 12.4675 25.6312 12.4675C26.0064 12.4675 26.2024 11.841 26.2024 11.2235C26.2024 10.6059 26.0064 9.97815 25.6312 9.97815ZM25.6312 12.2108C25.5243 12.2108 25.3153 11.8628 25.3153 11.2248C25.3153 10.5852 25.5241 10.2374 25.6312 10.2374C25.7382 10.2374 25.9459 10.5868 25.9459 11.2248C25.9459 11.8627 25.7384 12.2108 25.6312 12.2108Z" fill="black"/>
<path d="M21.8723 13.1596C21.7151 13.1596 20.3317 13.1727 20.3317 13.621C20.3317 14.0697 21.7148 14.0824 21.8723 14.0824C22.0295 14.0824 23.4128 14.0694 23.4128 13.621C23.4128 13.1727 22.0294 13.1596 21.8723 13.1596ZM21.8723 13.8249C21.1401 13.8249 20.7068 13.6999 20.6037 13.6213C20.7068 13.5427 21.1399 13.4177 21.8723 13.4177C22.6044 13.4177 23.0364 13.5427 23.1408 13.6213C23.0364 13.6999 22.6044 13.8249 21.8723 13.8249Z" fill="black"/>
<path d="M11.09 2.03643C11.5068 2.2049 11.5068 2.7951 11.09 2.96357L9.40162 3.64591C9.07295 3.77874 8.71427 3.53683 8.71427 3.18234L8.71427 1.81766C8.71427 1.46317 9.07295 1.22126 9.40162 1.35409L11.09 2.03643Z" stroke="black"/>
</svg>
