<svg width="54" height="55" viewBox="0 0 54 55" fill="none" xmlns="http://www.w3.org/2000/svg">
<path fill-rule="evenodd" clip-rule="evenodd" d="M43.5 51.8333C45.4891 51.8333 47.3968 51.0322 48.8033 49.6061C50.2098 48.1801 51 46.2459 51 44.2292C51 42.2124 50.2098 40.2783 48.8033 38.8522C47.3968 37.4262 45.4891 36.625 43.5 36.625C41.5109 36.625 39.6032 37.4262 38.1967 38.8522C36.7902 40.2783 36 42.2124 36 44.2292C36 46.2459 36.7902 48.1801 38.1967 49.6061C39.6032 51.0322 41.5109 51.8333 43.5 51.8333ZM43.5 54.875C46.2848 54.875 48.9555 53.7534 50.9246 51.7569C52.8938 49.7604 54 47.0526 54 44.2292C54 41.4057 52.8938 38.6979 50.9246 36.7014C48.9555 34.705 46.2848 33.5833 43.5 33.5833C40.7152 33.5833 38.0445 34.705 36.0754 36.7014C34.1062 38.6979 33 41.4057 33 44.2292C33 47.0526 34.1062 49.7604 36.0754 51.7569C38.0445 53.7534 40.7152 54.875 43.5 54.875Z" fill="#FC7C04"/>
<path fill-rule="evenodd" clip-rule="evenodd" d="M43.5 38.9062C43.8978 38.9062 44.2794 39.0665 44.5607 39.3517C44.842 39.6369 45 40.0237 45 40.4271V43.5995L46.0605 44.6748C46.3337 44.9616 46.4849 45.3458 46.4815 45.7445C46.4781 46.1433 46.3203 46.5247 46.0422 46.8067C45.7641 47.0887 45.3879 47.2486 44.9946 47.2521C44.6013 47.2556 44.2224 47.1023 43.9395 46.8252L42 44.8588V40.4271C42 40.0237 42.158 39.6369 42.4393 39.3517C42.7206 39.0665 43.1022 38.9062 43.5 38.9062Z" fill="#FC7C04"/>
<path fill-rule="evenodd" clip-rule="evenodd" d="M12 25.9792H9V29.0208H12V25.9792ZM9 22.9375C8.20435 22.9375 7.44129 23.258 6.87868 23.8284C6.31607 24.3988 6 25.1725 6 25.9792V29.0208C6 29.8275 6.31607 30.6012 6.87868 31.1716C7.44129 31.742 8.20435 32.0625 9 32.0625H12C12.7956 32.0625 13.5587 31.742 14.1213 31.1716C14.6839 30.6012 15 29.8275 15 29.0208V25.9792C15 25.1725 14.6839 24.3988 14.1213 23.8284C13.5587 23.258 12.7956 22.9375 12 22.9375H9Z" fill="#FC7C04"/>
<path fill-rule="evenodd" clip-rule="evenodd" d="M24 25.9792H21V29.0208H24V25.9792ZM21 22.9375C20.2044 22.9375 19.4413 23.258 18.8787 23.8284C18.3161 24.3988 18 25.1725 18 25.9792V29.0208C18 29.8275 18.3161 30.6012 18.8787 31.1716C19.4413 31.742 20.2044 32.0625 21 32.0625H24C24.7956 32.0625 25.5587 31.742 26.1213 31.1716C26.6839 30.6012 27 29.8275 27 29.0208V25.9792C27 25.1725 26.6839 24.3988 26.1213 23.8284C25.5587 23.258 24.7956 22.9375 24 22.9375H21Z" fill="#FC7C04"/>
<path fill-rule="evenodd" clip-rule="evenodd" d="M36 25.9792H33V29.0208H36V25.9792ZM33 22.9375C32.2044 22.9375 31.4413 23.258 30.8787 23.8284C30.3161 24.3988 30 25.1725 30 25.9792V29.0208C30 29.8275 30.3161 30.6012 30.8787 31.1716C31.4413 31.742 32.2044 32.0625 33 32.0625H36C36.7956 32.0625 37.5587 31.742 38.1213 31.1716C38.6839 30.6012 39 29.8275 39 29.0208V25.9792C39 25.1725 38.6839 24.3988 38.1213 23.8284C37.5587 23.258 36.7956 22.9375 36 22.9375H33Z" fill="#FC7C04"/>
<path fill-rule="evenodd" clip-rule="evenodd" d="M12 38.1458H9V41.1875H12V38.1458ZM9 35.1042C8.20435 35.1042 7.44129 35.4246 6.87868 35.995C6.31607 36.5655 6 37.3391 6 38.1458V41.1875C6 41.9942 6.31607 42.7679 6.87868 43.3383C7.44129 43.9087 8.20435 44.2292 9 44.2292H12C12.7956 44.2292 13.5587 43.9087 14.1213 43.3383C14.6839 42.7679 15 41.9942 15 41.1875V38.1458C15 37.3391 14.6839 36.5655 14.1213 35.995C13.5587 35.4246 12.7956 35.1042 12 35.1042H9Z" fill="#FC7C04"/>
<path fill-rule="evenodd" clip-rule="evenodd" d="M24 38.1458H21V41.1875H24V38.1458ZM21 35.1042C20.2044 35.1042 19.4413 35.4246 18.8787 35.995C18.3161 36.5655 18 37.3391 18 38.1458V41.1875C18 41.9942 18.3161 42.7679 18.8787 43.3383C19.4413 43.9087 20.2044 44.2292 21 44.2292H24C24.7956 44.2292 25.5587 43.9087 26.1213 43.3383C26.6839 42.7679 27 41.9942 27 41.1875V38.1458C27 37.3391 26.6839 36.5655 26.1213 35.995C25.5587 35.4246 24.7956 35.1042 24 35.1042H21Z" fill="#FC7C04"/>
<path fill-rule="evenodd" clip-rule="evenodd" d="M3 9.25C3 8.84665 3.15804 8.45982 3.43934 8.17461C3.72064 7.8894 4.10218 7.72917 4.5 7.72917H12V4.6875H4.5C3.30653 4.6875 2.16193 5.16819 1.31802 6.02382C0.474106 6.87946 0 8.03995 0 9.25V45.75C0 46.9601 0.474106 48.1205 1.31802 48.9762C2.16193 49.8318 3.30653 50.3125 4.5 50.3125H34.8825C34.2428 49.3835 33.7541 48.3566 33.435 47.2708H4.5C4.10218 47.2708 3.72064 47.1106 3.43934 46.8254C3.15804 46.5402 3 46.1534 3 45.75V9.25ZM42 33.6898C42.9949 33.5455 44.0051 33.5455 45 33.6898V9.25C45 8.03995 44.5259 6.87946 43.682 6.02382C42.8381 5.16819 41.6935 4.6875 40.5 4.6875H36V7.72917H40.5C40.8978 7.72917 41.2794 7.8894 41.5607 8.17461C41.842 8.45982 42 8.84665 42 9.25V33.6898ZM15 7.72917H30.8445V4.6875H15V7.72917Z" fill="#FC7C04"/>
<path fill-rule="evenodd" clip-rule="evenodd" d="M33 4.6875H15V9.25C15 9.65335 14.842 10.0402 14.5607 10.3254C14.2794 10.6106 13.8978 10.7708 13.5 10.7708C13.1022 10.7708 12.7206 10.6106 12.4393 10.3254C12.158 10.0402 12 9.65335 12 9.25V4.6875H4.5C3.70435 4.6875 2.94129 5.00796 2.37868 5.57838C1.81607 6.14881 1.5 6.92247 1.5 7.72917V15.3333C1.5 16.14 1.81607 16.9137 2.37868 17.4841C2.94129 18.0545 3.70435 18.375 4.5 18.375H40.5C41.2957 18.375 42.0587 18.0545 42.6213 17.4841C43.1839 16.9137 43.5 16.14 43.5 15.3333V7.72917C43.5 6.92247 43.1839 6.14881 42.6213 5.57838C42.0587 5.00796 41.2957 4.6875 40.5 4.6875H36V9.25C36 9.65335 35.842 10.0402 35.5607 10.3254C35.2794 10.6106 34.8978 10.7708 34.5 10.7708C34.1022 10.7708 33.7206 10.6106 33.4393 10.3254C33.158 10.0402 33 9.65335 33 9.25V4.6875Z" fill="#FC7C04"/>
<path fill-rule="evenodd" clip-rule="evenodd" d="M45 18.375H3V15.3333H45V18.375Z" fill="#FC7C04"/>
<path d="M9 1.64583C9 1.24248 9.15804 0.855654 9.43934 0.570442C9.72064 0.285231 10.1022 0.125 10.5 0.125C10.8978 0.125 11.2794 0.285231 11.5607 0.570442C11.842 0.855654 12 1.24248 12 1.64583V7.72917C12 8.13252 11.842 8.51935 11.5607 8.80456C11.2794 9.08977 10.8978 9.25 10.5 9.25C10.1022 9.25 9.72064 9.08977 9.43934 8.80456C9.15804 8.51935 9 8.13252 9 7.72917V1.64583Z" fill="#FC7C04"/>
<path d="M30 1.64583C30 1.24248 30.158 0.855654 30.4393 0.570442C30.7206 0.285231 31.1022 0.125 31.5 0.125C31.8978 0.125 32.2794 0.285231 32.5607 0.570442C32.842 0.855654 33 1.24248 33 1.64583V7.72917C33 8.13252 32.842 8.51935 32.5607 8.80456C32.2794 9.08977 31.8978 9.25 31.5 9.25C31.1022 9.25 30.7206 9.08977 30.4393 8.80456C30.158 8.51935 30 8.13252 30 7.72917V1.64583Z" fill="#FC7C04"/>
</svg>
