<svg width="19" height="18" viewBox="0 0 19 18" fill="none" xmlns="http://www.w3.org/2000/svg">
<path d="M18.9043 8.36668C18.8343 8.48642 18.7837 8.62554 18.69 8.72195C18.4897 8.92798 18.234 8.98389 17.9624 8.88352C17.6846 8.78094 17.5323 8.56963 17.5029 8.27467C17.4941 8.1875 17.4989 8.09902 17.4989 8.01097C17.4989 6.78623 17.4993 5.56148 17.4985 4.33718C17.498 3.40212 16.9086 2.81264 15.9737 2.81176C15.7167 2.81132 15.4596 2.81176 15.1775 2.81176C15.1775 3.05917 15.1863 3.29734 15.1757 3.53507C15.1515 4.08493 14.563 4.39794 14.103 4.10782C13.8891 3.97267 13.7813 3.77148 13.7751 3.5201C13.7694 3.2925 13.7738 3.06446 13.7738 2.82453C12.7073 2.82453 11.6509 2.82453 10.5747 2.82453C10.5747 3.00546 10.5747 3.18508 10.5747 3.36514C10.5747 3.8921 10.3106 4.21436 9.8766 4.21744C9.436 4.22052 9.16926 3.89562 9.16926 3.35677C9.16926 3.182 9.16926 3.00767 9.16926 2.82277C8.11551 2.82277 7.07541 2.82277 6.00582 2.82277C6.00582 3.04817 6.01022 3.27973 6.00494 3.5113C5.99789 3.82959 5.81082 4.08669 5.52692 4.18002C5.07443 4.3297 4.62106 4.01229 4.60302 3.52715C4.59421 3.2947 4.6017 3.06181 4.6017 2.79415C4.18706 2.8144 3.78344 2.79019 3.39829 2.86283C2.76974 2.98125 2.35423 3.52891 2.31858 4.18794C2.31593 4.23461 2.31638 4.28171 2.31638 4.32838C2.31638 7.91456 2.31682 11.5003 2.31593 15.0865C2.31593 15.6958 2.55274 16.1761 3.11263 16.4393C3.32655 16.5397 3.58492 16.5859 3.82393 16.5877C5.55157 16.6 7.27965 16.5952 9.00772 16.593C9.23441 16.5925 9.4382 16.6418 9.60062 16.8069C9.93867 17.1503 9.83479 17.7222 9.39859 17.9308C9.34665 17.9559 9.29295 17.9775 9.24013 18.0008C7.29549 18.0008 5.35085 18.0008 3.40622 18.0008C3.38597 17.9907 3.3666 17.9744 3.34503 17.9718C2.02235 17.8102 0.896851 16.6299 0.904334 15.0799C0.922381 11.495 0.909176 7.91015 0.912697 4.32574C0.912697 4.10474 0.927222 3.8789 0.971679 3.66318C1.24018 2.35083 2.35247 1.43249 3.69364 1.40696C3.99031 1.40124 4.28742 1.40608 4.6017 1.40608C4.6017 1.15515 4.59466 0.922259 4.60302 0.689814C4.62106 0.204672 5.07443 -0.111859 5.52692 0.0373814C5.81038 0.131152 5.99745 0.387811 6.0045 0.706103C6.00978 0.937227 6.00538 1.16879 6.00538 1.39507C7.07453 1.39507 8.11463 1.39507 9.16926 1.39507C9.16926 1.17584 9.1675 0.966283 9.1697 0.75673C9.17366 0.31209 9.46681 -0.00179971 9.87484 -3.8761e-05C10.282 0.00128195 10.5712 0.315171 10.5751 0.761572C10.5769 0.970685 10.5756 1.1798 10.5756 1.39419C11.6496 1.39419 12.7055 1.39419 13.7738 1.39419C13.7738 1.17936 13.7729 0.975528 13.7738 0.771698C13.7769 0.313851 14.0678 -0.00312043 14.482 -3.8761e-05C14.8892 0.0030429 15.1762 0.316932 15.1792 0.764654C15.181 0.973327 15.1797 1.18244 15.1797 1.4074C15.5261 1.4074 15.8536 1.39243 16.1793 1.41004C17.2898 1.4708 18.1112 2.0004 18.6121 2.99094C18.7542 3.27181 18.8097 3.5967 18.9052 3.90135C18.9043 5.38979 18.9043 6.87824 18.9043 8.36668Z" fill="#2D2D2D"/>
<path d="M14.3003 18C13.8936 17.8979 13.4741 17.8323 13.0832 17.6879C11.2698 17.0196 10.1183 14.9976 10.4577 13.0944C10.7583 11.4083 11.7205 10.2426 13.3403 9.71473C14.9993 9.17411 16.4848 9.57825 17.719 10.8136C18.3894 11.4845 18.7591 12.3157 18.8731 13.2591C18.8784 13.3044 18.8938 13.3489 18.9044 13.3938C18.9044 13.628 18.9044 13.8626 18.9044 14.0969C18.8925 14.1532 18.8784 14.2096 18.8696 14.2663C18.6073 15.9472 17.69 17.1134 16.1054 17.7301C15.7559 17.8662 15.3716 17.912 15.0032 17.9991C14.7691 18 14.5349 18 14.3003 18ZM14.6436 16.593C16.2093 16.5983 17.4954 15.3176 17.4981 13.7499C17.5007 12.1897 16.2308 10.91 14.6691 10.8985C13.1044 10.8875 11.8142 12.1642 11.8059 13.7332C11.7975 15.2987 13.0762 16.5877 14.6436 16.593Z" fill="#2D2D2D"/>
<path d="M6.00484 7.38015C6.00572 7.76668 5.68704 8.08541 5.30058 8.08409C4.91411 8.08277 4.59764 7.76184 4.6016 7.37531C4.60556 6.99582 4.91764 6.6837 5.29706 6.68017C5.68308 6.67665 6.00352 6.99362 6.00484 7.38015Z" fill="#2D2D2D"/>
<path d="M9.0616 7.38849C9.05808 7.77502 8.73544 8.08979 8.34898 8.08407C7.96252 8.0779 7.65 7.75345 7.65837 7.36692C7.66673 6.98743 7.98277 6.67927 8.36219 6.68015C8.74865 6.68147 9.06557 7.00196 9.0616 7.38849Z" fill="#2D2D2D"/>
<path d="M11.4211 6.68015C11.8075 6.68147 12.124 7.0024 12.12 7.38893C12.1161 7.77546 11.793 8.09023 11.407 8.08363C11.0276 8.07746 10.7177 7.76313 10.7168 7.38365C10.7159 6.99712 11.0346 6.67883 11.4211 6.68015Z" fill="#2D2D2D"/>
<path d="M15.1786 7.37531C15.1826 7.76184 14.8661 8.08277 14.4797 8.08409C14.0932 8.08541 13.7745 7.76712 13.7754 7.38059C13.7763 7.00067 14.0861 6.68678 14.4656 6.68061C14.8516 6.67401 15.1747 6.98878 15.1786 7.37531Z" fill="#2D2D2D"/>
<path d="M6.00485 10.4407C6.00485 10.8272 5.68573 11.1451 5.29927 11.1429C4.9128 11.1407 4.59721 10.8188 4.60161 10.4323C4.60601 10.0528 4.91897 9.74158 5.29839 9.73894C5.68485 9.7363 6.00441 10.0537 6.00485 10.4407Z" fill="#2D2D2D"/>
<path d="M9.06162 10.4477C9.05766 10.8342 8.73458 11.149 8.34856 11.1424C7.9621 11.1362 7.64958 10.8109 7.65838 10.4248C7.66675 10.0453 7.98322 9.73717 8.36264 9.73893C8.74955 9.74025 9.06558 10.0612 9.06162 10.4477Z" fill="#2D2D2D"/>
<path d="M6.00492 13.5043C6.00228 13.8908 5.68052 14.2065 5.29449 14.2016C4.90803 14.1968 4.59464 13.8728 4.60168 13.4862C4.60872 13.1067 4.92388 12.7977 5.30374 12.7977C5.68976 12.7977 6.00756 13.1178 6.00492 13.5043Z" fill="#2D2D2D"/>
<path d="M8.35874 14.2016C7.97228 14.1999 7.6558 13.8789 7.6602 13.4924C7.66416 13.1059 7.98724 12.7915 8.3737 12.7977C8.75312 12.8039 9.063 13.1186 9.06344 13.4981C9.06388 13.8846 8.74476 14.2034 8.35874 14.2016Z" fill="#2D2D2D"/>
<path d="M15.3533 13.0451C15.4907 13.0451 15.602 13.0389 15.7121 13.0464C16.0911 13.072 16.3776 13.3819 16.3728 13.7557C16.3679 14.1219 16.0836 14.4301 15.7108 14.4437C15.3428 14.4574 14.9735 14.4578 14.6059 14.4429C14.2472 14.4288 13.9642 14.1439 13.9549 13.7838C13.9422 13.2811 13.9422 12.7774 13.9545 12.2747C13.9637 11.893 14.2771 11.6038 14.6508 11.6024C15.0311 11.6016 15.3388 11.897 15.3529 12.2883C15.3604 12.5327 15.3533 12.7774 15.3533 13.0451Z" fill="#2D2D2D"/>
</svg>
