<svg width="33" height="28" viewBox="0 0 33 28" fill="none" xmlns="http://www.w3.org/2000/svg">
<path d="M13.5862 28C12.5141 28 11.645 27.1046 11.645 26C11.645 24.8954 12.5141 24 13.5862 24C14.6582 24 15.5273 24.8954 15.5273 26C15.5273 27.1046 14.6582 28 13.5862 28Z" fill="white"/>
<path d="M26.2034 28C25.1313 28 24.2622 27.1046 24.2622 26C24.2622 24.8954 25.1313 24 26.2034 24C27.2754 24 28.1445 24.8954 28.1445 26C28.1445 27.1046 27.2754 28 26.2034 28Z" fill="white"/>
<path d="M32.7413 3.71174C32.641 3.59273 32.5121 3.49629 32.3646 3.42981C32.2171 3.36332 32.0549 3.32857 31.8905 3.32821H7.01079L6.52612 1.92191C6.47288 1.77091 6.38043 1.63392 6.25665 1.52261C6.13287 1.4113 5.98144 1.32899 5.81528 1.28268L1.39941 0.0435691C1.26362 0.00547129 1.12095 -0.00783411 0.979541 0.00441294C0.838128 0.01666 0.700741 0.0542194 0.575225 0.114947C0.321735 0.237591 0.131985 0.447159 0.047718 0.697546C-0.0365485 0.947934 -0.00842884 1.21863 0.125891 1.45009C0.260211 1.68155 0.489728 1.8548 0.763951 1.93174L4.63053 3.01351L9.56338 17.2437L7.8078 18.5614L7.66779 18.6893C7.23363 19.1483 6.98765 19.7308 6.97194 20.3372C6.95622 20.9435 7.17174 21.536 7.58162 22.0133C7.87518 22.3392 8.24821 22.5979 8.67088 22.7687C9.09354 22.9395 9.55411 23.0176 10.0157 22.9967H27.9916C28.2772 22.9967 28.5512 22.8931 28.7531 22.7087C28.9551 22.5242 29.0686 22.2741 29.0686 22.0133C29.0686 21.7524 28.9551 21.5023 28.7531 21.3179C28.5512 21.1335 28.2772 21.0298 27.9916 21.0298H9.84341C9.71939 21.026 9.59855 20.993 9.49257 20.934C9.3866 20.8751 9.29907 20.7921 9.23843 20.6933C9.1778 20.5944 9.14611 20.4829 9.14643 20.3696C9.14676 20.2563 9.17907 20.145 9.24027 20.0464L11.8359 18.0796H28.4547C28.7007 18.0861 28.9418 18.0155 29.1378 17.8795C29.3337 17.7435 29.4728 17.5504 29.5317 17.3322L32.9783 4.54765C33.011 4.40104 33.0067 4.24954 32.9656 4.10468C32.9246 3.95983 32.8479 3.82543 32.7413 3.71174Z" fill="white"/>
</svg>
