<svg width="23" height="23" viewBox="0 0 23 23" fill="none" xmlns="http://www.w3.org/2000/svg">
<path fill-rule="evenodd" clip-rule="evenodd" d="M3.76968 19.5716C2.84546 18.6474 2.58032 17.2376 2.87016 15.3879C1.35723 14.2848 0.547852 13.1005 0.547852 11.7935C0.547852 10.4864 1.35723 9.30207 2.87016 8.19904C2.58032 6.34927 2.84546 4.9395 3.76968 4.01528C4.69389 3.09107 6.10367 2.82592 7.95343 3.11577C9.05647 1.60283 10.2408 0.793457 11.5479 0.793457C12.8549 0.793457 14.0392 1.60283 15.1423 3.11577C16.992 2.82592 18.4018 3.09107 19.326 4.01528C20.2502 4.9395 20.5154 6.34927 20.2255 8.19904C21.7385 9.30207 22.5479 10.4864 22.5479 11.7935C22.5479 13.1005 21.7385 14.2848 20.2255 15.3879C20.5154 17.2376 20.2502 18.6474 19.326 19.5716C18.4018 20.4958 16.992 20.761 15.1423 20.4711C14.0392 21.9841 12.8549 22.7935 11.5479 22.7935C10.2408 22.7935 9.05647 21.9841 7.95343 20.4711C6.10367 20.761 4.69389 20.4958 3.76968 19.5716ZM8.20043 18.3914C8.60636 18.3045 9.02379 18.4774 9.24935 18.8259C10.1301 20.1867 10.9155 20.7935 11.5479 20.7935C12.1802 20.7935 12.9656 20.1867 13.8464 18.8259C14.0719 18.4774 14.4893 18.3045 14.8953 18.3914C16.4803 18.7309 17.4647 18.6046 17.9118 18.1574C18.359 17.7103 18.4853 16.7259 18.1458 15.1409C18.0589 14.7349 18.2318 14.3175 18.5803 14.092C19.9411 13.2112 20.5479 12.4258 20.5479 11.7935C20.5479 11.1611 19.9411 10.3757 18.5803 9.49496C18.2318 9.26939 18.0589 8.85197 18.1458 8.44604C18.4853 6.861 18.359 5.87665 17.9118 5.4295C17.4647 4.98235 16.4803 4.85602 14.8953 5.19547C14.4893 5.28241 14.0719 5.1095 13.8464 4.761C12.9656 3.40018 12.1802 2.79346 11.5479 2.79346C10.9155 2.79346 10.1301 3.40018 9.24935 4.761C9.02379 5.1095 8.60636 5.28241 8.20043 5.19547C6.6154 4.85602 5.63104 4.98235 5.18389 5.4295C4.73674 5.87665 4.61041 6.861 4.94987 8.44604C5.0368 8.85197 4.8639 9.26939 4.51539 9.49496C3.15457 10.3757 2.54785 11.1611 2.54785 11.7935C2.54785 12.4258 3.15457 13.2112 4.51539 14.092C4.8639 14.3175 5.0368 14.7349 4.94987 15.1409C4.61041 16.7259 4.73674 17.7103 5.18389 18.1574C5.63104 18.6046 6.6154 18.7309 8.20043 18.3914ZM14.8407 8.08635L10.5479 12.3792L8.25496 10.0864L6.84074 11.5006L10.5479 15.2077L16.255 9.50056L14.8407 8.08635Z" fill="#30AC5A"/>
</svg>
