<svg width="27" height="29" viewBox="0 0 27 29" fill="none" xmlns="http://www.w3.org/2000/svg">
<path d="M4.41733 2.5716L4.90415 3.39716C4.95633 3.2176 5.05198 3.07801 5.18231 2.96811C5.24291 2.91699 5.30735 2.87611 5.34392 2.85291C5.34679 2.85109 5.34949 2.84938 5.352 2.84778C5.39445 2.82074 5.4159 2.8064 5.43529 2.79056L5.44227 2.78486L5.44946 2.77941C5.62906 2.64326 5.7404 2.42276 5.7404 2.18856C5.7404 1.77471 5.40934 1.45109 5.02755 1.45109C4.67439 1.45109 4.36505 1.72034 4.31992 2.09486L3.82351 2.03503L4.31992 2.09486C4.2999 2.26092 4.33415 2.43055 4.41733 2.5716ZM4.86903 3.57091C4.87095 3.55531 4.87314 3.53996 4.87559 3.52485L4.47416 3.43987C4.4172 3.57838 4.33365 3.70068 4.23944 3.79629C3.97138 4.06835 3.47944 4.26042 3.01328 3.9756L3.01243 3.97508C2.87691 3.89192 2.71697 3.85894 2.56126 3.8782C2.21359 3.92125 1.93769 4.22507 1.93479 4.60861C1.93562 5.02248 2.26802 5.34519 2.64447 5.3428H2.64763C2.82958 5.3428 3.00992 5.27283 3.14692 5.13252L3.14783 5.13159C3.17302 5.10592 3.18831 5.08252 3.22217 5.03071C3.24021 5.0031 3.26352 4.96743 3.29641 4.91904C3.36577 4.81699 3.50184 4.62424 3.73907 4.51897L3.74 4.51856C4.11549 4.35286 4.56047 4.44793 4.8427 4.77087L5.96949 5.92097L5.97018 5.92167C6.23642 6.19448 6.30943 6.58387 6.19729 6.91901C5.95226 7.67422 6.07587 8.55293 6.44009 9.42922C6.80277 10.3018 7.3825 11.1171 7.95873 11.7047L7.95883 11.7048C8.94815 12.7142 10.0876 13.3354 11.1064 13.5434L11.1077 13.5437C11.8408 13.6953 12.4553 13.6237 12.9067 13.3836C13.3449 13.1506 13.6861 12.7295 13.8357 12.0532C14.0843 10.9277 13.558 9.59969 12.616 8.40149C11.6813 7.21265 10.4347 6.27922 9.47331 5.93616L9.47277 5.93597C8.6305 5.63432 7.86802 5.60171 7.29228 5.79711L7.29076 5.79762C6.92726 5.91969 6.54591 5.81085 6.29754 5.55881L6.29661 5.55786L5.14013 4.37802L5.13954 4.37742C4.92111 4.15383 4.83436 3.85255 4.86903 3.57091ZM21.7702 7.08811C19.6665 5.46466 16.3617 4.52181 12.6935 5.63835C13.5098 6.35332 14.2878 7.24332 14.8619 8.23754C15.6036 9.52195 16.026 11.0198 15.6918 12.5459L15.6917 12.5463C15.6325 12.8156 15.5527 13.0729 15.4468 13.32H21.9293C22.9788 12.9054 23.621 12.3078 23.8956 11.6367C24.1736 10.9575 24.1187 10.0947 23.5435 9.07155C23.1528 8.37708 22.5496 7.68946 21.7702 7.08814L21.7702 7.08811Z" fill="white" stroke="black"/>
<path d="M1.61803 11H25.1126C25.7951 11 26.2771 11.6687 26.0613 12.3162L25.7279 13.3162C25.5918 13.7246 25.2097 14 24.7792 14H22.3056C22.9282 14 23.3995 14.5629 23.29 15.1758L22.25 21L21.1472 27.1758C21.062 27.6527 20.6472 28 20.1628 28H8.3198C7.84312 28 7.43271 27.6635 7.33922 27.1961L5.4 17.5L4.7 14H4.5H2.11803C1.73926 14 1.393 13.786 1.22361 13.4472L0.723607 12.4472C0.391156 11.7823 0.874652 11 1.61803 11Z" fill="white"/>
<path d="M4.5 14H24.7792C25.2097 14 25.5918 13.7246 25.7279 13.3162L26.0613 12.3162C26.2771 11.6687 25.7951 11 25.1126 11H1.61803C0.874652 11 0.391156 11.7823 0.723607 12.4472L1.22361 13.4472C1.393 13.786 1.73926 14 2.11803 14H4.5ZM4.5 14H4.7M4.7 14H22.3056C22.9282 14 23.3995 14.5629 23.29 15.1758L22.25 21M4.7 14L5.4 17.5M5.4 17.5L7.33922 27.1961C7.43271 27.6635 7.84312 28 8.3198 28H20.1628C20.6472 28 21.062 27.6527 21.1472 27.1758L22.25 21M5.4 17.5H16.5M22.25 21H12" stroke="black" stroke-linecap="round"/>
<path d="M17.8183 24.7466C17.8801 24.8536 17.903 24.9822 17.8828 25.1087C17.8632 25.2275 17.8073 25.3346 17.7248 25.4145C17.7784 25.517 17.7974 25.6368 17.7786 25.7543C17.7326 26.04 17.4805 26.2378 17.2166 26.1953C17.0061 26.1616 16.8377 25.9663 16.8182 25.7387L16.3186 25.6583C16.2591 25.6489 16.2196 25.5927 16.2289 25.5341L16.3419 24.8311C16.3514 24.7721 16.407 24.7317 16.466 24.7413L16.9658 24.8216C17.0567 24.6095 17.2695 24.4781 17.4875 24.513C17.6249 24.5353 17.7455 24.6204 17.8183 24.7466L17.8183 24.7466ZM17.4859 25.4454C17.4735 25.424 17.4687 25.3989 17.4727 25.374C17.4776 25.3431 17.496 25.3156 17.5226 25.2991C17.5998 25.2514 17.6532 25.1692 17.6689 25.0741C17.6949 24.912 17.5936 24.7499 17.4532 24.7271C17.3163 24.7052 17.1811 24.8106 17.1458 24.9674C17.1332 25.0231 17.0794 25.0595 17.0229 25.0504L16.5387 24.9726L16.46 25.4617L16.944 25.5396C17.0006 25.5488 17.0404 25.6004 17.0347 25.6572C17.0194 25.812 17.1176 25.9603 17.251 25.9815C17.397 26.005 17.5377 25.8876 17.5647 25.72C17.5799 25.6259 17.5543 25.5302 17.4968 25.461C17.4927 25.4562 17.489 25.4509 17.4859 25.4454L17.4859 25.4454Z" fill="black"/>
<path d="M16.1019 24.723C16.114 24.7439 16.1192 24.7689 16.1151 24.7944L16.0019 25.4977C15.9973 25.5263 15.9816 25.5514 15.9583 25.5683C15.9351 25.5851 15.906 25.5921 15.8777 25.5874C15.3786 25.507 14.8065 25.8578 14.5097 26.0742C14.4504 26.1269 14.3869 26.1766 14.3235 26.2199C14.3199 26.2222 14.3164 26.2242 14.313 26.2262C13.8884 26.5092 13.3709 26.6194 12.8541 26.5361C12.2401 26.4371 11.7151 26.0812 11.4138 25.5594C11.1992 25.1876 11.1212 24.7711 11.1882 24.355C11.3538 23.3271 12.3706 22.6325 13.4544 22.8071C13.9745 22.891 14.4339 23.1608 14.7481 23.567L14.9105 23.818C15.3987 24.4987 16.0289 24.6707 16.0353 24.6723C16.0646 24.68 16.0879 24.6987 16.1019 24.7229L16.1019 24.723ZM15.8042 25.3615L15.8862 24.8512C15.6762 24.7737 15.1574 24.5337 14.7315 23.9397L14.5716 23.692C14.2964 23.3371 13.8857 23.0961 13.4201 23.021C12.4541 22.8657 11.5489 23.4795 11.4022 24.3895C11.3431 24.7558 11.4122 25.123 11.6015 25.451C11.8701 25.9161 12.3391 26.2334 12.8884 26.322C13.3537 26.3968 13.8193 26.2973 14.1994 26.0411C14.2024 26.0391 14.2057 26.0372 14.2088 26.0354C14.2689 25.9939 14.3226 25.9507 14.3744 25.9051C14.6854 25.6779 15.2583 25.3275 15.8042 25.3615L15.8042 25.3615Z" fill="black"/>
<path d="M13.9844 23.6414C14.0019 23.6717 14.0043 23.7098 13.9879 23.7435C13.9613 23.7972 13.8964 23.8193 13.8426 23.7929C13.7672 23.7555 13.6921 23.7236 13.6198 23.6977C13.5638 23.6775 13.5341 23.6155 13.5543 23.5589C13.5747 23.5027 13.6367 23.4733 13.693 23.4936C13.7733 23.5223 13.8557 23.5575 13.9385 23.5982C13.9584 23.6083 13.974 23.6235 13.9844 23.6414L13.9844 23.6414Z" fill="black"/>
<path d="M13.3672 23.4504C13.3785 23.4699 13.3839 23.4926 13.3812 23.5165C13.3745 23.5759 13.321 23.6188 13.2615 23.6123C12.6944 23.5497 12.3146 23.885 12.0958 24.1775C12.0599 24.2254 11.992 24.2354 11.944 24.1995C11.8961 24.1633 11.8864 24.0955 11.922 24.0476C12.1749 23.7101 12.6166 23.323 13.2852 23.3968C13.3211 23.4009 13.3507 23.4217 13.3672 23.4504L13.3672 23.4504Z" fill="black"/>
</svg>
