<svg width="51" height="53" viewBox="0 0 51 53" fill="none" xmlns="http://www.w3.org/2000/svg">
<g clip-path="url(#clip0_25_311)">
<path d="M22.2545 43.6724C21.2565 43.6724 20.3084 43.6724 19.2272 43.6724C19.3603 46.8534 18.5951 50.051 20.7908 52.9172C16.1001 52.9172 11.5592 52.9172 6.88523 52.9172C5.95376 43.689 5.02229 34.4111 4.09082 25.0669C11.7588 25.0669 19.327 25.0669 27.0449 25.0669C26.6956 25.1663 26.4461 25.2491 26.1966 25.3154C22.4707 26.442 19.9757 28.8609 19.4434 32.7046C19.0775 35.2394 19.3769 37.8571 19.3769 40.5245C20.2751 40.5245 21.2399 40.5245 22.2545 40.5245C22.2545 41.6014 22.2545 42.5955 22.2545 43.6724Z" fill="url(#paint0_linear_25_311)"/>
<path d="M50.3982 37.3933C41.017 37.3933 31.7189 37.3933 22.3211 37.3933C22.3543 35.6371 22.0716 33.8975 22.7036 32.2241C23.6185 29.7721 25.864 28.1485 28.4921 28.1319C33.7316 28.1154 38.9711 28.0988 44.194 28.1319C47.6371 28.1485 50.3317 30.8822 50.3816 34.3117C50.4149 35.3057 50.3982 36.2998 50.3982 37.3933Z" fill="url(#paint1_linear_25_311)"/>
<path d="M0.547852 21.8528C0.547852 19.7487 0.547852 17.7109 0.547852 15.6399C11.975 15.6399 23.3356 15.6399 34.7628 15.6399C34.7628 17.7274 34.7628 19.7652 34.7628 21.8528C23.3522 21.8528 11.975 21.8528 0.547852 21.8528Z" fill="url(#paint2_linear_25_311)"/>
<path d="M31.0198 12.4589C22.0711 12.4589 13.2554 12.4589 4.32324 12.4589C4.42304 12.2104 4.47294 11.9784 4.57274 11.7796C5.38778 10.1229 6.21945 8.46608 7.01785 6.79275C7.23409 6.32885 7.51685 6.14661 8.03249 6.16318C9.69583 6.19631 11.3592 6.17974 13.0225 6.17974C13.3219 6.17974 13.6213 6.17974 14.0704 6.17974C13.8043 5.08628 13.5714 4.12535 13.3219 3.09816C11.1429 3.09816 9.01386 3.09816 6.80162 3.09816C6.80162 2.03782 6.80162 1.04376 6.80162 0C9.779 0 12.7231 0 15.7504 0C16.1995 1.80588 16.6819 3.61175 17.1143 5.4342C17.2474 5.9975 17.4803 6.17974 18.0624 6.17974C21.0564 6.14661 24.0505 6.19631 27.0445 6.14661C27.7597 6.13004 28.1256 6.37856 28.4084 7.0247C29.1236 8.58206 29.9054 10.1063 30.6539 11.6305C30.787 11.879 30.8701 12.1275 31.0198 12.4589Z" fill="url(#paint3_linear_25_311)"/>
<path d="M22.3376 46.8203C31.7521 46.8203 41.0502 46.8203 50.5479 46.8203C50.3815 47.9469 50.3815 49.057 50.0322 50.0344C49.3336 51.9232 47.8366 52.9504 45.824 52.9669C39.5365 53.0166 33.2491 53.0001 26.9451 52.9669C24.4999 52.9504 22.5206 51.0616 22.3376 48.6096C22.2877 48.0463 22.3376 47.4665 22.3376 46.8203Z" fill="url(#paint4_linear_25_311)"/>
<path d="M47.2379 40.6239C47.2379 41.6345 47.2379 42.5954 47.2379 43.6226C40.0023 43.6226 32.7834 43.6226 25.5146 43.6226C25.5146 42.6451 25.5146 41.6677 25.5146 40.6239C32.7169 40.6239 39.9358 40.6239 47.2379 40.6239Z" fill="url(#paint5_linear_25_311)"/>
</g>
<defs>
<linearGradient id="paint0_linear_25_311" x1="15.5679" y1="25.0669" x2="15.5679" y2="52.9172" gradientUnits="userSpaceOnUse">
<stop stop-color="#FC7C04"/>
<stop offset="1" stop-color="#FCAD05"/>
</linearGradient>
<linearGradient id="paint1_linear_25_311" x1="36.3443" y1="28.1128" x2="36.3443" y2="37.3933" gradientUnits="userSpaceOnUse">
<stop stop-color="#FC7C04"/>
<stop offset="1" stop-color="#FCAD05"/>
</linearGradient>
<linearGradient id="paint2_linear_25_311" x1="17.6553" y1="15.6399" x2="17.6553" y2="21.8528" gradientUnits="userSpaceOnUse">
<stop stop-color="#FC7C04"/>
<stop offset="1" stop-color="#FCAD05"/>
</linearGradient>
<linearGradient id="paint3_linear_25_311" x1="17.6715" y1="0" x2="17.6715" y2="12.4589" gradientUnits="userSpaceOnUse">
<stop stop-color="#FC7C04"/>
<stop offset="1" stop-color="#FCAD05"/>
</linearGradient>
<linearGradient id="paint4_linear_25_311" x1="36.4316" y1="46.8203" x2="36.4316" y2="52.9983" gradientUnits="userSpaceOnUse">
<stop stop-color="#FC7C04"/>
<stop offset="1" stop-color="#FCAD05"/>
</linearGradient>
<linearGradient id="paint5_linear_25_311" x1="36.3763" y1="40.6239" x2="36.3763" y2="43.6226" gradientUnits="userSpaceOnUse">
<stop stop-color="#FC7C04"/>
<stop offset="1" stop-color="#FCAD05"/>
</linearGradient>
<clipPath id="clip0_25_311">
<rect width="50" height="53" fill="white" transform="translate(0.547852)"/>
</clipPath>
</defs>
</svg>
