<svg width="136" height="41" viewBox="0 0 136 41" fill="none" xmlns="http://www.w3.org/2000/svg">
<g clip-path="url(#clip0_726_447)">
<path d="M130.289 0.0219727H5.28906C2.52764 0.0219727 0.289062 2.26055 0.289062 5.02197V35.022C0.289062 37.7834 2.52764 40.022 5.28906 40.022H130.289C133.05 40.022 135.289 37.7834 135.289 35.022V5.02197C135.289 2.26055 133.05 0.0219727 130.289 0.0219727Z" fill="black"/>
<path d="M130.289 0.821773C131.403 0.823059 132.47 1.266 133.258 2.05342C134.045 2.84084 134.488 3.90843 134.489 5.02197V35.022C134.488 36.1355 134.045 37.2031 133.258 37.9905C132.47 38.7779 131.403 39.2209 130.289 39.2222H5.28906C4.17551 39.2209 3.10794 38.778 2.32056 37.9905C1.53318 37.2031 1.09029 36.1355 1.08906 35.022V5.02197C1.09027 3.90842 1.53316 2.84081 2.32054 2.05339C3.10793 1.26597 4.17551 0.823038 5.28906 0.821773H130.289ZM130.289 0.0219727H5.28906C3.96417 0.0258508 2.69466 0.55388 1.75781 1.49072C0.82097 2.42757 0.292941 3.69708 0.289063 5.02197L0.289062 35.022C0.292941 36.3469 0.82097 37.6164 1.75781 38.5532C2.69466 39.4901 3.96417 40.0181 5.28906 40.022H130.289C131.614 40.0181 132.883 39.4901 133.82 38.5532C134.757 37.6164 135.285 36.3469 135.289 35.022V5.02197C135.285 3.69708 134.757 2.42757 133.82 1.49072C132.883 0.55388 131.614 0.0258508 130.289 0.0219727V0.0219727Z" fill="#A6A6A6"/>
<path d="M47.7073 10.2653C47.7255 10.6323 47.6688 10.9991 47.5407 11.3434C47.4126 11.6877 47.2157 12.0024 46.9621 12.2682C46.6779 12.563 46.3347 12.7944 45.9549 12.9474C45.575 13.1004 45.1672 13.1714 44.758 13.1559C44.3463 13.1596 43.9379 13.0809 43.5569 12.9245C43.176 12.7682 42.8302 12.5372 42.5398 12.2452C42.2494 11.9533 42.0202 11.6062 41.8659 11.2244C41.7115 10.8426 41.6351 10.4339 41.6409 10.0221C41.6351 9.61035 41.7116 9.20156 41.866 8.81978C42.0203 8.438 42.2494 8.09092 42.5398 7.79893C42.8302 7.50693 43.176 7.27592 43.557 7.11946C43.9379 6.96299 44.3462 6.88424 44.758 6.88781C45.1814 6.88653 45.6006 6.97213 45.9895 7.13931C46.3508 7.28575 46.6724 7.51546 46.928 7.80971L46.4006 8.33751C46.1997 8.10096 45.947 7.91375 45.6622 7.79032C45.3774 7.66688 45.0681 7.61053 44.758 7.62561C44.446 7.624 44.1368 7.68538 43.849 7.8061C43.5612 7.92681 43.3007 8.10436 43.0831 8.32812C42.8656 8.55188 42.6954 8.81724 42.5829 9.10832C42.4703 9.3994 42.4176 9.7102 42.428 10.0221C42.4206 10.4893 42.5521 10.9482 42.8058 11.3406C43.0595 11.733 43.424 12.0412 43.8531 12.2261C44.2822 12.4111 44.7565 12.4644 45.216 12.3794C45.6754 12.2944 46.0993 12.0749 46.4338 11.7487C46.7417 11.4169 46.9202 10.9856 46.9367 10.5333H44.758V9.81261H47.6653C47.6928 9.96196 47.7069 10.1135 47.7073 10.2653V10.2653Z" fill="white" stroke="white" stroke-width="0.2" stroke-miterlimit="10"/>
<path d="M52.3164 7.75927H49.584V9.66157H52.0479V10.3824H49.584V12.2847H52.3164V13.022H48.8135V7.02197H52.3164V7.75927Z" fill="white" stroke="white" stroke-width="0.2" stroke-miterlimit="10"/>
<path d="M55.5674 13.022H54.7959V7.75927H53.1201V7.02197H57.2432V7.75927H55.5674V13.022Z" fill="white" stroke="white" stroke-width="0.2" stroke-miterlimit="10"/>
<path d="M60.2266 13.022V7.02197H60.9971V13.022H60.2266Z" fill="white" stroke="white" stroke-width="0.2" stroke-miterlimit="10"/>
<path d="M64.4169 13.022H63.6454V7.75927H61.9697V7.02197H66.0927V7.75927H64.4169V13.022Z" fill="white" stroke="white" stroke-width="0.2" stroke-miterlimit="10"/>
<path d="M73.8982 12.2466C73.3142 12.8288 72.5232 13.1558 71.6985 13.1558C70.8739 13.1558 70.0829 12.8288 69.4988 12.2466C69.2099 11.954 68.9828 11.6062 68.831 11.2241C68.6792 10.8419 68.6057 10.4331 68.615 10.022C68.6057 9.61088 68.6792 9.20209 68.831 8.81992C68.9828 8.43776 69.2099 8.09002 69.4988 7.7974C69.7875 7.50866 70.1303 7.27969 70.5075 7.12359C70.8848 6.9675 71.2891 6.88733 71.6974 6.8877C72.1057 6.88806 72.5099 6.96894 72.8869 7.12571C73.2638 7.28247 73.6062 7.51205 73.8943 7.8013C74.1835 8.09315 74.411 8.44011 74.5635 8.82158C74.716 9.20305 74.7903 9.61126 74.782 10.022C74.7911 10.4331 74.7176 10.8418 74.5658 11.2239C74.4139 11.6061 74.1869 11.9538 73.8982 12.2466V12.2466ZM70.0681 11.7442C70.5007 12.176 71.0869 12.4185 71.698 12.4185C72.3092 12.4185 72.8954 12.176 73.3279 11.7442C73.5497 11.5171 73.7232 11.2474 73.8378 10.9514C73.9525 10.6554 74.0059 10.3392 73.9949 10.022C74.0059 9.70476 73.9525 9.38858 73.8378 9.09257C73.7232 8.79657 73.5497 8.52688 73.3279 8.29979C72.8954 7.868 72.3092 7.62548 71.698 7.62548C71.0869 7.62548 70.5007 7.868 70.0681 8.29979C69.8467 8.52706 69.6735 8.7968 69.559 9.09278C69.4445 9.38876 69.3912 9.70485 69.4021 10.022C69.3912 10.3391 69.4445 10.6552 69.559 10.9512C69.6735 11.2472 69.8467 11.5169 70.0681 11.7442V11.7442Z" fill="white" stroke="white" stroke-width="0.2" stroke-miterlimit="10"/>
<path d="M75.8643 13.022V7.02197H76.8028L79.7188 11.6895H79.752L79.7188 10.5332V7.02197H80.4903V13.022H79.6856L76.6348 8.12837H76.6016L76.6348 9.28467V13.022H75.8643Z" fill="white" stroke="white" stroke-width="0.2" stroke-miterlimit="10"/>
<path d="M68.4244 21.7734C67.5839 21.7766 66.7632 22.0288 66.0659 22.4981C65.3686 22.9673 64.826 23.6327 64.5065 24.4102C64.1871 25.1876 64.1052 26.0423 64.2711 26.8662C64.437 27.6902 64.8434 28.4465 65.4388 29.0397C66.0343 29.633 66.7922 30.0364 67.6168 30.1992C68.4414 30.362 69.2957 30.2768 70.0719 29.9545C70.8482 29.6321 71.5115 29.0869 71.9781 28.3878C72.4447 27.6887 72.6938 26.8671 72.6937 26.0265C72.702 25.4644 72.5971 24.9063 72.3853 24.3855C72.1734 23.8646 71.859 23.3918 71.4607 22.995C71.0624 22.5982 70.5883 22.2855 70.0667 22.0757C69.5451 21.8658 68.9866 21.763 68.4244 21.7734V21.7734ZM68.4244 28.6042C67.9068 28.6411 67.3901 28.5214 66.9415 28.2605C66.4929 27.9996 66.1332 27.6097 65.9093 27.1415C65.6855 26.6734 65.6077 26.1486 65.6862 25.6357C65.7647 25.1227 65.9958 24.6453 66.3495 24.2655C66.7031 23.8857 67.1629 23.6212 67.669 23.5064C68.1751 23.3916 68.704 23.4319 69.1869 23.6219C69.6698 23.8119 70.0843 24.1429 70.3764 24.5718C70.6686 25.0007 70.8248 25.5076 70.8248 26.0265C70.8406 26.3544 70.7905 26.682 70.6777 26.9903C70.5648 27.2985 70.3915 27.581 70.1678 27.8212C69.9441 28.0614 69.6747 28.2544 69.3753 28.3889C69.0759 28.5234 68.7526 28.5966 68.4244 28.6042V28.6042ZM59.111 21.7734C58.2705 21.7766 57.4498 22.0287 56.7525 22.498C56.0552 22.9673 55.5125 23.6326 55.1931 24.4101C54.8736 25.1875 54.7917 26.0422 54.9576 26.8662C55.1235 27.6902 55.5298 28.4465 56.1253 29.0397C56.7208 29.6329 57.4786 30.0364 58.3032 30.1992C59.1278 30.362 59.9822 30.2769 60.7584 29.9545C61.5347 29.6321 62.198 29.0869 62.6646 28.3878C63.1312 27.6887 63.3803 26.8671 63.3802 26.0265C63.3885 25.4644 63.2836 24.9063 63.0718 24.3855C62.8599 23.8647 62.5455 23.3918 62.1472 22.995C61.7489 22.5982 61.2749 22.2856 60.7533 22.0757C60.2317 21.8658 59.6732 21.763 59.111 21.7734V21.7734ZM59.111 28.6042C58.5934 28.6411 58.0767 28.5214 57.6281 28.2605C57.1795 27.9996 56.8198 27.6097 56.596 27.1415C56.3721 26.6734 56.2943 26.1486 56.3728 25.6357C56.4513 25.1227 56.6824 24.6453 57.0361 24.2655C57.3897 23.8857 57.8495 23.6212 58.3556 23.5064C58.8617 23.3916 59.3906 23.4319 59.8735 23.6219C60.3564 23.8119 60.7709 24.1429 61.063 24.5718C61.3552 25.0007 61.5114 25.5076 61.5114 26.0265C61.5272 26.3544 61.4771 26.682 61.3643 26.9903C61.2515 27.2985 61.0781 27.581 60.8544 27.8212C60.6307 28.0614 60.3613 28.2544 60.0619 28.3889C59.7625 28.5234 59.4392 28.5966 59.111 28.6042ZM48.0322 23.0784V24.8827H52.3499C52.2876 25.729 51.9413 26.5295 51.3671 27.1543C50.9345 27.5954 50.4141 27.9408 49.8397 28.1683C49.2653 28.3959 48.6496 28.5004 48.0322 28.4753C46.7702 28.4582 45.5657 27.9449 44.6793 27.0464C43.7929 26.1479 43.2959 24.9366 43.2959 23.6744C43.2959 22.4123 43.7929 21.2009 44.6793 20.3024C45.5657 19.4039 46.7702 18.8906 48.0322 18.8735C49.2445 18.8577 50.414 19.3208 51.2866 20.1623L52.5593 18.8896C51.9639 18.3001 51.2568 17.8355 50.4794 17.5229C49.702 17.2102 48.87 17.056 48.0322 17.0691C47.1567 17.0564 46.2874 17.2178 45.4749 17.544C44.6623 17.8703 43.9227 18.3548 43.2991 18.9694C42.6754 19.584 42.1802 20.3165 41.8422 21.1242C41.5041 21.932 41.3301 22.7988 41.3301 23.6744C41.3301 24.55 41.5041 25.4169 41.8422 26.2246C42.1802 27.0324 42.6754 27.7648 43.2991 28.3795C43.9227 28.9941 44.6623 29.4786 45.4749 29.8048C46.2874 30.131 47.1567 30.2925 48.0322 30.2797C48.8877 30.3152 49.7409 30.1684 50.5353 29.849C51.3297 29.5295 52.0471 29.0448 52.6398 28.427C53.6923 27.2783 54.2532 25.7632 54.2026 24.2061C54.2068 23.828 54.1743 23.4503 54.1058 23.0784H48.0322ZM93.3405 24.4799C93.0849 23.7096 92.5984 23.0366 91.947 22.5523C91.2956 22.0681 90.5109 21.7962 89.6995 21.7734C89.1531 21.7768 88.613 21.891 88.1119 22.109C87.6108 22.3271 87.1591 22.6445 86.7842 23.042C86.4092 23.4396 86.1188 23.909 85.9304 24.422C85.742 24.935 85.6596 25.4808 85.6881 26.0265C85.6758 26.5857 85.7763 27.1416 85.9837 27.6611C86.191 28.1806 86.501 28.6529 86.895 29.0499C87.2889 29.4469 87.7589 29.7604 88.2768 29.9717C88.7946 30.183 89.3498 30.2878 89.909 30.2797C90.6097 30.2836 91.3003 30.1134 91.9189 29.7844C92.5376 29.4554 93.0648 28.9779 93.4532 28.3948L92.0033 27.4282C91.7861 27.789 91.4789 28.087 91.1117 28.2932C90.7446 28.4994 90.3301 28.6066 89.909 28.6042C89.4757 28.6208 89.0474 28.5068 88.6797 28.277C88.312 28.0472 88.0218 27.7122 87.8468 27.3154L93.5339 24.9633L93.3405 24.4799ZM87.5408 25.8977C87.5208 25.5882 87.5627 25.2777 87.6641 24.9846C87.7655 24.6914 87.9244 24.4214 88.1314 24.1904C88.3384 23.9594 88.5894 23.7719 88.8697 23.6391C89.15 23.5063 89.4541 23.4307 89.7639 23.4167C90.0866 23.3955 90.4084 23.4697 90.6892 23.6302C90.97 23.7906 91.1973 24.0302 91.3428 24.3189L87.5408 25.8977ZM82.917 30.0219H84.7858V17.5203H82.917V30.0219ZM79.856 22.7239H79.7916C79.5075 22.4152 79.1608 22.1708 78.7746 22.0069C78.3884 21.8429 77.9717 21.7634 77.5522 21.7734C76.4556 21.8201 75.4193 22.2886 74.6598 23.0811C73.9003 23.8736 73.4762 24.9289 73.4762 26.0266C73.4762 27.1243 73.9003 28.1795 74.6598 28.972C75.4193 29.7646 76.4556 30.2331 77.5522 30.2797C77.9733 30.2909 78.3918 30.2103 78.7785 30.0433C79.1653 29.8764 79.511 29.6272 79.7916 29.3131H79.856V29.9253C79.856 31.5525 78.9861 32.4224 77.5844 32.4224C77.1173 32.4113 76.6641 32.2613 76.2825 31.9916C75.9009 31.7219 75.6083 31.3447 75.4418 30.908L73.8146 31.5847C74.1213 32.3314 74.644 32.9695 75.3156 33.4173C75.9872 33.865 76.7773 34.102 77.5844 34.0979C79.7755 34.0979 81.6282 32.8091 81.6282 29.6675V22.0311H79.856V22.7239ZM77.7134 28.6042C77.0675 28.5495 76.4657 28.2542 76.0271 27.7768C75.5885 27.2995 75.3451 26.6748 75.3451 26.0266C75.3451 25.3783 75.5885 24.7537 76.0271 24.2764C76.4657 23.799 77.0675 23.5037 77.7134 23.4489C78.0348 23.4646 78.3497 23.5449 78.6394 23.6848C78.9291 23.8248 79.1876 24.0217 79.3996 24.2638C79.6116 24.5058 79.7726 24.788 79.8732 25.0937C79.9738 25.3993 80.0118 25.722 79.9849 26.0426C80.0101 26.3613 79.9707 26.6817 79.8691 26.9847C79.7675 27.2878 79.6059 27.5673 79.3938 27.8064C79.1818 28.0455 78.9237 28.2395 78.6349 28.3765C78.3462 28.5136 78.0328 28.5911 77.7134 28.6042V28.6042ZM102.094 17.5205H97.6232V30.0219H99.4889V25.2855H102.094C102.622 25.3145 103.15 25.2355 103.647 25.0535C104.143 24.8714 104.597 24.5901 104.98 24.2267C105.364 23.8634 105.67 23.4256 105.879 22.9401C106.088 22.4546 106.196 21.9316 106.196 21.403C106.196 20.8745 106.088 20.3515 105.879 19.866C105.67 19.3805 105.364 18.9427 104.98 18.5793C104.597 18.216 104.143 17.9347 103.647 17.7526C103.15 17.5706 102.622 17.4916 102.094 17.5205V17.5205ZM102.143 23.5457H99.4889V19.2604H102.143C102.428 19.2545 102.711 19.3056 102.976 19.4106C103.241 19.5156 103.483 19.6725 103.687 19.8721C103.89 20.0716 104.052 20.3098 104.163 20.5727C104.273 20.8356 104.33 21.1179 104.33 21.4031C104.33 21.6883 104.273 21.9706 104.163 22.2335C104.052 22.4964 103.89 22.7346 103.687 22.9341C103.483 23.1337 103.241 23.2905 102.976 23.3956C102.711 23.5006 102.428 23.5516 102.143 23.5457V23.5457ZM113.674 21.7504C112.993 21.7107 112.316 21.8706 111.724 22.2106C111.133 22.5506 110.653 23.0558 110.345 23.6643L112.002 24.3559C112.166 24.0539 112.415 23.8063 112.717 23.6435C113.02 23.4807 113.364 23.4096 113.706 23.4391C114.18 23.3929 114.652 23.5363 115.02 23.8377C115.388 24.1392 115.621 24.5742 115.669 25.0474V25.1761C115.069 24.8578 114.401 24.6921 113.723 24.6936C111.937 24.6936 110.12 25.6747 110.12 27.5082C110.137 27.8946 110.232 28.2736 110.399 28.6227C110.565 28.9718 110.8 29.2838 111.09 29.5403C111.379 29.7968 111.717 29.9926 112.084 30.1159C112.451 30.2393 112.838 30.2878 113.224 30.2584C113.694 30.2861 114.162 30.1873 114.581 29.9723C115 29.7573 115.353 29.4341 115.604 29.0361H115.669V30.0011H117.47V25.2083C117.47 22.9888 115.813 21.7504 113.674 21.7504V21.7504ZM113.449 28.6018C112.838 28.6018 111.986 28.2963 111.986 27.5403C111.986 26.5754 113.047 26.2054 113.964 26.2054C114.559 26.1896 115.148 26.334 115.669 26.6236C115.6 27.1659 115.338 27.665 114.93 28.0286C114.522 28.3923 113.996 28.5959 113.449 28.6018V28.6018ZM124.032 22.0238L121.893 27.4438H121.828L119.609 22.0238H117.599L120.928 29.599L119.03 33.8128H120.976L126.107 22.0238H124.032ZM107.225 30.0219H109.091V17.5205H107.225V30.0219Z" fill="white"/>
<path d="M10.7242 7.5599C10.3963 7.95198 10.2308 8.4546 10.2614 8.9648V31.0809C10.2307 31.5911 10.3963 32.0938 10.7242 32.4858L10.7982 32.5579L23.1872 20.169V19.8767L10.7982 7.4873L10.7242 7.5599Z" fill="url(#paint0_linear_726_447)"/>
<path d="M27.3169 24.3007L23.1875 20.1693V19.877L27.3179 15.7466L27.411 15.7997L32.3038 18.5798C33.7014 19.3738 33.7014 20.673 32.3038 21.4675L27.411 24.2476L27.3169 24.3007Z" fill="url(#paint1_linear_726_447)"/>
<path d="M27.4111 24.2468L23.1876 20.0229L10.7246 32.4858C11.0094 32.737 11.373 32.8806 11.7526 32.8918C12.1321 32.9031 12.5036 32.7812 12.8027 32.5472L27.4111 24.2468Z" fill="url(#paint2_linear_726_447)"/>
<path d="M27.4111 15.799L12.8027 7.49863C12.5036 7.26472 12.1321 7.14282 11.7526 7.15403C11.373 7.16524 11.0094 7.30887 10.7246 7.56003L23.1876 20.023L27.4111 15.799Z" fill="url(#paint3_linear_726_447)"/>
<path opacity="0.2" d="M27.318 24.1538L12.8027 32.4011C12.5151 32.62 12.1641 32.7395 11.8027 32.7414C11.4413 32.7433 11.089 32.6277 10.7991 32.4118L10.7246 32.4863L10.7986 32.5584L10.7991 32.5579C11.089 32.7739 11.4412 32.8896 11.8027 32.8877C12.1642 32.8858 12.5152 32.7663 12.8027 32.5472L27.4111 24.2468L27.318 24.1538Z" fill="black"/>
<path opacity="0.12" d="M10.7242 32.3404C10.3963 31.9484 10.2308 31.4457 10.2614 30.9355V31.0816C10.2308 31.5918 10.3963 32.0945 10.7242 32.4865L10.7987 32.412L10.7242 32.3404Z" fill="black"/>
<path opacity="0.12" d="M32.3033 21.3207L27.3174 24.1539L27.4105 24.2469L32.3033 21.4668C32.5911 21.3419 32.8402 21.1421 33.0245 20.8883C33.2089 20.6344 33.3218 20.3358 33.3516 20.0234C33.2897 20.3063 33.1628 20.5708 32.9808 20.796C32.7988 21.0212 32.5668 21.2009 32.3033 21.3207V21.3207Z" fill="black"/>
<path opacity="0.25" d="M12.8026 7.64532L32.3038 18.7253C32.5675 18.8452 32.7995 19.0249 32.9815 19.2502C33.1635 19.4755 33.2904 19.7401 33.3521 20.0231C33.3226 19.7107 33.2097 19.4118 33.0253 19.1579C32.8409 18.9039 32.5918 18.7041 32.3038 18.5792L12.8026 7.49922C11.405 6.70512 10.2617 7.36472 10.2617 8.96552V9.11162C10.2617 7.51092 11.405 6.85132 12.8026 7.64532Z" fill="white"/>
</g>
<defs>
<linearGradient id="paint0_linear_726_447" x1="22.0886" y1="8.73161" x2="5.30618" y2="25.514" gradientUnits="userSpaceOnUse">
<stop stop-color="#00A0FF"/>
<stop offset="0.00657" stop-color="#00A1FF"/>
<stop offset="0.2601" stop-color="#00BEFF"/>
<stop offset="0.5122" stop-color="#00D2FF"/>
<stop offset="0.7604" stop-color="#00DFFF"/>
<stop offset="1" stop-color="#00E3FF"/>
</linearGradient>
<linearGradient id="paint1_linear_726_447" x1="34.1235" y1="20.0236" x2="9.92658" y2="20.0236" gradientUnits="userSpaceOnUse">
<stop stop-color="#FFE000"/>
<stop offset="0.4087" stop-color="#FFBD00"/>
<stop offset="0.7754" stop-color="#FFA500"/>
<stop offset="1" stop-color="#FF9C00"/>
</linearGradient>
<linearGradient id="paint2_linear_726_447" x1="25.1162" y1="22.318" x2="2.35788" y2="45.0763" gradientUnits="userSpaceOnUse">
<stop stop-color="#FF3A44"/>
<stop offset="1" stop-color="#C31162"/>
</linearGradient>
<linearGradient id="paint3_linear_726_447" x1="7.58654" y1="0.19821" x2="17.7491" y2="10.3607" gradientUnits="userSpaceOnUse">
<stop stop-color="#32A071"/>
<stop offset="0.0685" stop-color="#2DA771"/>
<stop offset="0.4762" stop-color="#15CF74"/>
<stop offset="0.8009" stop-color="#06E775"/>
<stop offset="1" stop-color="#00F076"/>
</linearGradient>
<clipPath id="clip0_726_447">
<rect width="135" height="40.0002" fill="white" transform="translate(0.289062 0.0219727)"/>
</clipPath>
</defs>
</svg>
