<svg width="47" height="55" viewBox="0 0 47 55" fill="none" xmlns="http://www.w3.org/2000/svg">
<g clip-path="url(#clip0_25_307)">
<path d="M6.69864 17.7463C6.86223 7.58756 14.976 -0.124318 24.8238 0.533807C37.3053 1.37756 44.5849 16.1601 37.8779 27.0613C33.641 33.9463 29.3551 40.7807 25.0692 47.6488C24.1531 49.1338 22.9426 49.1169 22.0102 47.6319C17.7733 40.8144 13.5201 34.0138 9.316 27.1794C7.53292 24.3107 6.63321 21.1719 6.69864 17.7463ZM23.5479 25.7957C27.752 25.7957 31.2036 22.2519 31.22 17.9151C31.2363 13.6119 27.7847 10.0007 23.5969 9.96693C19.3765 9.93318 15.8594 13.5613 15.8921 17.8982C15.8921 22.2519 19.3437 25.7957 23.5479 25.7957Z" fill="url(#paint0_linear_25_307)"/>
<path d="M22.9425 54.5001C17.7569 54.3989 12.0968 53.8082 6.69853 51.5807C4.91546 50.8382 3.26325 49.8932 1.93822 48.4082C0.155147 46.4339 0.0733544 43.9026 1.75828 41.8439C2.9688 40.3589 4.52286 39.3632 6.22414 38.6713C7.76183 38.0301 9.36496 37.5745 10.9354 37.0176C11.4752 36.832 11.7042 37.102 11.966 37.5238C14.3379 41.3713 16.7263 45.1851 19.0982 49.0326C19.9162 50.3489 20.9795 51.277 22.4845 51.5976C24.6601 52.0532 26.6231 51.1926 27.8827 49.1676C29.993 45.7926 32.0869 42.4007 34.1808 39.0088C34.5406 38.4351 34.8514 37.8445 35.2604 37.3213C35.4076 37.1357 35.7675 36.9501 35.9802 37.0007C38.6793 37.6926 41.3294 38.5532 43.6359 40.2576C44.8955 41.1857 46.0079 42.2995 46.3842 43.9026C46.924 46.1807 45.9098 47.8851 44.2739 49.2857C42.131 51.1082 39.5627 52.0701 36.929 52.8126C32.5449 54.0107 28.0463 54.4832 22.9425 54.5001Z" fill="url(#paint1_linear_25_307)"/>
</g>
<defs>
<linearGradient id="paint0_linear_25_307" x1="23.5613" y1="0.494629" x2="23.5613" y2="48.7542" gradientUnits="userSpaceOnUse">
<stop stop-color="#FC7C04"/>
<stop offset="1" stop-color="#FCAD05"/>
</linearGradient>
<linearGradient id="paint1_linear_25_307" x1="23.538" y1="36.958" x2="23.538" y2="54.5001" gradientUnits="userSpaceOnUse">
<stop stop-color="#FC7C04"/>
<stop offset="1" stop-color="#FCAD05"/>
</linearGradient>
<clipPath id="clip0_25_307">
<rect width="46" height="54" fill="white" transform="translate(0.547852 0.5)"/>
</clipPath>
</defs>
</svg>
