<svg width="50" height="57" viewBox="0 0 50 57" fill="none" xmlns="http://www.w3.org/2000/svg">
<g filter="url(#filter0_d_4_45)">
<path d="M24.5357 6C20.682 6.00455 16.9874 7.53744 14.2624 10.2624C11.5375 12.9874 10.0046 16.682 10 20.5357C9.9954 23.685 11.0241 26.7488 12.9283 29.2571C12.9283 29.2571 13.3247 29.7791 13.3895 29.8544C13.3895 29.8544 23.2143 43 24.5357 43C25.8571 43 35.6873 29.8478 35.6873 29.8478C35.7454 29.7778 36.1432 29.2571 36.1432 29.2571L36.1445 29.2532C38.0477 26.7459 39.076 23.6835 39.0714 20.5357C39.0669 16.682 37.534 12.9874 34.809 10.2624C32.084 7.53744 28.3894 6.00455 24.5357 6ZM24.5357 25.8214C23.4903 25.8214 22.4684 25.5114 21.5991 24.9306C20.7299 24.3498 20.0524 23.5243 19.6524 22.5585C19.2523 21.5926 19.1476 20.5299 19.3516 19.5045C19.5555 18.4792 20.0589 17.5374 20.7982 16.7981C21.5374 16.0589 22.4792 15.5555 23.5045 15.3516C24.5299 15.1476 25.5926 15.2523 26.5585 15.6524C27.5243 16.0524 28.3498 16.7299 28.9306 17.5991C29.5114 18.4684 29.8214 19.4903 29.8214 20.5357C29.8197 21.937 29.2622 23.2805 28.2714 24.2713C27.2805 25.2622 25.9371 25.8197 24.5357 25.8214Z" fill="#FF922D"/>
</g>
<path d="M31 20.5C31 24.0899 28.0899 27 24.5 27C20.9101 27 18 24.0899 18 20.5C18 16.9101 20.9101 14 24.5 14C28.0899 14 31 16.9101 31 20.5Z" fill="white"/>
<defs>
<filter id="filter0_d_4_45" x="0" y="0" width="49.0715" height="57" filterUnits="userSpaceOnUse" color-interpolation-filters="sRGB">
<feFlood flood-opacity="0" result="BackgroundImageFix"/>
<feColorMatrix in="SourceAlpha" type="matrix" values="0 0 0 0 0 0 0 0 0 0 0 0 0 0 0 0 0 0 127 0" result="hardAlpha"/>
<feOffset dy="4"/>
<feGaussianBlur stdDeviation="5"/>
<feComposite in2="hardAlpha" operator="out"/>
<feColorMatrix type="matrix" values="0 0 0 0 0.94902 0 0 0 0 0.45098 0 0 0 0 0.152941 0 0 0 0.4 0"/>
<feBlend mode="normal" in2="BackgroundImageFix" result="effect1_dropShadow_4_45"/>
<feBlend mode="normal" in="SourceGraphic" in2="effect1_dropShadow_4_45" result="shape"/>
</filter>
</defs>
</svg>
