<svg width="50" height="49" viewBox="0 0 50 49" fill="none" xmlns="http://www.w3.org/2000/svg">
<g clip-path="url(#clip0_25_319)">
<path d="M38.0667 20.0775C38.0667 23.0309 38.082 25.9997 38.0667 28.9532C38.0514 30.4835 38.5412 31.7995 39.6281 32.9013C39.674 32.9626 39.7505 33.0085 39.7965 33.0697C40.1638 33.5288 40.0873 36.6812 39.674 37.1097C35.3572 41.5781 30.1067 43.5522 23.9224 42.9248C20.4934 42.5728 17.4319 41.2721 14.6765 39.2062C14.1866 38.8389 13.957 38.4563 13.957 37.8136C13.9876 32.6565 13.9723 27.5147 13.957 22.3576C13.957 21.822 14.0795 21.4241 14.4928 21.0263C16.6359 18.9604 17.7227 16.4201 17.784 13.4513C17.8146 11.768 17.8146 10.0847 17.784 8.40134C17.7687 7.88104 17.9064 7.55968 18.4269 7.36074C25.2847 4.57561 31.6834 5.35606 37.6075 9.82451C37.8677 10.0235 38.0667 10.4978 38.0667 10.8345C38.082 13.9104 38.0667 17.0016 38.0667 20.0775ZM34.6071 24.3623C34.5918 19.6184 30.6884 15.7468 25.943 15.7774C21.1976 15.808 17.3707 19.7102 17.386 24.4694C17.4166 29.1674 21.3047 33.0238 26.0042 33.0085C30.7802 32.9932 34.6224 29.1215 34.6071 24.3623Z" fill="url(#paint0_linear_25_319)"/>
<path d="M9.15071 10.4979C10.1763 10.4979 11.0642 10.4979 12.0286 10.4979C12.0286 10.1918 12.0286 9.91635 12.0286 9.64089C12.0286 7.00879 12.0286 4.39199 12.0286 1.75988C12.0286 0.65807 12.5949 -0.0152595 13.4981 4.34504e-05C14.3553 0.0153464 14.9217 0.688676 14.9217 1.74458C14.9217 5.60092 14.9523 9.45726 14.9064 13.2983C14.8758 15.9304 13.7889 18.0881 11.6459 19.649C11.2172 19.9704 11.0795 20.2917 11.0795 20.7814C11.0948 28.9226 11.0948 37.0638 11.0795 45.1896C11.0795 45.817 10.9723 46.4751 10.7274 47.0413C10.1304 48.4644 8.5384 49.2296 7.06886 48.9082C5.53809 48.5869 4.42062 47.2708 4.3747 45.6946C4.34409 44.5163 4.35939 43.3533 4.35939 42.1749C4.35939 35.0897 4.35939 27.9891 4.3747 20.9039C4.3747 20.3223 4.23693 19.9551 3.73178 19.5725C1.64993 18.0422 0.578388 15.9151 0.56308 13.2983C0.532465 9.44195 0.547772 5.58561 0.547772 1.74458C0.56308 0.673373 1.09885 0.0153464 1.95608 4.34504e-05C2.84393 -0.0152595 3.42562 0.65807 3.44093 1.75988C3.44093 4.39199 3.44093 7.00879 3.44093 9.64089C3.44093 9.91635 3.44093 10.1918 3.44093 10.4979C4.42062 10.4979 5.29316 10.4979 6.25755 10.4979C6.27286 10.1612 6.30347 9.87044 6.30347 9.56438C6.30347 7.07 6.30347 4.56032 6.30347 2.06594C6.30347 1.867 6.30347 1.65276 6.30347 1.45382C6.3647 0.581555 6.9617 -0.0152595 7.75771 4.34504e-05C8.55371 0.0153464 9.15071 0.612161 9.15071 1.51503C9.16602 4.22365 9.15071 6.91697 9.15071 9.62559C9.15071 9.90104 9.15071 10.1765 9.15071 10.4979Z" fill="url(#paint1_linear_25_319)"/>
<path d="M49.5169 31.5547C47.3126 31.5547 45.1849 31.6006 43.0418 31.5394C41.8325 31.5088 40.9599 30.4376 40.9599 29.1368C40.9446 26.5659 40.9599 23.9797 40.9599 21.4088C40.9599 17.476 40.9446 13.5584 40.9599 9.62557C40.9752 5.47847 43.5469 1.71395 47.3586 0.198959C48.5832 -0.290735 49.5476 0.321382 49.5476 1.62213C49.5476 11.4619 49.5476 21.317 49.5476 31.1568C49.5476 31.2486 49.5323 31.3557 49.5169 31.5547Z" fill="url(#paint2_linear_25_319)"/>
<path d="M42.8737 34.4623C45.1239 34.4623 47.2823 34.4623 49.5632 34.4623C49.5632 34.7224 49.5632 34.9673 49.5632 35.2121C49.5632 38.6094 49.5632 41.9913 49.5632 45.3886C49.5632 47.4851 48.1548 48.9848 46.2261 48.9848C44.2973 48.9848 42.8584 47.4698 42.8584 45.3886C42.8431 41.976 42.8584 38.5482 42.8584 35.1356C42.8431 34.952 42.8584 34.753 42.8737 34.4623Z" fill="url(#paint3_linear_25_319)"/>
<path d="M20.2793 24.393C20.2793 21.21 22.8204 18.6697 26.0197 18.6697C29.1884 18.6697 31.7754 21.2559 31.7754 24.4083C31.7754 27.5454 29.1578 30.1469 26.0197 30.1469C22.851 30.1469 20.2793 27.5607 20.2793 24.393Z" fill="url(#paint4_linear_25_319)"/>
</g>
<defs>
<linearGradient id="paint0_linear_25_319" x1="26.9949" y1="5.73633" x2="26.9949" y2="43.0384" gradientUnits="userSpaceOnUse">
<stop stop-color="#FC7C04"/>
<stop offset="1" stop-color="#FCAD05"/>
</linearGradient>
<linearGradient id="paint1_linear_25_319" x1="7.73783" y1="-0.000244141" x2="7.73783" y2="48.981" gradientUnits="userSpaceOnUse">
<stop stop-color="#FC7C04"/>
<stop offset="1" stop-color="#FCAD05"/>
</linearGradient>
<linearGradient id="paint2_linear_25_319" x1="45.2503" y1="0.0308838" x2="45.2503" y2="31.5712" gradientUnits="userSpaceOnUse">
<stop stop-color="#FC7C04"/>
<stop offset="1" stop-color="#FCAD05"/>
</linearGradient>
<linearGradient id="paint3_linear_25_319" x1="46.2074" y1="34.4623" x2="46.2074" y2="48.9848" gradientUnits="userSpaceOnUse">
<stop stop-color="#FC7C04"/>
<stop offset="1" stop-color="#FCAD05"/>
</linearGradient>
<linearGradient id="paint4_linear_25_319" x1="26.0274" y1="18.6697" x2="26.0274" y2="30.1469" gradientUnits="userSpaceOnUse">
<stop stop-color="#FC7C04"/>
<stop offset="1" stop-color="#FCAD05"/>
</linearGradient>
<clipPath id="clip0_25_319">
<rect width="49" height="49" fill="white" transform="translate(0.547852)"/>
</clipPath>
</defs>
</svg>
