<svg width="30" height="26" viewBox="0 0 30 26" fill="none" xmlns="http://www.w3.org/2000/svg">
<path d="M0 12.8571C0 14.0406 0.95939 15 2.14286 15H27.8571C29.0406 15 30 14.0406 30 12.8571C30 11.6737 29.0406 10.7143 27.8571 10.7143H2.14286C0.959389 10.7143 0 11.6737 0 12.8571ZM0 23.5714C0 24.7549 0.95939 25.7143 2.14286 25.7143H27.8571C29.0406 25.7143 30 24.7549 30 23.5714C30 22.388 29.0406 21.4286 27.8571 21.4286H2.14286C0.959389 21.4286 0 22.388 0 23.5714ZM2.14286 0C0.959389 0 0 0.95939 0 2.14286C0 3.32632 0.95939 4.28571 2.14286 4.28571H27.8571C29.0406 4.28571 30 3.32632 30 2.14286C30 0.95939 29.0406 0 27.8571 0H2.14286Z" fill="#031224"/>
</svg>
