<svg width="47" height="54" viewBox="0 0 47 54" fill="none" xmlns="http://www.w3.org/2000/svg">
<path d="M0.75 5.54998C0.75 4.23715 1.26361 2.9781 2.17785 2.0498C3.09209 1.12149 4.33207 0.599976 5.625 0.599976H28.375C29.6679 0.599976 30.9079 1.12149 31.8221 2.0498C32.7364 2.9781 33.25 4.23715 33.25 5.54998V11.4669L43.871 22.2513C45.3938 23.798 46.2495 25.8953 46.25 28.0824V51.75C46.25 52.1876 46.0788 52.6073 45.774 52.9167C45.4693 53.2261 45.056 53.4 44.625 53.4C44.194 53.4 43.7807 53.2261 43.476 52.9167C43.1712 52.6073 43 52.1876 43 51.75V28.0824C42.9989 26.77 42.4845 25.5118 41.57 24.5844L33.25 16.1364V26.3169L36.0255 29.1318C36.3302 29.4416 36.5012 29.8616 36.5009 30.2995C36.5006 30.7373 36.329 31.1571 36.0239 31.4665C35.8728 31.6197 35.6935 31.7412 35.4961 31.824C35.2988 31.9068 35.0874 31.9494 34.8739 31.9492C34.4426 31.9489 34.0292 31.7747 33.7245 31.4649L23.9745 21.5649C22.603 20.1723 21.8392 20.2317 21.5045 20.3175C20.9422 20.4561 20.445 20.9115 19.7495 21.5913C19.4245 21.9081 19.288 22.2183 19.353 22.6803C19.4375 23.2578 19.8827 24.2907 21.4005 25.8318L25.3428 29.8347L26.2722 30.7818C26.4236 30.935 26.5438 31.1171 26.6258 31.3175C26.7077 31.518 26.75 31.7329 26.75 31.95C26.75 34.5042 26.7695 37.0749 27.465 39.0153C27.7965 39.9426 28.2483 40.6191 28.843 41.0712C29.4247 41.5134 30.2827 41.85 31.625 41.85C32.056 41.85 32.4693 42.0238 32.774 42.3333C33.0788 42.6427 33.25 43.0624 33.25 43.5V48.45C33.25 49.7628 32.7364 51.0219 31.8221 51.9502C30.9079 52.8785 29.6679 53.4 28.375 53.4H5.625C4.33207 53.4 3.09209 52.8785 2.17785 51.9502C1.26361 51.0219 0.75 49.7628 0.75 48.45V5.54998ZM17 18.75C15.6352 18.7498 14.2924 19.0987 13.0954 19.7644C11.8985 20.4302 10.886 21.3913 10.1514 22.5592C9.41675 23.7271 8.9837 25.0641 8.89217 26.4467C8.80065 27.8294 9.05361 29.2132 9.6277 30.4704C10.2018 31.7275 11.0785 32.8177 12.177 33.6401C13.2754 34.4625 14.5602 34.9907 15.9127 35.1759C17.2652 35.3612 18.6419 35.1975 19.9157 34.7C21.1895 34.2026 22.3194 33.3873 23.201 32.3295L23.0385 32.1645L19.0995 28.1649C17.3673 26.406 16.3695 24.7527 16.1388 23.1621C16.0267 22.4394 16.0927 21.6998 16.3309 21.0093C16.5691 20.3189 16.9721 19.6991 17.5037 19.2054L17.6143 19.0965L17.9198 18.7995C17.6143 18.7655 17.3073 18.749 17 18.75ZM23.5 48.45V50.1H26.75V48.45C26.75 48.0124 26.9212 47.5927 27.226 47.2833C27.5307 46.9738 27.944 46.8 28.375 46.8H30V45.018C28.8838 44.8458 27.8247 44.4032 26.9125 43.7277C25.9228 44.0437 25.0583 44.672 24.4446 45.5213C23.8308 46.3706 23.4999 47.3966 23.5 48.45ZM4 10.5H5.625C6.91793 10.5 8.15791 9.97846 9.07215 9.05016C9.98639 8.12185 10.5 6.8628 10.5 5.54998V3.89998H7.25V5.54998C7.25 5.98758 7.07879 6.40727 6.77405 6.7167C6.4693 7.02614 6.05598 7.19998 5.625 7.19998H4V10.5ZM23.5 5.54998C23.5 6.8628 24.0136 8.12185 24.9279 9.05016C25.8421 9.97846 27.0821 10.5 28.375 10.5H30V7.19998H28.375C27.944 7.19998 27.5307 7.02614 27.226 6.7167C26.9212 6.40727 26.75 5.98758 26.75 5.54998V3.89998H23.5V5.54998ZM10.5 48.45C10.5 47.1372 9.98639 45.8781 9.07215 44.9498C8.15791 44.0215 6.91793 43.5 5.625 43.5H4V46.8H5.625C6.05598 46.8 6.4693 46.9738 6.77405 47.2833C7.07879 47.5927 7.25 48.0124 7.25 48.45V50.1H10.5V48.45Z" fill="#FC7C04"/>
</svg>
