<svg width="30" height="30" viewBox="0 0 30 30" fill="none" xmlns="http://www.w3.org/2000/svg">
<path d="M15 30C6.72875 30 0 23.2706 0 15C0 6.72938 6.72875 0 15 0C23.2713 0 30 6.72875 30 15C30.0002 23.2713 23.2713 30 15 30ZM15 0.99962C7.2805 0.99962 1.00025 7.28018 1.00025 14.9994C1.00025 22.7185 7.28082 28.9991 15 28.9991C22.7192 28.9991 28.9997 22.7185 28.9997 14.9994C28.9997 7.28018 22.7194 0.99962 15 0.99962Z" fill="black"/>
<path d="M15.0001 28.0002C14.2691 28.0002 13.6802 27.4956 13.5681 26.7725C13.5216 26.4721 13.2707 26.4095 13.1947 26.3977C13.1192 26.3868 12.8611 26.3667 12.7238 26.6387C12.3942 27.2917 11.6783 27.5902 10.9828 27.3637C10.2872 27.1378 9.88337 26.4756 10.0001 25.7538C10.0491 25.4539 9.82913 25.3168 9.76059 25.2819C9.69205 25.247 9.45202 25.15 9.23847 25.3658C8.72303 25.8847 7.94999 25.9478 7.35832 25.5172C6.76642 25.0876 6.58726 24.3327 6.92133 23.6826C7.0599 23.4126 6.89386 23.2142 6.83942 23.16C6.78498 23.1056 6.58653 22.94 6.31681 23.0781C5.66674 23.4131 4.91227 23.2335 4.48221 22.6411C4.05213 22.0497 4.11474 21.2767 4.63364 20.7609C4.84967 20.5469 4.75217 20.3069 4.71753 20.2388C4.68363 20.1708 4.54753 19.9515 4.24663 20C3.52257 20.1166 2.86218 19.7125 2.63672 19.0174C2.4108 18.3218 2.70922 17.606 3.36173 17.2764C3.63269 17.1393 3.61463 16.8814 3.60275 16.8055C3.59087 16.73 3.52827 16.4786 3.22786 16.4321C2.50456 16.3202 2 15.7311 2 15.0001C2 14.2691 2.50455 13.6802 3.22761 13.5681C3.52801 13.5216 3.59062 13.2707 3.6025 13.1947C3.61437 13.1188 3.63293 12.8607 3.36148 12.7238C2.70843 12.3942 2.41051 11.6783 2.63647 10.9828C2.86264 10.2872 3.52206 9.8841 4.24663 10.0002C4.54505 10.0511 4.68362 9.82966 4.71852 9.76062C4.75291 9.69208 4.85041 9.45205 4.63463 9.2385C4.11573 8.72356 4.05312 7.95002 4.48319 7.35835C4.91276 6.76645 5.66722 6.58678 6.31779 6.92136C6.58677 7.05993 6.78572 6.89389 6.84041 6.83945C6.89485 6.78551 7.06089 6.58705 6.92232 6.31684C6.58777 5.66677 6.76741 4.91179 7.35931 4.48224C7.95072 4.05217 8.72375 4.11477 9.23946 4.63367C9.4535 4.8492 9.69353 4.7527 9.76158 4.71756C9.82913 4.68316 10.0491 4.54608 10.0001 4.24666C9.88307 3.52463 10.2872 2.86265 10.9828 2.63675C11.6793 2.41034 12.3942 2.70975 12.7238 3.36176C12.8609 3.63272 13.1177 3.61416 13.1947 3.60278C13.2702 3.5909 13.5216 3.5283 13.5681 3.22789C13.6802 2.50459 14.2691 2.00003 15.0001 2.00003C15.731 2.00003 16.32 2.50458 16.432 3.22764C16.4786 3.52804 16.7295 3.59065 16.8054 3.60253C16.8814 3.6144 17.139 3.63346 17.2763 3.36151C17.6059 2.70846 18.3218 2.41105 19.0174 2.6365C19.7129 2.86242 20.1168 3.52463 20 4.24641C19.951 4.54632 20.171 4.6834 20.2395 4.71829C20.3081 4.75269 20.5476 4.85018 20.7617 4.63441C21.2771 4.11551 22.0501 4.0529 22.6418 4.48297C23.2337 4.91254 23.4129 5.6675 23.0788 6.31757C22.9402 6.58754 23.1063 6.78599 23.1607 6.84019C23.2151 6.89463 23.4136 7.06067 23.6833 6.92209C24.3339 6.58754 25.0884 6.76719 25.5179 7.35909C25.948 7.95049 25.8854 8.72353 25.3665 9.23924C25.1505 9.45328 25.248 9.69331 25.2826 9.76136C25.3175 9.8299 25.4541 10.0519 25.7545 10.0009C26.4791 9.88483 27.1389 10.2884 27.3644 10.9835C27.5903 11.6791 27.2919 12.395 26.6394 12.7246C26.3684 12.8617 26.3865 13.1195 26.3984 13.1955C26.4102 13.2709 26.4729 13.5223 26.7733 13.5689C27.4955 13.6802 28.0001 14.2692 28.0001 15.0001C28.0001 15.7311 27.4956 16.32 26.7725 16.4321C26.4721 16.4786 26.4095 16.7295 26.3976 16.8055C26.3857 16.8815 26.3672 17.1396 26.6386 17.2764C27.2917 17.606 27.5896 18.3219 27.3636 19.0174C27.1377 19.713 26.4775 20.1164 25.7537 20.0001C25.4563 19.9506 25.3167 20.1711 25.2818 20.2396C25.2474 20.3081 25.15 20.5482 25.3657 20.7617C25.8846 21.2767 25.9472 22.0502 25.5172 22.6419C25.0871 23.2333 24.3331 23.4129 23.6826 23.0789C23.4136 22.9408 23.2146 23.1063 23.1599 23.1608C23.1055 23.2147 22.9395 23.4132 23.078 23.6834C23.4126 24.3335 23.2329 25.0884 22.641 25.518C22.0496 25.9486 21.2766 25.8855 20.7609 25.3666C20.5469 25.151 20.3073 25.248 20.2388 25.2827C20.1702 25.3176 19.9507 25.4546 19.9993 25.7546C20.1163 26.4766 19.7122 27.1386 19.0166 27.3645C18.3195 27.5899 17.6052 27.2915 17.2756 26.6395C17.1385 26.3685 16.8811 26.3861 16.8047 26.3984C16.7292 26.4103 16.4778 26.4729 16.4313 26.7733C16.3202 27.4956 15.731 28.0002 15 28.0002L15.0001 28.0002ZM13.1133 25.3913C13.1917 25.3913 13.2714 25.3972 13.3513 25.4103C13.9858 25.5108 14.4589 25.9859 14.5569 26.6199C14.6111 26.9727 14.9097 27.0002 15.0001 27.0002C15.0906 27.0002 15.389 26.9727 15.4435 26.6196C15.5415 25.9851 16.0146 25.5105 16.6491 25.4101C17.2835 25.3101 17.8796 25.6154 18.1691 26.188C18.3297 26.5065 18.6227 26.4404 18.7086 26.4125C18.7947 26.3845 19.0706 26.2665 19.0132 25.9134C18.9102 25.2794 19.2136 24.6818 19.7857 24.3903C20.3578 24.0988 21.0197 24.2047 21.4723 24.6608C21.7232 24.9137 21.9813 24.7602 22.0548 24.7078C22.1278 24.6548 22.3532 24.4569 22.1904 24.1394C21.8969 23.5683 22.0004 22.9063 22.4545 22.4518C22.909 21.9977 23.5715 21.8947 24.1416 22.1877C24.46 22.3503 24.657 22.1251 24.71 22.0521C24.7629 21.9791 24.9166 21.721 24.663 21.4696C24.2074 21.017 24.101 20.3551 24.3925 19.783C24.684 19.2109 25.2826 18.9085 25.9156 19.0105C26.2659 19.0684 26.3865 18.792 26.4147 18.7059C26.4426 18.6202 26.5087 18.3273 26.1902 18.1664C25.6171 17.8774 25.3118 17.2808 25.4123 16.6463C25.5127 16.0119 25.9878 15.5388 26.6218 15.4408C26.9727 15.3891 27.0002 15.0906 27.0002 15.0001C27.0002 14.9095 26.9727 14.6111 26.6196 14.5566C25.9851 14.4587 25.5105 13.9855 25.41 13.3511C25.3096 12.7171 25.6149 12.1205 26.188 11.831C26.507 11.6699 26.4404 11.3774 26.4124 11.2916C26.3845 11.2055 26.264 10.93 25.9133 10.987C25.2779 11.0894 24.6818 10.7865 24.3903 10.2144C24.0988 9.64235 24.2047 8.98043 24.6607 8.52781C24.9141 8.2764 24.7607 8.01831 24.7078 7.94532C24.6548 7.87232 24.4573 7.6454 24.1394 7.80971C23.5682 8.1027 22.9063 7.99926 22.4517 7.54568C21.9977 7.09161 21.8942 6.42969 22.1877 5.85855C22.3513 5.54108 22.1251 5.34312 22.0521 5.29016C21.9791 5.23721 21.7205 5.08305 21.4696 5.33717C21.017 5.79273 20.3551 5.89864 19.783 5.60764C19.2109 5.31614 18.908 4.71856 19.0105 4.08458C19.0679 3.73196 18.792 3.61368 18.7058 3.58547C18.6202 3.55701 18.3272 3.49144 18.1664 3.80991C17.8774 4.38301 17.2808 4.68936 16.6463 4.58788C16.0118 4.48742 15.5392 4.01231 15.4408 3.37832C15.389 3.02768 15.0906 3.00022 15.0001 3.00022C14.9095 3.00022 14.6111 3.02768 14.5566 3.3808C14.4586 4.01528 13.9855 4.48988 13.3511 4.59035C12.7176 4.69181 12.1205 4.38546 11.831 3.81238C11.6699 3.49391 11.3774 3.55949 11.2915 3.58794C11.2054 3.6159 10.9295 3.73394 10.9869 4.08705C11.0899 4.72103 10.7865 5.31858 10.2144 5.61011C9.6423 5.90161 8.9804 5.7957 8.52779 5.33965C8.27637 5.08576 8.01828 5.23968 7.94529 5.29263C7.87229 5.34558 7.64687 5.54354 7.80969 5.86103C8.10316 6.43214 7.99973 7.09408 7.54566 7.54866C7.09109 8.00273 6.42916 8.10666 5.85853 7.81269C5.54006 7.64962 5.34309 7.8753 5.29013 7.94829C5.23718 8.02129 5.08351 8.27938 5.33715 8.53079C5.7927 8.98338 5.89911 9.64532 5.60761 10.2174C5.31611 10.7895 4.71802 11.0919 4.08455 10.9899C3.73466 10.933 3.61365 11.2084 3.58544 11.2945C3.55748 11.3802 3.49141 11.6731 3.80988 11.834C4.38298 12.123 4.68832 12.7196 4.58785 13.3541C4.48739 13.9886 4.01228 14.4616 3.3783 14.5596C3.02766 14.6111 3.00019 14.9098 3.00019 15.0001C3.00019 15.0907 3.02766 15.3891 3.38077 15.4435C4.01525 15.5415 4.48985 16.0146 4.59032 16.6491C4.69078 17.2831 4.38543 17.8797 3.81235 18.1692C3.49339 18.3303 3.55995 18.6227 3.58791 18.7086C3.61587 18.7947 3.73639 19.0711 4.08702 19.0132C4.72246 18.9113 5.31855 19.2136 5.61008 19.7857C5.90158 20.3578 5.79567 21.0197 5.33962 21.4724C5.08623 21.7238 5.23965 21.9819 5.2926 22.0548C5.34556 22.1273 5.54253 22.3533 5.861 22.1905C6.43162 21.897 7.09355 22.0004 7.54863 22.4545C8.00271 22.9086 8.10614 23.5705 7.81266 24.1416C7.6491 24.4591 7.87527 24.657 7.94826 24.71C8.02126 24.7625 8.27936 24.9159 8.53076 24.663C8.98335 24.2074 9.64529 24.101 10.2174 24.3925C10.7895 24.684 11.0923 25.2816 10.9899 25.9156C10.9325 26.2682 11.2084 26.3865 11.2945 26.4147C11.3801 26.4427 11.6731 26.5087 11.834 26.1903C12.0841 25.6877 12.5711 25.3913 13.1133 25.3913L13.1133 25.3913Z" fill="black"/>
<path d="M19.1249 22.5C18.091 22.5 17.2499 21.6589 17.2499 20.625C17.2499 19.5911 18.091 18.75 19.1249 18.75C20.1588 18.75 20.9999 19.5911 20.9999 20.625C20.9999 21.6587 20.1588 22.5 19.1249 22.5ZM19.1249 19.5C18.5046 19.5 17.9998 20.0048 17.9998 20.625C17.9998 21.2452 18.5046 21.75 19.1249 21.75C19.7451 21.75 20.2499 21.2452 20.2499 20.625C20.2499 20.0048 19.7451 19.5 19.1249 19.5Z" fill="black"/>
<path d="M8.38243 18.9025C10.1671 18.5008 11.5 16.9055 11.5 15C11.5 13.0945 10.1671 11.4992 8.38243 11.0975C8.28875 11.0765 8.20631 11.1014 8.13524 11.1678C8.05847 11.2395 8 11.3588 8 11.5V18.5C8 18.6412 8.05847 18.7605 8.13524 18.8322C8.20631 18.8986 8.28875 18.9235 8.38243 18.9025Z" stroke="black"/>
<path d="M20.4096 14.1077C20.0358 12.2983 18.5698 11 16.8751 11C15.1804 11 13.7144 12.2983 13.3406 14.1077C13.3206 14.2049 13.3477 14.291 13.4161 14.3638C13.4892 14.4418 13.6091 14.5 13.7501 14.5L20.0001 14.5C20.1412 14.5 20.261 14.4418 20.3342 14.3638C20.4025 14.291 20.4297 14.2049 20.4096 14.1077Z" stroke="black"/>
</svg>
