<svg width="36" height="21" viewBox="0 0 36 21" fill="none" xmlns="http://www.w3.org/2000/svg">
<path d="M3.8128 11.6051V13.135L1.02278 15.925C-0.0496336 14.8 -0.567111 13.0001 0.932765 12.0026C1.75028 11.4551 2.80788 11.6125 3.81282 11.6051L3.8128 11.6051Z" fill="black"/>
<path d="M15.9399 1.00689L10.5772 6.36956H8.4021C8.70956 6.02467 9.09218 5.76949 9.5571 5.6572C9.97715 5.55977 10.4272 5.5972 10.8247 5.44718C11.8071 5.06456 12.0097 3.78951 12.0923 2.73975C12.1672 1.68959 12.4523 0.407184 13.4725 0.122275C14.3426 -0.125489 15.1224 0.54202 15.9399 1.00693V1.00689Z" fill="black"/>
<path d="M23.2309 1.11227C23.8909 1.9598 24.0032 3.18994 23.5535 4.16495L20.2908 0.902275C20.0582 0.669668 19.8033 0.48222 19.5184 0.339623C19.5859 0.302195 19.6536 0.264768 19.7285 0.234765C20.9131 -0.290148 22.4282 0.0921679 23.2308 1.1123L23.2309 1.11227Z" fill="black"/>
<path d="M29.073 7.02977H26.4178L24.1304 4.74234C25.0079 4.77977 25.878 4.86235 26.7029 5.14724C27.6856 5.47728 28.6081 6.12217 29.073 7.02972V7.02977Z" fill="black"/>
<path d="M34.2487 14.8596L33.2063 13.8172V11.6873C33.7089 11.8599 34.1513 12.1148 34.4439 12.5574C34.9014 13.2546 34.7362 14.1622 34.2487 14.8596H34.2487Z" fill="black"/>
<path d="M9.07777 7.87L5.31274 11.635V9.36993C5.31274 8.53753 5.98025 7.87007 6.8126 7.87007L9.07777 7.87Z" fill="black"/>
<path d="M31.7059 10.0294V12.3168L27.9183 8.52924H30.2058C31.031 8.52955 31.7059 9.19706 31.7059 10.0294Z" fill="black"/>
<path d="M35.5571 18.2916L19.2267 1.96113C18.6405 1.37498 17.6897 1.37498 17.1033 1.96113L0.774419 18.2916C-0.171135 19.2374 0.498505 20.8545 1.83598 20.8545H34.4952C35.8331 20.8545 36.503 19.2374 35.5571 18.2916ZM2.27229 19.1347L18.1648 3.23982L34.0589 19.1347H2.27229Z" fill="black"/>
<path d="M21.0001 5.57147L13.7144 13.2858" stroke="black" stroke-width="1.5" stroke-linecap="round"/>
<circle cx="11.1428" cy="16.2859" r="0.857148" fill="black"/>
<circle cx="24.0002" cy="14.5715" r="0.857148" fill="black"/>
<circle cx="27.4288" cy="16.2859" r="0.857148" fill="black"/>
<circle cx="24.8574" cy="18.0001" r="0.857148" fill="black"/>
</svg>
