<svg width="95" height="15" viewBox="0 0 95 15" fill="none" xmlns="http://www.w3.org/2000/svg">
<path d="M14.8673 5.76795C14.8233 5.63838 14.7423 5.52452 14.6343 5.44044C14.5264 5.35636 14.3961 5.30573 14.2597 5.29482L10.269 4.97776L8.54206 1.15557C8.48706 1.03246 8.39761 0.927901 8.28449 0.854506C8.17137 0.781111 8.03943 0.742017 7.90458 0.741943C7.76974 0.741869 7.63775 0.780818 7.52455 0.854089C7.41135 0.92736 7.32178 1.03182 7.26665 1.15487L5.53974 4.97776L1.54902 5.29482C1.41494 5.30544 1.28675 5.35446 1.17981 5.43601C1.07286 5.51756 0.991671 5.6282 0.945961 5.75468C0.900251 5.88116 0.891952 6.01812 0.922057 6.1492C0.952162 6.28027 1.0194 6.39989 1.11572 6.49376L4.06483 9.36828L3.02183 13.8841C2.99016 14.0208 3.00031 14.1638 3.05096 14.2947C3.10162 14.4255 3.19043 14.5381 3.30589 14.6179C3.42135 14.6976 3.55811 14.7409 3.69844 14.7419C3.83877 14.743 3.97617 14.7019 4.09283 14.6239L7.90436 12.0832L11.7159 14.6239C11.8351 14.703 11.9757 14.7438 12.1188 14.7406C12.2619 14.7375 12.4006 14.6906 12.5163 14.6063C12.6319 14.522 12.719 14.4043 12.7657 14.2691C12.8125 14.1338 12.8167 13.9875 12.7778 13.8498L11.4975 9.37038L14.6727 6.51336C14.8806 6.32578 14.9569 6.03322 14.8673 5.76795Z" fill="#2D2D2D"/>
<path d="M54.8673 5.76795C54.8233 5.63838 54.7423 5.52452 54.6343 5.44044C54.5264 5.35636 54.3961 5.30573 54.2597 5.29482L50.269 4.97776L48.5421 1.15557C48.4871 1.03246 48.3976 0.927901 48.2845 0.854506C48.1714 0.781111 48.0394 0.742017 47.9046 0.741943C47.7697 0.741869 47.6377 0.780818 47.5246 0.854089C47.4114 0.92736 47.3218 1.03182 47.2667 1.15487L45.5397 4.97776L41.549 5.29482C41.4149 5.30544 41.2868 5.35446 41.1798 5.43601C41.0729 5.51756 40.9917 5.6282 40.946 5.75468C40.9003 5.88116 40.892 6.01812 40.9221 6.1492C40.9522 6.28027 41.0194 6.39989 41.1157 6.49376L44.0648 9.36828L43.0218 13.8841C42.9902 14.0208 43.0003 14.1638 43.051 14.2947C43.1016 14.4255 43.1904 14.5381 43.3059 14.6179C43.4213 14.6976 43.5581 14.7409 43.6984 14.7419C43.8388 14.743 43.9762 14.7019 44.0928 14.6239L47.9044 12.0832L51.7159 14.6239C51.8351 14.703 51.9757 14.7438 52.1188 14.7406C52.2619 14.7375 52.4006 14.6906 52.5163 14.6063C52.6319 14.522 52.719 14.4043 52.7657 14.2691C52.8125 14.1338 52.8167 13.9875 52.7778 13.8498L51.4975 9.37038L54.6727 6.51336C54.8806 6.32578 54.9569 6.03322 54.8673 5.76795Z" fill="#2D2D2D"/>
<path d="M34.8673 5.76795C34.8233 5.63838 34.7423 5.52452 34.6343 5.44044C34.5264 5.35636 34.3961 5.30573 34.2597 5.29482L30.269 4.97776L28.5421 1.15557C28.4871 1.03246 28.3976 0.927901 28.2845 0.854506C28.1714 0.781111 28.0394 0.742017 27.9046 0.741943C27.7697 0.741869 27.6377 0.780818 27.5246 0.854089C27.4114 0.92736 27.3218 1.03182 27.2667 1.15487L25.5397 4.97776L21.549 5.29482C21.4149 5.30544 21.2868 5.35446 21.1798 5.43601C21.0729 5.51756 20.9917 5.6282 20.946 5.75468C20.9003 5.88116 20.892 6.01812 20.9221 6.1492C20.9522 6.28027 21.0194 6.39989 21.1157 6.49376L24.0648 9.36828L23.0218 13.8841C22.9902 14.0208 23.0003 14.1638 23.051 14.2947C23.1016 14.4255 23.1904 14.5381 23.3059 14.6179C23.4213 14.6976 23.5581 14.7409 23.6984 14.7419C23.8388 14.743 23.9762 14.7019 24.0928 14.6239L27.9044 12.0832L31.7159 14.6239C31.8351 14.703 31.9757 14.7438 32.1188 14.7406C32.2619 14.7375 32.4006 14.6906 32.5163 14.6063C32.6319 14.522 32.719 14.4043 32.7657 14.2691C32.8125 14.1338 32.8167 13.9875 32.7778 13.8498L31.4975 9.37038L34.6727 6.51336C34.8806 6.32578 34.9569 6.03322 34.8673 5.76795Z" fill="#2D2D2D"/>
<path d="M74.8673 5.76795C74.8233 5.63838 74.7423 5.52452 74.6343 5.44044C74.5264 5.35636 74.3961 5.30573 74.2597 5.29482L70.269 4.97776L68.5421 1.15557C68.4871 1.03246 68.3976 0.927901 68.2845 0.854506C68.1714 0.781111 68.0394 0.742017 67.9046 0.741943C67.7697 0.741869 67.6377 0.780818 67.5246 0.854089C67.4114 0.92736 67.3218 1.03182 67.2667 1.15487L65.5397 4.97776L61.549 5.29482C61.4149 5.30544 61.2868 5.35446 61.1798 5.43601C61.0729 5.51756 60.9917 5.6282 60.946 5.75468C60.9003 5.88116 60.892 6.01812 60.9221 6.1492C60.9522 6.28027 61.0194 6.39989 61.1157 6.49376L64.0648 9.36828L63.0218 13.8841C62.9902 14.0208 63.0003 14.1638 63.051 14.2947C63.1016 14.4255 63.1904 14.5381 63.3059 14.6179C63.4213 14.6976 63.5581 14.7409 63.6984 14.7419C63.8388 14.743 63.9762 14.7019 64.0928 14.6239L67.9044 12.0832L71.7159 14.6239C71.8351 14.703 71.9757 14.7438 72.1188 14.7406C72.2619 14.7375 72.4006 14.6906 72.5163 14.6063C72.6319 14.522 72.719 14.4043 72.7657 14.2691C72.8125 14.1338 72.8167 13.9875 72.7778 13.8498L71.4975 9.37038L74.6727 6.51336C74.8806 6.32578 74.9569 6.03322 74.8673 5.76795Z" fill="#2D2D2D"/>
<path d="M83.0218 13.8845C82.9978 13.9872 82.9974 14.0939 83.0206 14.1968C83.0437 14.2997 83.0899 14.3959 83.1555 14.4784C83.2212 14.5609 83.3047 14.6275 83.3997 14.6731C83.4948 14.7187 83.5989 14.7423 83.7043 14.7419C83.8426 14.742 83.9778 14.7011 84.0928 14.6244L87.9044 12.0836L91.7159 14.6244C91.8351 14.7035 91.9757 14.7443 92.1188 14.7411C92.2619 14.738 92.4006 14.6911 92.5163 14.6068C92.6319 14.5225 92.719 14.4048 92.7657 14.2695C92.8125 14.1343 92.8167 13.9879 92.7778 13.8502L91.4975 9.37067L94.6727 6.51355C94.7744 6.42199 94.847 6.30264 94.8816 6.17024C94.9162 6.03785 94.9112 5.89823 94.8672 5.76864C94.8233 5.63906 94.7423 5.5252 94.6343 5.44113C94.5264 5.35707 94.3961 5.3065 94.2597 5.29567L90.269 4.9779L88.5421 1.15558C88.4871 1.03247 88.3976 0.927907 88.2845 0.85451C88.1714 0.781112 88.0394 0.742017 87.9046 0.741943C87.7697 0.741869 87.6377 0.78082 87.5246 0.854093C87.4114 0.927366 87.3218 1.03183 87.2667 1.15488L85.5397 4.9779L81.549 5.29497C81.4149 5.30559 81.2868 5.35461 81.1798 5.43617C81.0729 5.51773 80.9917 5.62836 80.946 5.75485C80.9003 5.88133 80.892 6.0183 80.9221 6.14938C80.9522 6.28046 81.0194 6.40008 81.1157 6.49395L84.0655 9.36857L83.0218 13.8845ZM87.9044 3.14338L89.3338 6.30777L89.7454 6.34067H89.7461L92.5265 6.56115L90.2368 8.62174L90.2361 8.62314L89.912 8.91431L90.0317 9.33217V9.33427L90.9088 12.4035L87.9044 10.401V3.14338Z" fill="#2D2D2D"/>
</svg>
