<svg width="14" height="14" viewBox="0 0 14 14" fill="none" xmlns="http://www.w3.org/2000/svg">
<path d="M13.5078 5.43239C13.445 5.2377 13.3296 5.06417 13.1744 4.93101C13.0191 4.79785 12.83 4.71026 12.628 4.67792L9.45864 4.16285L7.98941 1.30778C7.89582 1.12602 7.75398 0.973553 7.57944 0.867106C7.4049 0.760659 7.20441 0.704346 6.99997 0.704346C6.79554 0.704346 6.59505 0.760659 6.42051 0.867106C6.24597 0.973553 6.10413 1.12602 6.01054 1.30778L4.54131 4.16285L1.37197 4.67792C1.1702 4.71076 0.981362 4.79855 0.826193 4.93165C0.671023 5.06475 0.555514 5.23802 0.492338 5.43245C0.429163 5.62687 0.420763 5.83495 0.46806 6.03383C0.515357 6.23272 0.616523 6.41474 0.760458 6.55991L3.02179 8.83951L2.53233 12.0129C2.50093 12.215 2.52587 12.4219 2.60442 12.6107C2.68298 12.7996 2.81209 12.9631 2.97758 13.0834C3.14306 13.2036 3.33849 13.2759 3.54239 13.2922C3.74628 13.3086 3.95073 13.2684 4.13326 13.176L6.99997 11.7298L9.86678 13.176C10.0493 13.2682 10.2537 13.3082 10.4575 13.2918C10.6613 13.2754 10.8567 13.2031 11.0221 13.0829C11.1875 12.9627 11.3166 12.7993 11.3952 12.6105C11.4739 12.4217 11.4989 12.215 11.4677 12.0129L10.9782 8.83951L13.2396 6.55991C13.384 6.41502 13.4854 6.233 13.5328 6.034C13.5801 5.835 13.5715 5.62678 13.5078 5.43239ZM12.6183 5.94372L10.0461 8.5367L10.6029 12.1463C10.6098 12.1896 10.6046 12.2339 10.5879 12.2743C10.5711 12.3148 10.5435 12.3498 10.5081 12.3756C10.4727 12.4013 10.4309 12.4167 10.3872 12.4201C10.3436 12.4235 10.2998 12.4148 10.2609 12.3948L6.99997 10.7498L3.73907 12.3949C3.70009 12.4148 3.65635 12.4236 3.61271 12.4202C3.56906 12.4168 3.52721 12.4013 3.4918 12.3756C3.45638 12.3499 3.42878 12.3148 3.41205 12.2744C3.39532 12.2339 3.39012 12.1896 3.39703 12.1464L3.95388 8.5367L1.38168 5.94369C1.35096 5.91266 1.32938 5.87377 1.3193 5.83129C1.30921 5.7888 1.31101 5.74436 1.32451 5.70283C1.338 5.66131 1.36266 5.62429 1.39579 5.59585C1.42892 5.56741 1.46924 5.54863 1.51233 5.54158L5.11736 4.95571L6.78858 1.70817C6.80856 1.66933 6.83886 1.63674 6.87616 1.61399C6.91345 1.59123 6.95629 1.5792 6.99997 1.5792C7.04366 1.5792 7.0865 1.59123 7.12379 1.61399C7.16108 1.63674 7.19138 1.66933 7.21137 1.70817L8.88259 4.95571L12.4876 5.54158C12.5307 5.54863 12.571 5.56741 12.6042 5.59585C12.6373 5.62429 12.662 5.66131 12.6754 5.70283C12.6889 5.74436 12.6907 5.7888 12.6807 5.83129C12.6706 5.87377 12.649 5.91266 12.6183 5.94369L12.6183 5.94372Z" fill="white"/>
</svg>
