<svg width="17" height="17" viewBox="0 0 17 17" fill="none" xmlns="http://www.w3.org/2000/svg">
<path d="M6.83984 6.88867H7.83984V12.8887H6.83984V6.88867Z" fill="black"/>
<path d="M9.83984 6.88867H10.8398V12.8887H9.83984V6.88867Z" fill="black"/>
<path d="M2.83984 3.88867V4.88867H3.83984V14.8887C3.83984 15.1539 3.9452 15.4082 4.13274 15.5958C4.32027 15.7833 4.57463 15.8887 4.83984 15.8887H12.8398C13.1051 15.8887 13.3594 15.7833 13.547 15.5958C13.7345 15.4082 13.8398 15.1539 13.8398 14.8887V4.88867H14.8398V3.88867H2.83984ZM4.83984 14.8887V4.88867H12.8398V14.8887H4.83984Z" fill="black"/>
<path d="M6.83984 1.88867H10.8398V2.88867H6.83984V1.88867Z" fill="black"/>
</svg>
