<svg width="58" height="60" viewBox="0 0 58 60" fill="none" xmlns="http://www.w3.org/2000/svg">
<g clip-path="url(#clip0_30_429)">
<path d="M6.95275 57.2559C21.7415 57.2559 36.2585 57.2559 50.8208 57.2559C49.2807 54.3335 44.8871 52.9989 41.4447 54.4716C39.633 55.254 37.7985 55.6912 35.8282 55.5531C35.1261 55.5071 34.4014 55.369 33.722 55.185C32.0461 54.7017 31.2308 53.4361 31.0269 51.7333C29.6454 51.7333 28.3772 51.7333 26.9731 51.7333C26.7692 53.252 26.0898 54.4716 24.6177 55.0699C22.67 55.8293 20.6771 55.7372 18.7068 55.254C18.4123 55.185 18.2538 54.5867 18.0273 54.2415C18.4123 54.0344 18.7747 53.6662 19.1823 53.6432C20.4506 53.5972 21.7415 53.7813 23.0098 53.7123C24.0742 53.6432 24.9801 53.183 25.1613 51.7563C22.2397 51.9404 23.0098 49.3172 22.1945 47.7064C21.0168 48.1896 19.8618 48.6959 18.6841 49.1791C16.7591 49.9615 16.1023 49.4782 16.2608 47.3612C16.2608 47.2002 16.2608 47.0621 16.2608 46.763C15.8532 46.7399 15.4455 46.7169 15.0605 46.7169C11.5049 46.7169 7.97189 46.7169 4.41624 46.7169C1.42679 46.7169 0 45.2442 0 42.1838C0 29.6428 0 17.1019 0 4.53791C0 1.5695 1.44943 0.096799 4.3936 0.096799C17.4159 0.096799 30.4381 0.096799 43.4604 0.096799C43.8001 0.096799 44.1851 0.0047553 44.4569 0.165832C44.7286 0.303897 45.0683 0.695083 45.0683 0.971214C45.0683 1.24735 44.7286 1.63853 44.4569 1.75359C44.0945 1.89165 43.6415 1.84563 43.2339 1.84563C30.3928 1.84563 17.5517 1.84563 4.73331 1.84563C2.28739 1.84563 1.7212 2.4209 1.7212 4.88307C1.7212 6.30975 1.7212 7.71342 1.7212 9.23214C19.9297 9.23214 38.0476 9.23214 56.2561 9.23214C56.2561 7.36825 56.3241 5.55039 56.2335 3.70951C56.1882 2.53596 55.3503 1.89165 54.0367 1.84563C52.4514 1.79961 50.8661 1.84563 49.2807 1.82262C48.9863 1.82262 48.624 1.91466 48.3975 1.79961C48.0125 1.59251 47.7181 1.22433 47.401 0.948203C47.7407 0.672072 48.0804 0.165832 48.4201 0.142821C50.4584 0.0737881 52.4967 0.0507771 54.5349 0.142821C56.4147 0.234865 57.8868 1.82262 58 3.75554C58.0453 4.5149 58.0226 5.29727 58.0226 6.05663C58.0226 18.1144 58.0226 30.1491 58.0226 42.2068C58.0226 45.2442 56.5959 46.7169 53.5838 46.7399C50.0734 46.7399 46.5631 46.7399 43.0527 46.7399C42.6451 46.7399 42.2374 46.7399 41.8298 46.7399C41.7845 46.9701 41.7165 47.0851 41.7392 47.1772C41.875 49.6393 41.3089 50.0535 39.1121 49.1331C38.0476 48.6729 36.9832 48.2126 35.8735 47.7294C34.9676 49.2021 35.8508 51.9404 32.9067 51.7563C32.9067 53.0219 33.7446 53.6432 34.6958 53.6662C36.4397 53.6892 38.3647 53.8733 39.9047 53.206C45.5666 50.7438 49.4846 52.6768 53.1987 57.0488C53.4705 57.371 53.6064 58.0383 53.4479 58.3835C53.2893 58.7286 52.7005 58.8897 52.2929 59.0738C52.1343 59.1428 51.9305 59.0968 51.7267 59.0968C36.5982 59.0968 21.4471 59.0968 6.31862 59.0738C5.82038 59.0738 5.16361 59.0048 4.86919 58.7056C4.59742 58.4295 4.52948 57.5781 4.73331 57.302C7.22452 54.2645 10.0781 51.8484 14.3132 52.1705C14.6076 52.1935 14.9926 52.1705 15.1738 52.3546C15.4682 52.6077 15.6494 53.0219 15.8758 53.3671C15.5361 53.5972 15.1285 54.0574 14.8567 53.9884C11.8446 53.3901 9.6025 54.8398 7.51894 56.7497C7.33776 56.7727 7.24717 56.9338 6.95275 57.2559ZM1.69856 11.096C1.69856 11.6483 1.69856 12.0625 1.69856 12.4767C1.69856 21.4509 1.69856 30.4252 1.69856 39.3995C1.69856 40.55 1.67591 41.7006 1.7212 42.8511C1.78914 44.1857 2.5818 44.9681 3.89535 44.9911C7.90394 45.0141 11.8899 45.0141 15.8985 44.9681C16.1929 44.9681 16.5326 44.715 16.7591 44.4619C17.4159 43.7255 17.9141 42.8051 18.6615 42.2298C20.1335 41.1253 20.9488 39.9057 20.1788 38.0188C20.0656 37.7427 20.0882 37.4205 20.0203 37.1214C18.435 28.0781 21.4471 20.6225 27.7657 14.3636C28.8075 13.3281 29.2151 13.3511 30.2569 14.3636C33.3596 17.378 35.715 20.8987 37.1644 25.0176C38.7724 29.5968 38.6138 34.291 37.6626 38.9622C37.4588 40.0208 37.572 40.7111 38.4326 41.4244C39.3838 42.2068 40.335 43.1042 40.9691 44.1397C41.4221 44.853 41.8524 45.0141 42.5771 45.0141C46.2007 44.9911 49.8243 45.0141 53.4479 45.0141C55.6447 45.0141 56.3014 44.3468 56.3014 42.1608C56.3014 32.22 56.3014 22.3023 56.3014 12.3616C56.3014 11.9474 56.2561 11.5562 56.2335 11.119C38.025 11.096 19.9524 11.096 1.69856 11.096ZM34.6279 45.8885C35.2846 41.9076 36.1226 37.9498 36.5529 33.9689C37.0285 29.5968 36.0547 25.4318 33.7446 21.658C33.5182 21.2668 32.884 20.9217 32.4311 20.8987C30.7099 20.8066 28.9434 21.0598 27.2448 20.8066C25.0933 20.5075 24.0968 21.52 23.2815 23.3608C21.4471 27.4798 20.9715 31.7598 21.6283 36.1549C22.1265 39.4225 22.8739 42.644 23.508 45.8655C27.2675 45.8885 30.7552 45.8885 34.6279 45.8885ZM33.8352 47.7524C30.6193 47.7524 27.4034 47.7524 24.1421 47.7524C24.1874 48.0516 24.2327 48.2817 24.2554 48.5118C24.3007 49.6853 24.8216 50.1226 26.0445 50.0305C27.879 49.9155 29.736 50.0075 31.5705 50.0075C33.6314 49.9845 33.6314 49.9845 33.8352 47.7524ZM25.7954 19.1038C28.0601 19.1038 29.9852 19.1038 32.2046 19.1038C31.0722 17.7922 30.0984 16.6647 28.9887 15.3991C27.9016 16.6647 26.9278 17.7922 25.7954 19.1038ZM20.9715 42.4829C19.3409 43.8406 17.6423 45.0141 18.1406 47.5453C18.4576 47.4303 18.7294 47.3152 19.0012 47.2002C22.0812 45.8885 22.0812 45.8885 20.9715 42.4829ZM39.8821 47.5453C40.335 44.9451 38.6365 43.7945 37.0059 42.4369C36.7341 43.4954 36.485 44.4389 36.3038 45.4053C36.2585 45.6124 36.4397 46.0266 36.6208 46.1186C37.6853 46.6479 38.795 47.0851 39.8821 47.5453Z" fill="#FC7C04"/>
<path d="M21.6509 8.2196C20.1788 8.2196 19.0011 7.00003 19.0238 5.50432C19.0464 4.00861 20.2467 2.83505 21.7188 2.85806C23.2362 2.88107 24.3233 4.03162 24.3006 5.57335C24.3006 7.11508 23.1909 8.2196 21.6509 8.2196ZM21.6282 6.88497C22.0812 6.28669 22.6247 5.91851 22.5794 5.61937C22.5115 5.22818 22.0132 4.90603 21.6962 4.56087C21.4017 4.88302 20.8808 5.15915 20.8356 5.50432C20.7903 5.84948 21.2432 6.24066 21.6282 6.88497Z" fill="#FC7C04"/>
<path d="M8.40201 2.85807C9.89674 2.85807 11.0518 4.00862 11.0744 5.52734C11.0744 7.04606 9.94204 8.1966 8.42466 8.21962C6.95258 8.24263 5.75227 7.04606 5.75227 5.55035C5.72962 4.07765 6.92993 2.83506 8.40201 2.85807ZM8.35672 4.19271C7.94907 4.83701 7.47347 5.25121 7.54141 5.55035C7.632 5.94153 8.17554 6.19465 8.51525 6.51681C8.78702 6.17164 9.26262 5.82648 9.28526 5.48132C9.28526 5.11314 8.80967 4.76798 8.35672 4.19271Z" fill="#FC7C04"/>
<path d="M15.0829 8.21961C13.5881 8.24262 12.4331 7.09207 12.4105 5.57335C12.3878 4.05463 13.5429 2.85806 15.0149 2.85806C16.5323 2.85806 17.6647 3.9856 17.6647 5.52733C17.6873 7.04605 16.6003 8.1966 15.0829 8.21961ZM15.0602 6.88497C15.4905 6.28669 15.9661 5.91851 15.9435 5.57335C15.9208 5.22819 15.3999 4.90603 15.1055 4.58388C14.7658 4.90603 14.2449 5.20518 14.177 5.59636C14.109 5.87249 14.6299 6.28669 15.0602 6.88497Z" fill="#FC7C04"/>
<path d="M10.984 18.0913C9.39867 18.0913 7.81335 18.0913 6.22803 18.0913C5.6392 18.0913 5.02772 18.0683 4.98242 17.2629C4.98242 16.4805 5.57125 16.4115 6.18273 16.4115C9.46661 16.4115 12.7505 16.4115 16.0344 16.4115C16.6458 16.4115 17.2347 16.5035 17.212 17.2859C17.1894 18.0683 16.5779 18.1143 15.9664 18.1143C14.3132 18.0913 12.6599 18.0913 10.984 18.0913Z" fill="#FC7C04"/>
<path d="M9.62514 21.7961C8.42483 21.7961 7.22451 21.8651 6.0242 21.75C5.66184 21.75 5.32213 21.2898 4.98242 21.0137C5.32213 20.7145 5.66184 20.1623 6.0242 20.1393C8.42483 20.0702 10.8255 20.0702 13.2261 20.1393C13.5658 20.1393 13.8829 20.6685 14.2226 20.9447C13.8829 21.2208 13.5658 21.727 13.2034 21.75C12.0484 21.8651 10.8255 21.7961 9.62514 21.7961Z" fill="#FC7C04"/>
<path d="M49.5295 21.2898C50.3674 21.2898 51.2054 21.1978 52.0207 21.3358C52.383 21.3819 52.7001 21.8651 53.0172 22.1642C52.7001 22.4634 52.383 22.9926 52.0433 23.0156C50.3448 23.1077 48.6462 23.1077 46.9477 23.0156C46.6079 22.9926 46.2909 22.4864 45.9512 22.1872C46.3135 21.8881 46.6532 21.4049 47.0382 21.3358C47.8536 21.1978 48.6915 21.2898 49.5295 21.2898Z" fill="#FC7C04"/>
<path d="M49.4162 26.7894C48.6236 26.7894 47.8083 26.8815 47.0382 26.7434C46.6306 26.6744 46.3135 26.1911 45.9512 25.892C46.2909 25.5929 46.6079 25.0866 46.9477 25.0636C48.6462 24.9716 50.3448 24.9716 52.0433 25.0636C52.383 25.0866 52.7001 25.6159 53.0172 25.915C52.6775 26.1911 52.383 26.6744 52.0207 26.7434C51.1601 26.8815 50.2768 26.7894 49.4162 26.7894Z" fill="#FC7C04"/>
<path d="M49.4853 30.5172C48.6247 30.5172 47.7415 30.6092 46.8809 30.4711C46.5412 30.4251 46.2468 29.9189 45.9297 29.6197C46.2241 29.3436 46.5412 28.8604 46.8356 28.8604C48.5568 28.7914 50.3006 28.7683 52.0218 28.8604C52.3615 28.8834 52.656 29.4127 52.973 29.7118C52.656 29.9879 52.3842 30.4251 52.0445 30.4711C51.2292 30.5862 50.3459 30.5172 49.4853 30.5172Z" fill="#FC7C04"/>
<path d="M8.2663 27.7789C9.01366 27.7789 9.78367 27.6869 10.5084 27.8249C10.8255 27.8709 11.3237 28.3542 11.3237 28.6533C11.3237 28.9525 10.8255 29.4817 10.531 29.5047C8.99101 29.5968 7.45099 29.5968 5.91097 29.5047C5.5939 29.4817 5.27684 28.9294 4.98242 28.6073C5.27684 28.3312 5.57125 27.8709 5.91097 27.8249C6.68098 27.6869 7.47364 27.7789 8.2663 27.7789Z" fill="#FC7C04"/>
<path d="M33.3361 32.9333C33.3361 35.3495 31.3884 37.3284 29.0104 37.3284C26.6324 37.3284 24.6848 35.3495 24.6621 32.9564C24.6621 30.4021 26.5192 28.4692 28.9878 28.4692C31.4563 28.4462 33.3361 30.3791 33.3361 32.9333ZM28.9878 35.5566C30.4825 35.5566 31.6375 34.383 31.6602 32.8873C31.6828 31.4146 30.4825 30.2181 28.9878 30.2181C27.5157 30.2181 26.3154 31.4146 26.3154 32.8873C26.338 34.383 27.5157 35.5566 28.9878 35.5566Z" fill="#FC7C04"/>
</g>
<defs>
<clipPath id="clip0_30_429">
<rect width="58" height="59" fill="white" transform="translate(0 0.0737305)"/>
</clipPath>
</defs>
</svg>
