<svg width="30" height="22" viewBox="0 0 30 22" fill="none" xmlns="http://www.w3.org/2000/svg">
<path opacity="0.6" d="M29.7648 3.97688C29.6736 3.86716 29.5565 3.77825 29.4224 3.71697C29.2883 3.65568 29.1409 3.62364 28.9913 3.6233H6.37345L5.93284 2.32687C5.88444 2.18767 5.80039 2.06138 5.68786 1.95877C5.57534 1.85616 5.43767 1.78027 5.28662 1.73759L1.27219 0.59528C1.14875 0.560159 1.01905 0.547893 0.890492 0.559183C0.761934 0.570473 0.637037 0.605098 0.522932 0.661081C0.292486 0.774144 0.119986 0.967339 0.04338 1.19816C-0.0332259 1.42899 -0.00766259 1.67854 0.114446 1.89191C0.236555 2.10529 0.445207 2.26501 0.694501 2.33594L4.20957 3.33319L8.69398 16.4516L7.098 17.6664L6.97072 17.7843C6.57603 18.2075 6.35241 18.7445 6.33812 19.3034C6.32384 19.8624 6.51976 20.4086 6.89239 20.8486C7.15926 21.1491 7.49838 21.3876 7.88262 21.545C8.26686 21.7024 8.68556 21.7744 9.10522 21.7552H25.4469C25.7066 21.7552 25.9556 21.6597 26.1392 21.4897C26.3228 21.3196 26.426 21.089 26.426 20.8486C26.426 20.6081 26.3228 20.3776 26.1392 20.2075C25.9556 20.0375 25.7066 19.942 25.4469 19.942H8.94856C8.83581 19.9384 8.72596 19.908 8.62961 19.8537C8.53327 19.7993 8.4537 19.7229 8.39857 19.6317C8.34345 19.5406 8.31465 19.4378 8.31494 19.3334C8.31523 19.2289 8.34461 19.1263 8.40024 19.0354L10.7599 17.2222H25.8679C26.0916 17.2282 26.3107 17.1632 26.4889 17.0378C26.667 16.9124 26.7934 16.7344 26.847 16.5332L29.9802 4.74748C30.01 4.61232 30.0061 4.47266 29.9688 4.33912C29.9314 4.20558 29.8617 4.08169 29.7648 3.97688Z" fill="black"/>
</svg>
