<svg width="31" height="31" viewBox="0 0 31 31" fill="none" xmlns="http://www.w3.org/2000/svg">
<path d="M11.5234 30.7665C12.628 30.7665 13.5234 29.7932 13.5234 28.5925C13.5234 27.3918 12.628 26.4185 11.5234 26.4185C10.4189 26.4185 9.52344 27.3918 9.52344 28.5925C9.52344 29.7932 10.4189 30.7665 11.5234 30.7665Z" fill="black"/>
<path d="M24.5234 30.7665C25.628 30.7665 26.5234 29.7932 26.5234 28.5925C26.5234 27.3918 25.628 26.4185 24.5234 26.4185C23.4189 26.4185 22.5234 27.3918 22.5234 28.5925C22.5234 29.7932 23.4189 30.7665 24.5234 30.7665Z" fill="black"/>
<path d="M30.2883 4.34717C30.1971 4.21837 30.0799 4.11399 29.9458 4.04204C29.8118 3.97009 29.6643 3.93248 29.5148 3.93208H6.89689L6.45628 2.4101C6.40788 2.24668 6.32383 2.09841 6.2113 1.97795C6.09878 1.85748 5.96111 1.76839 5.81005 1.71828L1.79562 0.377232C1.67219 0.336 1.54249 0.3216 1.41393 0.334854C1.28537 0.348109 1.16047 0.388758 1.04637 0.454481C0.815923 0.587215 0.643423 0.814023 0.566818 1.08501C0.490212 1.356 0.515775 1.64896 0.637884 1.89946C0.759993 2.14996 0.968645 2.33747 1.21794 2.42074L4.73301 3.5915L9.21742 18.9923L7.62144 20.4185L7.49415 20.5569C7.09947 21.0537 6.87585 21.6841 6.86156 22.3403C6.84727 22.9965 7.0432 23.6378 7.41582 24.1543C7.68269 24.5071 8.02181 24.7871 8.40605 24.9719C8.7903 25.1567 9.20899 25.2412 9.62866 25.2186H25.9703C26.23 25.2186 26.479 25.1065 26.6627 24.9069C26.8463 24.7073 26.9494 24.4366 26.9494 24.1543C26.9494 23.872 26.8463 23.6013 26.6627 23.4017C26.479 23.2021 26.23 23.09 25.9703 23.09H9.47199C9.35924 23.0858 9.24939 23.0501 9.15305 22.9863C9.05671 22.9225 8.97713 22.8327 8.92201 22.7257C8.86689 22.6187 8.83808 22.4981 8.83838 22.3754C8.83867 22.2528 8.86805 22.1323 8.92368 22.0256L11.2834 19.897H26.3913C26.615 19.9041 26.8342 19.8277 27.0123 19.6805C27.1905 19.5333 27.3169 19.3243 27.3705 19.0881L30.5037 5.25185C30.5335 5.09318 30.5295 4.92921 30.4922 4.77244C30.4549 4.61566 30.3851 4.47022 30.2883 4.34717Z" fill="black"/>
</svg>
