<svg width="30" height="26" viewBox="0 0 30 26" fill="none" xmlns="http://www.w3.org/2000/svg">
<path opacity="0.6" d="M11 25.9258C12.1046 25.9258 13 25.0968 13 24.074C13 23.0513 12.1046 22.2222 11 22.2222C9.89543 22.2222 9 23.0513 9 24.074C9 25.0968 9.89543 25.9258 11 25.9258Z" fill="black"/>
<path opacity="0.6" d="M24 25.9258C25.1046 25.9258 26 25.0968 26 24.074C26 23.0513 25.1046 22.2222 24 22.2222C22.8954 22.2222 22 23.0513 22 24.074C22 25.0968 22.8954 25.9258 24 25.9258Z" fill="black"/>
<path opacity="0.6" d="M29.7648 3.42176C29.6736 3.31205 29.5565 3.22314 29.4224 3.16185C29.2883 3.10056 29.1409 3.06852 28.9913 3.06819H6.37345L5.93284 1.77176C5.88444 1.63256 5.80039 1.50627 5.68786 1.40365C5.57534 1.30104 5.43767 1.22516 5.28662 1.18247L1.27219 0.0401652C1.14875 0.00504384 1.01905 -0.00722207 0.890492 0.00406817C0.761934 0.0153584 0.637037 0.0499835 0.522932 0.105967C0.292486 0.219029 0.119986 0.412224 0.04338 0.64305C-0.0332259 0.873876 -0.00766259 1.12343 0.114446 1.3368C0.236555 1.55017 0.445207 1.70989 0.694501 1.78083L4.20957 2.77808L8.69398 15.8965L7.098 17.1113L6.97072 17.2292C6.57603 17.6524 6.35241 18.1894 6.33812 18.7483C6.32384 19.3073 6.51976 19.8535 6.89239 20.2935C7.15926 20.594 7.49838 20.8325 7.88262 20.9899C8.26686 21.1473 8.68556 21.2193 9.10522 21.2001H25.4469C25.7066 21.2001 25.9556 21.1046 26.1392 20.9345C26.3228 20.7645 26.426 20.5339 26.426 20.2935C26.426 20.053 26.3228 19.8224 26.1392 19.6524C25.9556 19.4824 25.7066 19.3869 25.4469 19.3869H8.94856C8.83581 19.3833 8.72596 19.3529 8.62961 19.2985C8.53327 19.2442 8.4537 19.1677 8.39857 19.0766C8.34345 18.9855 8.31465 18.8827 8.31494 18.7782C8.31523 18.6738 8.34461 18.5712 8.40024 18.4803L10.7599 16.6671H25.8679C26.0916 16.6731 26.3107 16.6081 26.4889 16.4827C26.667 16.3573 26.7934 16.1792 26.847 15.9781L29.9802 4.19237C30.01 4.05721 30.0061 3.91754 29.9688 3.784C29.9314 3.65046 29.8617 3.52657 29.7648 3.42176Z" fill="black"/>
</svg>
