<svg width="64" height="63" viewBox="0 0 64 63" fill="none" xmlns="http://www.w3.org/2000/svg">
<g clip-path="url(#clip0_30_442)">
<path d="M17.7228 60.5145C21.1189 60.5145 24.3427 60.5391 27.5911 60.4652C28.0095 60.4652 28.6247 59.9238 28.7724 59.4809C30.495 54.9035 29.9536 50.6953 26.4345 47.1024C25.4993 46.1426 24.515 45.1828 23.4322 44.3953C20.7497 42.3774 18.4611 40.0149 16.5661 37.234C15.7048 35.9789 14.7943 34.7731 13.8099 33.6164C13.5392 33.2965 13.0224 33.2227 12.604 33.0258C12.5302 33.4688 12.2595 33.9856 12.4072 34.3301C13.4407 36.791 14.5236 39.2028 15.6064 41.6391C15.7294 41.9344 16.074 42.2297 16.0247 42.5004C15.9755 43.0172 15.8279 43.8047 15.5079 43.9278C15.0896 44.1 14.1298 43.9277 13.9575 43.6078C12.1611 40.3594 10.2661 37.1356 9.72473 33.3457C9.67551 33.0012 9.57708 32.6321 9.40481 32.3121C7.82981 29.5313 6.2302 26.775 4.63059 23.9942C4.50754 23.7727 4.40911 23.502 4.21223 23.4035C3.84309 23.2313 3.32629 22.9852 3.05559 23.1328C2.8095 23.2559 2.63723 23.8957 2.73567 24.2403C2.95715 25.0524 3.3509 25.8399 3.67082 26.6274C4.01536 27.4641 4.1384 28.3008 3.10481 28.6699C2.14504 29.0145 1.67747 28.35 1.38215 27.5625C1.03762 26.652 0.619262 25.7414 0.29934 24.8063C-0.192847 23.2805 0.373168 21.7547 1.65286 20.9426C2.90793 20.1551 4.48293 20.2781 5.63958 21.3363C6.13176 21.8039 6.55012 22.3946 6.89465 22.9852C8.39583 25.5199 9.84778 28.0793 11.3736 30.7617C13.7853 29.8266 15.2126 31.1309 16.4677 32.952C19.224 36.9387 22.3247 40.6055 26.2622 43.5586C28.6493 45.3305 30.4458 47.693 31.504 50.5477C32.4392 49.0957 33.3005 47.693 34.2111 46.3149C34.5064 45.8719 34.8509 45.3551 35.2939 45.1582C35.7615 44.9613 36.6966 44.8629 36.8689 45.1336C37.1396 45.552 37.1642 46.3395 36.9427 46.8317C36.6966 47.4469 36.0568 47.8899 35.6384 48.4559C33.0298 51.9504 33.0298 55.7402 34.531 59.6531C34.6786 60.0223 35.2201 60.4406 35.5892 60.4406C38.813 60.5145 42.0615 60.4652 45.4822 60.4652C44.99 58.4227 44.5962 56.4539 44.0302 54.559C43.6611 53.3285 43.8825 52.4426 44.8915 51.6551C45.5068 51.1875 45.9743 50.5231 46.5896 50.0309C51.7329 46.0195 54.2677 40.384 56.4579 34.4778C57.6638 31.1801 59.0665 27.9317 60.3216 24.6586C60.4939 24.191 60.2478 23.5758 60.1986 23.0344C59.6818 23.3051 58.9435 23.4528 58.6974 23.8711C56.9993 26.6766 55.3751 29.5067 53.7755 32.386C53.4802 32.9274 53.6279 33.6903 53.3818 34.2563C52.0775 37.3324 50.7486 40.4086 49.2966 43.4356C49.1243 43.7801 48.1154 44.0508 47.6724 43.8785C46.9095 43.5832 46.9587 42.8203 47.3033 42.1067C48.3615 39.8918 49.3951 37.677 50.4286 35.4375C50.6255 35.0192 50.8224 34.6008 50.847 34.1578C50.8716 33.7641 50.6993 33.3703 50.6009 32.9766C50.2072 33.1488 49.715 33.1981 49.4689 33.4688C48.0661 35.2406 46.7372 37.0371 45.3837 38.8582C44.8669 39.5473 44.2517 39.8918 43.4888 39.375C42.7751 38.9074 42.7751 38.2184 43.2673 37.5539C44.7685 35.5606 46.245 33.5426 47.7954 31.5738C48.706 30.4172 49.7888 30.2449 51.8314 30.6633C53.2833 28.1531 54.7353 25.5938 56.2118 23.059C56.581 22.4192 56.9993 21.8039 57.5408 21.3117C58.6728 20.2535 60.2724 20.1305 61.5029 20.918C62.7826 21.7301 63.447 23.3051 62.8564 24.7817C60.2724 31.2047 57.7622 37.6524 54.9076 43.9524C53.997 45.9703 52.2251 47.6192 50.724 49.3418C49.6165 50.5969 48.3861 51.7535 47.131 52.8856C46.4911 53.4762 46.3927 54.0176 46.6142 54.8051C47.0326 56.3063 47.4017 57.8074 47.7708 59.3332C48.2876 61.5727 47.1802 62.9262 44.8915 62.9508C42.3075 62.9508 39.7236 62.9508 37.1396 62.9508C33.4482 62.9508 33.0544 62.6801 31.5779 59.0133C31.3564 59.5793 31.2087 59.9731 31.0857 60.3422C30.3966 62.1633 29.3384 62.9262 27.345 62.9262C24.2689 62.9508 21.1927 62.9508 18.1165 62.9262C16.0001 62.9262 14.9173 61.5235 15.3849 59.407C15.754 57.7582 16.2462 56.1586 16.5415 54.5098C16.6154 54.0668 16.4431 53.4024 16.1232 53.0578C15.0896 51.9012 13.9822 50.7938 12.8009 49.7848C9.25715 46.7332 7.31301 42.6973 5.68879 38.4645C5.39348 37.677 5.56575 37.0371 6.30403 36.7172C7.09153 36.3727 7.73137 36.7418 7.95286 37.5293C9.70012 43.4602 13.8099 47.6684 18.2396 51.6305C19.224 52.5164 19.4947 53.3778 19.1009 54.6574C18.5841 56.577 18.215 58.4965 17.7228 60.5145Z" fill="#FC7C04"/>
<path d="M23.0135 20.4012C19.642 20.4012 16.3198 20.4012 13.0221 20.4012C10.9303 20.4012 10.7826 20.1797 10.7088 18.0633C10.5612 14.7656 11.6194 12.0586 14.1295 10.1637C14.0311 8.44103 13.8834 6.86603 13.908 5.29103C13.9326 2.3379 16.3444 0.0246188 19.2729 9.39239e-06C22.2506 -0.0246 24.6869 2.31329 24.7362 5.34024C24.7608 6.86603 24.6131 8.41642 24.5147 10.1637C24.8592 10.4836 25.4252 11.0004 26.1881 11.6895C26.1143 9.79454 26.3112 8.1211 27.5416 6.76759C28.7967 5.41407 30.3225 4.77423 32.1682 4.94649C35.2444 5.2172 36.8932 7.43204 37.1147 11.6156C37.7791 11.025 38.3698 10.5082 38.7143 10.1883C38.6405 8.39181 38.4682 6.81681 38.5174 5.24181C38.5666 2.31329 41.003 9.39239e-06 43.9315 9.39239e-06C46.86 9.39239e-06 49.2717 2.31329 49.3209 5.26642C49.3455 6.7922 49.1979 8.34259 49.0994 10.1391C50.699 11.3695 52.028 13.2152 52.3725 15.6024C52.5448 16.759 52.5448 17.9649 52.4955 19.1461C52.4709 20.1305 51.7573 20.4012 50.8713 20.4012C47.7951 20.4012 44.719 20.4012 41.6428 20.4012C41.1998 20.4012 40.7569 20.4012 40.2155 20.4012C40.2155 21.5332 40.1908 22.5914 40.2155 23.6496C40.2401 24.757 39.7479 25.3477 38.6158 25.3231C33.9401 25.3231 29.2643 25.3231 24.5885 25.3231C23.4565 25.3231 22.9397 24.7817 22.9643 23.6742C23.0135 22.6406 23.0135 21.6317 23.0135 20.4012ZM37.7299 22.7883C37.9268 20.5488 37.2377 18.7277 35.6135 17.325C35.3674 17.1035 34.8014 16.9559 34.5799 17.0789C32.4389 18.3094 30.3471 18.1617 28.2799 16.8082C26.2373 18.2848 25.3268 20.2289 25.5237 22.7637C29.5842 22.7883 33.5955 22.7883 37.7299 22.7883ZM13.219 17.9402C16.4182 17.9402 19.5436 17.9402 22.6444 17.9402C24.7115 17.9402 25.7944 16.2422 24.8346 14.4211C24.4655 13.7074 23.8994 13.0922 23.3826 12.477C23.0135 12.0094 22.5951 11.9356 22.0045 12.2801C20.2326 13.2891 18.3869 13.2891 16.6151 12.2555C16.0244 11.9109 15.6553 12.034 15.2369 12.4524C13.6866 13.9043 13.0221 15.6516 13.219 17.9402ZM40.4123 11.8125C39.7479 12.6492 39.0096 13.3383 38.542 14.175C37.3362 16.2668 38.3698 17.9649 40.7815 17.9649C41.8397 17.9649 42.9225 17.9649 43.9807 17.9649C45.974 17.9649 47.9674 17.9649 50.01 17.9649C50.2069 15.6762 49.5424 13.8551 47.9182 12.4524C47.6475 12.2309 47.0569 12.1078 46.7862 12.2555C44.6698 13.3875 42.6272 13.2399 40.4123 11.8125ZM22.2752 6.5461C22.2752 6.12774 22.2998 5.73399 22.2752 5.31564C22.1768 3.69142 20.8971 2.46095 19.3221 2.46095C17.7471 2.46095 16.4428 3.69142 16.369 5.29103C16.3198 6.15235 16.3198 7.01368 16.369 7.87501C16.492 9.40079 17.8455 10.582 19.3713 10.5574C20.8479 10.5328 22.1276 9.37618 22.2752 7.89962C22.2998 7.43204 22.2752 6.98907 22.2752 6.5461ZM34.5553 11.4188C34.5799 11.4188 34.5799 11.4188 34.5553 11.4188C34.5799 11.0496 34.5799 10.6805 34.5799 10.3113C34.5061 8.61329 33.2018 7.35821 31.5776 7.38282C30.0026 7.40743 28.7229 8.6379 28.6737 10.2621C28.6491 11.1234 28.6244 11.9848 28.6983 12.8461C28.8213 14.3227 30.1502 15.4547 31.6268 15.4793C33.0787 15.4793 34.4076 14.3473 34.5799 12.8953C34.6045 12.4031 34.5553 11.9109 34.5553 11.4188ZM46.86 6.49688C46.86 6.49688 46.8846 6.49688 46.86 6.49688C46.8846 6.07853 46.9092 5.68478 46.8846 5.26642C46.7862 3.6422 45.4819 2.43634 43.9069 2.46095C42.3319 2.48556 41.0522 3.71603 40.9783 5.34024C40.9291 6.20157 40.9291 7.0629 41.003 7.92423C41.126 9.40079 42.4303 10.5574 43.9069 10.5574C45.3588 10.582 46.6877 9.45001 46.8846 7.97345C46.9092 7.48126 46.86 6.98907 46.86 6.49688Z" fill="#FC7C04"/>
<path d="M4.43401 34.1332C4.1387 33.641 3.5973 33.1488 3.6219 32.6813C3.64651 32.2629 4.3848 31.5246 4.68011 31.5738C5.1723 31.6723 5.81214 32.2629 5.88597 32.7059C5.93519 33.1242 5.31995 33.641 5.00003 34.1086C4.80315 34.1332 4.63089 34.1332 4.43401 34.1332Z" fill="#FC7C04"/>
<path d="M40.0184 43.7801C39.6984 43.2879 39.1324 42.7957 39.157 42.3527C39.1816 41.9344 39.8461 41.3191 40.2891 41.2207C41.0027 41.0977 41.5933 41.6637 41.4457 42.4266C41.3472 42.9188 40.8797 43.3125 40.5598 43.7555C40.3875 43.7801 40.1906 43.7801 40.0184 43.7801Z" fill="#FC7C04"/>
</g>
<defs>
<clipPath id="clip0_30_442">
<rect width="63" height="63" fill="white" transform="translate(0.126953)"/>
</clipPath>
</defs>
</svg>
