<svg width="80" height="51" viewBox="0 0 80 51" fill="none" xmlns="http://www.w3.org/2000/svg">
<g clip-path="url(#clip0_30_419)">
<path d="M58.0654 42.1521C48.8966 42.1521 39.6969 42.1521 30.5281 42.1521C29.2315 47.615 26.4531 50.2076 22.162 50.0224C18.1178 49.8681 15.3703 47.0286 14.5367 42.0904C12.6844 42.0904 10.8013 42.0904 8.91813 42.0904C6.20144 42.0904 5.42966 41.3187 5.39878 38.6336C5.39878 38.078 5.39878 37.5225 5.39878 36.8126C4.07131 36.8126 2.8982 36.8126 1.72508 36.8126C0.829812 36.8126 0.0271552 36.5039 0.212384 35.5471C0.304998 35.0533 1.13853 34.4052 1.66334 34.3743C5.42966 34.2817 9.1651 34.2817 12.9314 34.3743C13.4254 34.3743 14.2589 35.0533 14.3515 35.5471C14.5367 36.5348 13.7341 36.8126 12.8697 36.7817C11.2952 36.7817 9.68991 36.7817 7.99198 36.7817C7.99198 37.6768 7.99198 38.4792 7.99198 39.5595C10.2147 39.5595 12.4992 39.5904 14.7837 39.5286C15.0307 39.5286 15.3394 39.0039 15.5246 38.6644C17.0373 35.8867 19.3835 34.3743 22.5016 34.3743C25.6196 34.3743 27.9658 35.9175 29.5094 38.6336C29.7563 39.0657 30.3738 39.5595 30.806 39.5595C38.8325 39.6212 46.8591 39.5904 54.8857 39.5904C55.04 39.5904 55.1944 39.5286 55.5957 39.4669C55.5957 37.8928 55.5957 36.257 55.5957 34.6521C55.5957 33.3558 55.4722 32.0595 55.6575 30.7941C55.7501 30.1768 56.3366 29.2509 56.7997 29.1891C57.8493 29.0348 58.0963 29.9607 58.0963 30.8558C58.0963 32.862 58.0963 34.8681 58.0963 36.8743C58.0963 37.7694 58.0963 38.6336 58.0963 39.5286C58.2507 39.5595 58.3742 39.5595 58.5285 39.5904C58.8064 39.1274 59.0533 38.6644 59.3312 38.2323C62.264 33.2941 69.3026 33.078 72.5441 37.8002C73.9642 39.899 73.9642 39.899 76.65 39.436C76.65 37.7694 76.65 36.1027 76.65 34.3126C76.1252 34.2817 75.6313 34.2508 75.1373 34.1891C72.8837 33.9422 71.5254 32.4299 71.4636 30.1768C71.371 26.4731 71.371 26.4731 75.0756 26.4113C75.4769 26.4113 75.8783 26.3805 76.4031 26.3188C75.8165 24.6212 74.6743 23.6953 73.0998 23.6644C68.1604 23.5718 63.2518 23.6336 58.2198 23.6336C58.1581 24.1583 58.2507 24.6829 58.0346 25.0225C57.7567 25.4854 57.2319 26.1027 56.8306 26.1027C56.4293 26.1027 55.9353 25.4546 55.6883 24.9916C55.5031 24.6212 55.6266 24.0965 55.6266 23.6336C55.6266 17.2138 55.6266 10.7632 55.6266 4.34345C55.6266 3.78789 55.6266 3.23234 55.6266 2.58419C39.7278 2.58419 23.9525 2.58419 7.89937 2.58419C7.89937 3.07802 7.89937 3.60271 7.89937 4.15826C7.89937 10.7323 7.89937 17.3373 7.89937 23.9113C7.89937 24.3126 8.02286 24.8064 7.83763 25.115C7.59066 25.5471 7.06584 26.1953 6.75713 26.1336C6.29406 26.0718 5.80011 25.5471 5.4914 25.115C5.30617 24.8681 5.42966 24.4052 5.42966 24.0657C5.42966 17.183 5.42966 10.2694 5.42966 3.38666C5.39878 0.855794 6.26318 0.0224609 8.85638 0.0224609C23.9834 0.0224609 39.1104 0.0224609 54.2374 0.0224609C57.3863 0.0224609 58.0654 0.701473 58.0963 3.78789C58.0963 4.18913 58.0963 4.62123 58.0963 5.20764C58.652 5.23851 59.1459 5.26937 59.6399 5.26937C62.2022 5.26937 64.7954 5.23851 67.3577 5.30024C70.8462 5.39283 73.6864 8.66443 72.4824 11.8126C71.2167 15.1459 73.2851 17.6768 73.5629 20.6089C73.5938 20.8867 74.1495 21.2262 74.5199 21.3805C77.6379 22.5533 79.1815 24.7447 79.2124 28.078C79.2124 32.0904 79.1815 36.1027 79.2432 40.115C79.2741 41.5965 78.6876 42.1829 77.2366 42.0904C76.2178 42.0286 75.1991 42.0904 74.2112 42.0904C72.575 47.8002 70.0744 50.1768 65.845 50.0224C61.77 49.899 59.1768 47.3064 58.0654 42.1521ZM71.0314 21.041C70.3831 18.4792 69.8275 16.041 69.1792 13.6336C69.1174 13.3867 68.6852 13.078 68.4074 13.078C65.0424 13.0471 61.6465 13.0471 58.1889 13.0471C58.1889 15.7941 58.1889 18.3867 58.1889 21.041C62.4492 21.041 66.586 21.041 71.0314 21.041ZM27.8732 42.1212C27.8423 39.1891 25.3109 36.7508 22.4089 36.8126C19.4453 36.8743 17.0682 39.3743 17.1608 42.3373C17.2225 45.2076 19.6614 47.5842 22.5324 47.5533C25.4652 47.5224 27.9349 45.0533 27.8732 42.1212ZM71.4328 42.1829C71.4328 39.2509 68.9322 36.7817 66.0303 36.8126C63.1592 36.8434 60.7513 39.2508 60.6895 42.1212C60.6586 45.0533 63.0975 47.5224 66.0303 47.5533C68.9939 47.5533 71.4328 45.115 71.4328 42.1829ZM58.1889 10.4546C62.1713 10.4546 66.092 10.4546 70.0436 10.4546C69.9818 8.97308 69.21 7.95456 67.9752 7.89283C64.7337 7.73851 61.4613 7.8311 58.1889 7.8311C58.1889 8.78789 58.1889 9.59036 58.1889 10.4546ZM74.026 29.0039C73.8099 31.4731 74.489 32.0904 76.6192 31.4731C76.6192 30.6706 76.6192 29.8681 76.6192 29.0039C75.7548 29.0039 74.9521 29.0039 74.026 29.0039Z" fill="#FC7C04"/>
<path d="M30.374 23.3558C33.8316 19.899 37.0731 16.6274 40.3455 13.3558C40.6851 13.0163 40.9629 12.5533 41.3334 12.4299C41.8891 12.2447 42.5065 12.3064 43.1239 12.2755C43.0931 12.9237 43.1548 13.5718 42.9696 14.1891C42.8461 14.5904 42.3521 14.8681 42.0434 15.1768C38.6476 18.5718 35.2826 21.936 31.8867 25.3311C30.5592 26.6274 30.2814 26.6274 28.9848 25.362C27.1016 23.4484 25.2185 21.5657 23.3353 19.683C22.6562 19.0348 22.1931 18.2323 23.0575 17.615C23.4588 17.3373 24.5702 17.5533 25.0024 17.9546C26.7929 19.5904 28.4909 21.4113 30.374 23.3558Z" fill="#FC7C04"/>
<path d="M42.136 36.8126C39.2959 36.8126 36.4866 36.8126 33.6464 36.8126C32.782 36.8126 31.8867 36.7508 31.8867 35.6089C31.8867 34.4978 32.7202 34.3434 33.6155 34.3434C39.4194 34.3434 45.2232 34.3434 51.027 34.3434C51.9532 34.3434 52.725 34.5595 52.725 35.6706C52.6941 36.6891 51.9223 36.8434 51.0888 36.8434C48.0942 36.7817 45.0997 36.8126 42.136 36.8126Z" fill="#FC7C04"/>
<path d="M11.8822 31.5348C9.41252 31.5348 6.94281 31.5348 4.47309 31.5348C3.60869 31.5348 2.86778 31.3496 2.83691 30.3311C2.80604 29.3435 3.51608 29.0348 4.38048 29.0348C9.41252 29.0348 14.4446 29.004 19.4766 29.0965C20.0014 29.0965 20.5262 29.899 21.0511 30.3311C20.4954 30.7323 19.9397 31.4422 19.384 31.4731C16.9143 31.5965 14.3828 31.5348 11.8822 31.5348Z" fill="#FC7C04"/>
<path d="M22.4406 39.6212C21.0823 39.6521 19.9092 40.8867 19.94 42.2447C19.9709 43.6027 21.2058 44.7756 22.5641 44.7447C23.9225 44.7138 25.0956 43.4793 25.0647 42.1212C25.0338 40.7632 23.799 39.5904 22.4406 39.6212Z" fill="white"/>
<path d="M68.6536 42.1521C68.6536 40.7941 67.4187 39.5904 66.0604 39.5904C64.702 39.5904 63.498 40.8249 63.498 42.183C63.498 43.541 64.7329 44.7447 66.0912 44.7447C67.4496 44.7447 68.6536 43.5101 68.6536 42.1521Z" fill="white"/>
<path d="M22.4406 39.6212C23.799 39.5904 25.0338 40.7632 25.0647 42.1212C25.0956 43.4793 23.9225 44.7138 22.5641 44.7447C21.2058 44.7756 19.9709 43.6027 19.94 42.2447C19.9092 40.8867 21.0823 39.6521 22.4406 39.6212Z" fill="#FC7C04"/>
<path d="M68.6536 42.1521C68.6536 43.5101 67.4496 44.7138 66.0912 44.7447C64.7329 44.7447 63.5289 43.541 63.498 42.183C63.498 40.8249 64.702 39.5904 66.0604 39.5904C67.4187 39.5904 68.6227 40.7941 68.6536 42.1521Z" fill="#FC7C04"/>
</g>
<defs>
<clipPath id="clip0_30_419">
<rect width="79" height="50" fill="white" transform="translate(0.212891 0.0224609)"/>
</clipPath>
</defs>
</svg>
