<svg width="233" height="116" viewBox="0 0 233 116" fill="none" xmlns="http://www.w3.org/2000/svg">
<path d="M232.5 0C232.5 30.7651 220.279 60.2702 198.524 82.0244C176.77 103.779 147.265 116 116.5 116C85.7349 116 56.2298 103.779 34.4756 82.0244C12.7214 60.2702 0.5 30.7651 0.5 0H69.77C69.77 12.3936 74.6933 24.2795 83.4569 33.0431C92.2205 41.8067 104.106 46.73 116.5 46.73C128.894 46.73 140.78 41.8067 149.543 33.0431C158.307 24.2795 163.23 12.3936 163.23 0H232.5Z" fill="#FD902D"/>
<path d="M190.69 0C190.69 19.6764 182.873 38.5469 168.96 52.4603C155.047 66.3736 136.176 74.19 116.5 74.19C96.8232 74.19 77.9526 66.3736 64.0393 52.4603C50.126 38.5469 42.3096 19.6764 42.3096 0H32.0596C32.0596 22.3949 40.9559 43.8725 56.7915 59.7081C72.627 75.5436 94.1047 84.44 116.5 84.44C138.894 84.44 160.372 75.5436 176.208 59.7081C192.043 43.8725 200.94 22.3949 200.94 0H190.69Z" fill="white"/>
</svg>
