<svg width="58" height="60" viewBox="0 0 58 60" fill="none" xmlns="http://www.w3.org/2000/svg">
<g clip-path="url(#clip0_30_429)">
<path d="M6.95275 57.2559C21.7415 57.2559 36.2585 57.2559 50.8208 57.2559C49.2807 54.3335 44.8871 52.9989 41.4447 54.4715C39.633 55.2539 37.7985 55.6911 35.8282 55.5531C35.1261 55.507 34.4014 55.369 33.722 55.1849C32.0461 54.7017 31.2308 53.4361 31.0269 51.7333C29.6454 51.7333 28.3772 51.7333 26.9731 51.7333C26.7692 53.252 26.0898 54.4716 24.6177 55.0698C22.67 55.8292 20.6771 55.7372 18.7068 55.2539C18.4123 55.1849 18.2538 54.5866 18.0273 54.2414C18.4123 54.0343 18.7747 53.6662 19.1823 53.6432C20.4506 53.5971 21.7415 53.7812 23.0098 53.7122C24.0742 53.6432 24.9801 53.1829 25.1613 51.7563C22.2397 51.9404 23.0098 49.3171 22.1945 47.7063C21.0168 48.1896 19.8618 48.6958 18.6841 49.179C16.7591 49.9614 16.1023 49.4782 16.2608 47.3612C16.2608 47.2001 16.2608 47.062 16.2608 46.7629C15.8532 46.7399 15.4455 46.7169 15.0605 46.7169C11.5049 46.7169 7.97189 46.7169 4.41624 46.7169C1.42679 46.7169 0 45.2442 0 42.1837C0 29.6428 0 17.1018 0 4.53785C0 1.56944 1.44943 0.096738 4.3936 0.096738C17.4159 0.096738 30.4381 0.096738 43.4604 0.096738C43.8001 0.096738 44.1851 0.00469426 44.4569 0.165771C44.7286 0.303836 45.0683 0.695022 45.0683 0.971153C45.0683 1.24728 44.7286 1.63847 44.4569 1.75352C44.0945 1.89159 43.6415 1.84557 43.2339 1.84557C30.3928 1.84557 17.5517 1.84557 4.73331 1.84557C2.28739 1.84557 1.7212 2.42084 1.7212 4.88301C1.7212 6.30969 1.7212 7.71335 1.7212 9.23207C19.9297 9.23207 38.0476 9.23207 56.2561 9.23207C56.2561 7.36819 56.3241 5.55033 56.2335 3.70945C56.1882 2.5359 55.3503 1.89159 54.0367 1.84557C52.4514 1.79955 50.8661 1.84557 49.2807 1.82256C48.9863 1.82256 48.624 1.9146 48.3975 1.79955C48.0125 1.59245 47.7181 1.22427 47.401 0.948142C47.7407 0.672011 48.0804 0.165771 48.4201 0.14276C50.4584 0.073727 52.4967 0.0507161 54.5349 0.14276C56.4147 0.234804 57.8868 1.82256 58 3.75548C58.0453 4.51484 58.0226 5.29721 58.0226 6.05657C58.0226 18.1143 58.0226 30.149 58.0226 42.2067C58.0226 45.2442 56.5959 46.7169 53.5838 46.7399C50.0734 46.7399 46.5631 46.7399 43.0527 46.7399C42.6451 46.7399 42.2374 46.7399 41.8298 46.7399C41.7845 46.97 41.7165 47.085 41.7392 47.1771C41.875 49.6393 41.3089 50.0535 39.1121 49.133C38.0476 48.6728 36.9832 48.2126 35.8735 47.7294C34.9676 49.2021 35.8508 51.9404 32.9067 51.7563C32.9067 53.0219 33.7446 53.6432 34.6958 53.6662C36.4397 53.6892 38.3647 53.8733 39.9047 53.206C45.5666 50.7438 49.4846 52.6767 53.1987 57.0488C53.4705 57.3709 53.6064 58.0382 53.4479 58.3834C53.2893 58.7286 52.7005 58.8896 52.2929 59.0737C52.1343 59.1428 51.9305 59.0967 51.7267 59.0967C36.5982 59.0967 21.4471 59.0967 6.31862 59.0737C5.82038 59.0737 5.16361 59.0047 4.86919 58.7056C4.59742 58.4294 4.52948 57.578 4.73331 57.3019C7.22452 54.2645 10.0781 51.8483 14.3132 52.1705C14.6076 52.1935 14.9926 52.1705 15.1738 52.3545C15.4682 52.6077 15.6494 53.0219 15.8758 53.367C15.5361 53.5971 15.1285 54.0574 14.8567 53.9883C11.8446 53.39 9.6025 54.8397 7.51894 56.7496C7.33776 56.7726 7.24717 56.9337 6.95275 57.2559ZM1.69856 11.096C1.69856 11.6482 1.69856 12.0624 1.69856 12.4766C1.69856 21.4509 1.69856 30.4251 1.69856 39.3994C1.69856 40.5499 1.67591 41.7005 1.7212 42.851C1.78914 44.1857 2.5818 44.968 3.89535 44.9911C7.90394 45.0141 11.8899 45.0141 15.8985 44.968C16.1929 44.968 16.5326 44.7149 16.7591 44.4618C17.4159 43.7254 17.9141 42.805 18.6615 42.2297C20.1335 41.1252 20.9488 39.9056 20.1788 38.0187C20.0656 37.7426 20.0882 37.4205 20.0203 37.1213C18.435 28.078 21.4471 20.6225 27.7657 14.3635C28.8075 13.328 29.2151 13.351 30.2569 14.3635C33.3596 17.3779 35.715 20.8986 37.1644 25.0176C38.7724 29.5967 38.6138 34.291 37.6626 38.9622C37.4588 40.0207 37.572 40.711 38.4326 41.4244C39.3838 42.2067 40.335 43.1042 40.9691 44.1396C41.4221 44.853 41.8524 45.0141 42.5771 45.0141C46.2007 44.9911 49.8243 45.0141 53.4479 45.0141C55.6447 45.0141 56.3014 44.3467 56.3014 42.1607C56.3014 32.22 56.3014 22.3023 56.3014 12.3616C56.3014 11.9474 56.2561 11.5562 56.2335 11.119C38.025 11.096 19.9524 11.096 1.69856 11.096ZM34.6279 45.8885C35.2846 41.9076 36.1226 37.9497 36.5529 33.9688C37.0285 29.5967 36.0547 25.4318 33.7446 21.658C33.5182 21.2668 32.884 20.9216 32.4311 20.8986C30.7099 20.8066 28.9434 21.0597 27.2448 20.8066C25.0933 20.5074 24.0968 21.5199 23.2815 23.3608C21.4471 27.4797 20.9715 31.7598 21.6283 36.1549C22.1265 39.4224 22.8739 42.6439 23.508 45.8655C27.2675 45.8885 30.7552 45.8885 34.6279 45.8885ZM33.8352 47.7524C30.6193 47.7524 27.4034 47.7524 24.1421 47.7524C24.1874 48.0515 24.2327 48.2816 24.2554 48.5117C24.3007 49.6853 24.8216 50.1225 26.0445 50.0304C27.879 49.9154 29.736 50.0074 31.5705 50.0074C33.6314 49.9844 33.6314 49.9844 33.8352 47.7524ZM25.7954 19.1038C28.0601 19.1038 29.9852 19.1038 32.2046 19.1038C31.0722 17.7921 30.0984 16.6646 28.9887 15.399C27.9016 16.6646 26.9278 17.7921 25.7954 19.1038ZM20.9715 42.4829C19.3409 43.8405 17.6423 45.0141 18.1406 47.5453C18.4576 47.4302 18.7294 47.3152 19.0012 47.2001C22.0812 45.8885 22.0812 45.8885 20.9715 42.4829ZM39.8821 47.5453C40.335 44.945 38.6365 43.7945 37.0059 42.4368C36.7341 43.4953 36.485 44.4388 36.3038 45.4052C36.2585 45.6123 36.4397 46.0265 36.6208 46.1186C37.6853 46.6478 38.795 47.085 39.8821 47.5453Z" fill="#FC7C04"/>
<path d="M21.6509 8.21954C20.1788 8.21954 19.0011 6.99996 19.0238 5.50425C19.0464 4.00854 20.2467 2.83499 21.7188 2.858C23.2362 2.88101 24.3233 4.03156 24.3006 5.57329C24.3006 7.11502 23.1909 8.21954 21.6509 8.21954ZM21.6282 6.88491C22.0812 6.28663 22.6247 5.91845 22.5794 5.61931C22.5115 5.22812 22.0132 4.90597 21.6962 4.56081C21.4017 4.88296 20.8808 5.15909 20.8356 5.50425C20.7903 5.84942 21.2432 6.2406 21.6282 6.88491Z" fill="#FC7C04"/>
<path d="M8.40201 2.85798C9.89674 2.85798 11.0518 4.00853 11.0744 5.52725C11.0744 7.04597 9.94204 8.19651 8.42466 8.21952C6.95258 8.24254 5.75227 7.04597 5.75227 5.55026C5.72962 4.07756 6.92993 2.83497 8.40201 2.85798ZM8.35672 4.19261C7.94907 4.83692 7.47347 5.25112 7.54141 5.55026C7.632 5.94144 8.17554 6.19456 8.51525 6.51672C8.78702 6.17155 9.26262 5.82639 9.28526 5.48122C9.28526 5.11305 8.80967 4.76789 8.35672 4.19261Z" fill="#FC7C04"/>
<path d="M15.0829 8.21945C13.5881 8.24247 12.4331 7.09192 12.4105 5.5732C12.3878 4.05448 13.5429 2.85791 15.0149 2.85791C16.5323 2.85791 17.6647 3.98545 17.6647 5.52718C17.6873 7.0459 16.6003 8.19644 15.0829 8.21945ZM15.0602 6.88482C15.4905 6.28654 15.9661 5.91836 15.9435 5.5732C15.9208 5.22803 15.3999 4.90588 15.1055 4.58373C14.7658 4.90588 14.2449 5.20502 14.177 5.59621C14.109 5.87234 14.6299 6.28654 15.0602 6.88482Z" fill="#FC7C04"/>
<path d="M10.984 18.0912C9.39867 18.0912 7.81335 18.0912 6.22803 18.0912C5.6392 18.0912 5.02772 18.0682 4.98242 17.2628C4.98242 16.4804 5.57125 16.4114 6.18273 16.4114C9.46661 16.4114 12.7505 16.4114 16.0344 16.4114C16.6458 16.4114 17.2347 16.5034 17.212 17.2858C17.1894 18.0682 16.5779 18.1142 15.9664 18.1142C14.3132 18.0912 12.6599 18.0912 10.984 18.0912Z" fill="#FC7C04"/>
<path d="M9.62514 21.796C8.42483 21.796 7.22451 21.865 6.0242 21.7499C5.66184 21.7499 5.32213 21.2897 4.98242 21.0136C5.32213 20.7145 5.66184 20.1622 6.0242 20.1392C8.42483 20.0701 10.8255 20.0701 13.2261 20.1392C13.5658 20.1392 13.8829 20.6684 14.2226 20.9446C13.8829 21.2207 13.5658 21.7269 13.2034 21.7499C12.0484 21.865 10.8255 21.796 9.62514 21.796Z" fill="#FC7C04"/>
<path d="M49.5295 21.2898C50.3674 21.2898 51.2054 21.1978 52.0207 21.3358C52.383 21.3819 52.7001 21.8651 53.0172 22.1642C52.7001 22.4634 52.383 22.9926 52.0433 23.0156C50.3448 23.1077 48.6462 23.1077 46.9477 23.0156C46.6079 22.9926 46.2909 22.4864 45.9512 22.1872C46.3135 21.8881 46.6532 21.4049 47.0382 21.3358C47.8536 21.1978 48.6915 21.2898 49.5295 21.2898Z" fill="#FC7C04"/>
<path d="M49.4162 26.7892C48.6236 26.7892 47.8083 26.8813 47.0382 26.7432C46.6306 26.6742 46.3135 26.191 45.9512 25.8918C46.2909 25.5927 46.6079 25.0864 46.9477 25.0634C48.6462 24.9714 50.3448 24.9714 52.0433 25.0634C52.383 25.0864 52.7001 25.6157 53.0172 25.9148C52.6775 26.191 52.383 26.6742 52.0207 26.7432C51.1601 26.8813 50.2768 26.7892 49.4162 26.7892Z" fill="#FC7C04"/>
<path d="M49.4853 30.517C48.6247 30.517 47.7415 30.6091 46.8809 30.471C46.5412 30.425 46.2468 29.9188 45.9297 29.6196C46.2241 29.3435 46.5412 28.8603 46.8356 28.8603C48.5568 28.7912 50.3006 28.7682 52.0218 28.8603C52.3615 28.8833 52.656 29.4125 52.973 29.7117C52.656 29.9878 52.3842 30.425 52.0445 30.471C51.2292 30.5861 50.3459 30.517 49.4853 30.517Z" fill="#FC7C04"/>
<path d="M8.2663 27.7788C9.01366 27.7788 9.78367 27.6868 10.5084 27.8249C10.8255 27.8709 11.3237 28.3541 11.3237 28.6532C11.3237 28.9524 10.8255 29.4816 10.531 29.5047C8.99101 29.5967 7.45099 29.5967 5.91097 29.5047C5.5939 29.4816 5.27684 28.9294 4.98242 28.6072C5.27684 28.3311 5.57125 27.8709 5.91097 27.8249C6.68098 27.6868 7.47364 27.7788 8.2663 27.7788Z" fill="#FC7C04"/>
<path d="M33.3361 32.9333C33.3361 35.3495 31.3884 37.3284 29.0104 37.3284C26.6324 37.3284 24.6848 35.3495 24.6621 32.9563C24.6621 30.4021 26.5192 28.4692 28.9878 28.4692C31.4563 28.4462 33.3361 30.3791 33.3361 32.9333ZM28.9878 35.5566C30.4825 35.5566 31.6375 34.383 31.6602 32.8873C31.6828 31.4146 30.4825 30.218 28.9878 30.218C27.5157 30.218 26.3154 31.4146 26.3154 32.8873C26.338 34.383 27.5157 35.5566 28.9878 35.5566Z" fill="#FC7C04"/>
</g>
<defs>
<clipPath id="clip0_30_429">
<rect width="58" height="59" fill="white" transform="translate(0 0.0737305)"/>
</clipPath>
</defs>
</svg>
