<svg width="50" height="44" viewBox="0 0 50 44" fill="none" xmlns="http://www.w3.org/2000/svg">
<g clip-path="url(#clip0_103_166)">
<path d="M24.7886 0C11.3726 0 0.512573 9.8516 0.512573 22.0035C0.512573 34.1559 11.3726 44 24.7886 44C38.2046 44 49.0797 34.1559 49.0797 22.0031C49.0793 9.8516 38.2041 0 24.7886 0ZM24.7998 29.9226C19.9716 29.9226 16.0566 26.3767 16.0566 22.0026C16.0566 17.6286 19.9716 14.0826 24.7998 14.0826C29.6285 14.0826 33.543 17.6286 33.543 22.0026C33.543 26.3767 29.6285 29.9226 24.7998 29.9226Z" fill="#EAB39C"/>
<path d="M45.7152 16.3311C44.1876 15.1074 42.9334 12.5849 42.9174 10.7316C42.9023 8.87836 41.2431 7.13112 39.2389 6.85436C37.228 6.57672 34.6764 5.07896 33.566 3.52444C32.4518 1.96992 30.0294 1.31872 28.1724 2.07992C26.3184 2.8376 23.2835 2.8376 21.429 2.07992C19.5749 1.31872 17.1477 1.96992 16.0368 3.52444C14.9264 5.07896 12.3729 6.57716 10.3625 6.85436C8.35446 7.13156 6.69859 8.87836 6.68304 10.7316C6.6675 12.5849 5.4075 15.1074 3.88181 16.3311C2.35612 17.5582 1.99619 19.8462 3.08132 21.4113C4.16985 22.9799 4.60215 25.7229 4.04356 27.5088C3.48448 29.2908 4.53609 31.3896 6.37897 32.1759C8.21991 32.9587 10.2085 35.054 10.7948 36.8294C11.3811 38.6043 13.51 39.8535 15.522 39.6044C17.5339 39.3554 20.4463 40.1346 21.9929 41.3402C23.5376 42.5423 26.0658 42.5423 27.61 41.3402C29.1546 40.1338 32.0666 39.355 34.0804 39.6044C36.0943 39.8535 38.2208 38.6052 38.81 36.8294C39.3939 35.054 41.383 32.9587 43.222 32.1759C45.0687 31.3896 46.1203 29.2904 45.5593 27.5088C44.9983 25.7229 45.4345 22.9799 46.5177 21.4113C47.6009 19.8458 47.2424 17.5582 45.7152 16.3311ZM24.8 28.9828C20.5785 28.9828 17.156 25.8571 17.156 22.0018C17.156 18.1465 20.5785 15.0212 24.8 15.0212C29.022 15.0212 32.445 18.1465 32.445 22.0018C32.445 25.8571 29.0225 28.9828 24.8 28.9828Z" fill="#955BA5"/>
<path d="M17.4119 14.1517L15.111 12.5321C15.0356 12.4773 14.9489 12.4367 14.856 12.4125C14.7631 12.3883 14.6659 12.3812 14.5699 12.3914C14.4739 12.4016 14.3811 12.4291 14.2969 12.4721C14.2128 12.5151 14.1389 12.5729 14.0796 12.642C14.0203 12.7112 13.9768 12.7903 13.9516 12.8748C13.9264 12.9594 13.92 13.0476 13.9329 13.1344C13.9457 13.2211 13.9774 13.3047 14.0262 13.3803C14.075 13.4558 14.14 13.5218 14.2172 13.5745L16.5186 15.1941C16.5939 15.2499 16.6807 15.2915 16.774 15.3164C16.8673 15.3413 16.9652 15.349 17.0618 15.3391C17.1584 15.3292 17.2519 15.3019 17.3367 15.2588C17.4215 15.2157 17.4959 15.1576 17.5556 15.088C17.6152 15.0184 17.6589 14.9387 17.684 14.8536C17.7091 14.7685 17.7151 14.6797 17.7017 14.5924C17.6883 14.5052 17.6558 14.4212 17.606 14.3455C17.5562 14.2698 17.4902 14.2039 17.4119 14.1517ZM40.0496 26.4269C39.9016 26.3143 39.7104 26.2596 39.5179 26.2748C39.3254 26.29 39.1475 26.3738 39.0232 26.5078L37.1488 28.5301C37.0873 28.5965 37.0408 28.6732 37.0121 28.7559C36.9833 28.8386 36.9728 28.9256 36.9812 29.0119C36.9896 29.0983 37.0166 29.1823 37.0608 29.2592C37.1051 29.3361 37.1655 29.4043 37.2389 29.46C37.3122 29.5157 37.3969 29.5578 37.4882 29.5838C37.5795 29.6099 37.6755 29.6194 37.7708 29.6118C37.8662 29.6042 37.9589 29.5797 38.0438 29.5396C38.1287 29.4996 38.204 29.4448 38.2655 29.3784L40.139 27.3566C40.2632 27.2225 40.3235 27.0493 40.3068 26.8749C40.29 26.7006 40.1975 26.5394 40.0496 26.4269ZM39.3127 13.0011C39.3349 12.9169 39.3385 12.8294 39.3234 12.7439C39.3083 12.6583 39.2747 12.5763 39.2246 12.5025C39.1745 12.4287 39.1088 12.3646 39.0314 12.3138C38.9539 12.263 38.8661 12.2266 38.7731 12.2065L35.9378 11.5958C35.7498 11.5553 35.5518 11.5841 35.3872 11.6759C35.2226 11.7676 35.105 11.9148 35.0601 12.0851C35.0157 12.2553 35.0476 12.4345 35.1489 12.5835C35.2501 12.7324 35.4124 12.839 35.6002 12.8797L38.4355 13.4904C38.5285 13.5105 38.6251 13.5138 38.7195 13.5001C38.814 13.4863 38.9046 13.4559 38.986 13.4105C39.0675 13.365 39.1383 13.3055 39.1943 13.2352C39.2504 13.165 39.2906 13.0855 39.3127 13.0011ZM16.695 33.3001L13.799 33.5949C13.7019 33.6022 13.6074 33.6272 13.5211 33.6682C13.4349 33.7092 13.3585 33.7654 13.2967 33.8336C13.2348 33.9018 13.1887 33.9806 13.161 34.0652C13.1334 34.1498 13.1247 34.2386 13.1356 34.3263C13.1465 34.414 13.1767 34.4989 13.2244 34.5758C13.2721 34.6528 13.3364 34.7203 13.4134 34.7743C13.4904 34.8284 13.5787 34.8679 13.6728 34.8905C13.767 34.9132 13.8653 34.9185 13.9617 34.9061L16.8577 34.6113C16.9548 34.604 17.0493 34.579 17.1356 34.538C17.2218 34.497 17.2982 34.4408 17.36 34.3726C17.4219 34.3044 17.468 34.2256 17.4957 34.141C17.5233 34.0564 17.532 33.9676 17.5211 33.8799C17.5102 33.7921 17.48 33.7073 17.4323 33.6304C17.3846 33.5534 17.3203 33.4859 17.2433 33.4318C17.1662 33.3778 17.078 33.3383 16.9839 33.3156C16.8897 33.293 16.7914 33.2877 16.695 33.3001Z" fill="#F29C1F"/>
<path d="M8.77042 23.3227C8.5127 23.3228 8.26557 23.4156 8.08339 23.5807C7.9012 23.7458 7.79889 23.9697 7.79895 24.2032C7.79901 24.4366 7.90145 24.6605 8.08373 24.8255C8.26601 24.9906 8.51319 25.0832 8.77091 25.0832C8.89851 25.0831 9.02486 25.0604 9.14274 25.0161C9.26063 24.9718 9.36773 24.907 9.45794 24.8252C9.54815 24.7435 9.6197 24.6464 9.6685 24.5396C9.7173 24.4328 9.74241 24.3183 9.74237 24.2027C9.74234 24.0871 9.71718 23.9727 9.66831 23.8659C9.61945 23.7591 9.54785 23.6621 9.45759 23.5804C9.36734 23.4987 9.2602 23.4339 9.1423 23.3897C9.02439 23.3454 8.89803 23.3227 8.77042 23.3227ZM42.2861 22.0032C42.0284 22.0032 41.7813 22.096 41.5991 22.2611C41.4169 22.4263 41.3146 22.6502 41.3146 22.8836C41.3147 23.1171 41.4171 23.3409 41.5994 23.506C41.7817 23.671 42.0289 23.7637 42.2866 23.7636C42.5443 23.7636 42.7914 23.6708 42.9736 23.5057C43.1558 23.3405 43.2581 23.1166 43.2581 22.8832C43.258 22.6497 43.1556 22.4259 42.9733 22.2608C42.791 22.0958 42.5438 22.0031 42.2861 22.0032Z" fill="#FFC60A"/>
<path d="M39.2793 19.1215C39.1483 18.9928 38.9663 18.9165 38.7732 18.9093C38.5801 18.9022 38.3918 18.9647 38.2496 19.0833L36.106 20.8719C35.9705 20.9919 35.8919 21.1551 35.887 21.3268C35.882 21.4985 35.9511 21.6652 36.0796 21.7915C36.208 21.9178 36.3857 21.9938 36.575 22.0034C36.7643 22.013 36.9503 21.9555 37.0935 21.8429L39.2371 20.0543C39.3075 19.9956 39.3644 19.9249 39.4046 19.8462C39.4449 19.7676 39.4676 19.6825 39.4715 19.5959C39.4754 19.5093 39.4605 19.4228 39.4275 19.3414C39.3945 19.26 39.3442 19.1853 39.2793 19.1215ZM9.31336 15.4101C9.12084 15.425 8.94273 15.5086 8.8182 15.6424C8.69368 15.7763 8.63295 15.9494 8.64936 16.1238L8.89757 18.7546C8.90318 18.8426 8.92821 18.9288 8.97119 19.0079C9.01417 19.0871 9.07423 19.1576 9.14781 19.2154C9.2214 19.2731 9.30702 19.317 9.39962 19.3442C9.49221 19.3715 9.58991 19.3817 9.68692 19.3742C9.78394 19.3667 9.87832 19.3417 9.96447 19.3006C10.0506 19.2595 10.1268 19.2031 10.1885 19.1349C10.2502 19.0667 10.2962 18.988 10.3238 18.9034C10.3513 18.8188 10.3599 18.73 10.3489 18.6424L10.1012 16.0116C10.0848 15.8372 9.99255 15.6759 9.8448 15.5631C9.69705 15.4503 9.50589 15.3953 9.31336 15.4101ZM19.9422 35.6427C19.8146 35.6427 19.6883 35.6655 19.5704 35.7098C19.4525 35.754 19.3454 35.8189 19.2552 35.9006C19.165 35.9824 19.0934 36.0794 19.0446 36.1862C18.9958 36.293 18.9707 36.4075 18.9707 36.5231C18.9708 36.6387 18.9959 36.7532 19.0448 36.8599C19.0937 36.9667 19.1653 37.0637 19.2555 37.1455C19.3458 37.2272 19.4529 37.292 19.5708 37.3362C19.6887 37.3804 19.8151 37.4031 19.9427 37.4031C20.2004 37.4031 20.4475 37.3103 20.6297 37.1451C20.8119 36.98 20.9142 36.7561 20.9142 36.5227C20.9141 36.2892 20.8117 36.0654 20.6294 35.9003C20.4471 35.7353 20.1999 35.6426 19.9422 35.6427ZM21.8851 9.68311C21.7575 9.68313 21.6312 9.70593 21.5133 9.75019C21.3954 9.79445 21.2883 9.85932 21.1981 9.94107C21.1079 10.0228 21.0364 10.1199 20.9876 10.2267C20.9388 10.3335 20.9136 10.448 20.9137 10.5635C20.9137 10.6791 20.9389 10.7936 20.9877 10.9004C21.0366 11.0072 21.1082 11.1042 21.1985 11.1859C21.2887 11.2676 21.3959 11.3324 21.5138 11.3766C21.6317 11.4208 21.758 11.4436 21.8856 11.4435C22.1433 11.4435 22.3905 11.3507 22.5727 11.1856C22.7549 11.0205 22.8572 10.7966 22.8571 10.5631C22.857 10.3297 22.7546 10.1058 22.5723 9.94076C22.39 9.77573 22.1429 9.68305 21.8851 9.68311Z" fill="#56C1A6"/>
<path d="M12.7932 26.9477L10.9188 28.97C10.7946 29.1041 10.7343 29.2774 10.7512 29.4518C10.7681 29.6262 10.8608 29.7874 11.0089 29.8999C11.157 30.0124 11.3483 30.067 11.5408 30.0517C11.7334 30.0364 11.9113 29.9524 12.0355 29.8183L13.909 27.7965C13.9725 27.7304 14.0208 27.6534 14.0511 27.5702C14.0815 27.487 14.0932 27.3991 14.0857 27.3118C14.0781 27.2244 14.0514 27.1392 14.0072 27.0613C13.9629 26.9834 13.9019 26.9142 13.8278 26.8579C13.7537 26.8015 13.668 26.7591 13.5756 26.733C13.4832 26.707 13.386 26.6979 13.2897 26.7063C13.1934 26.7146 13.0999 26.7403 13.0147 26.7818C12.9294 26.8232 12.8541 26.8796 12.7932 26.9477ZM26.2729 8.89981C26.3519 8.85108 26.4196 8.78871 26.4721 8.71628C26.5246 8.64384 26.5608 8.56275 26.5786 8.47764C26.5965 8.39253 26.5957 8.30507 26.5762 8.22024C26.5567 8.13542 26.519 8.0549 26.4652 7.98329L24.8254 5.80089C24.7142 5.66157 24.5474 5.567 24.3605 5.53729C24.1736 5.50757 23.9813 5.54505 23.8244 5.64175C23.6674 5.73844 23.5584 5.88675 23.5202 6.05515C23.4821 6.22356 23.518 6.39878 23.6203 6.54361L25.2596 8.72601C25.3688 8.8705 25.5367 8.96993 25.7266 9.0025C25.9165 9.03508 26.1129 8.99815 26.2729 8.89981ZM25.7716 35.6426C25.644 35.6426 25.5176 35.6654 25.3997 35.7097C25.2818 35.7539 25.1747 35.8188 25.0845 35.9005C24.9943 35.9823 24.9228 36.0793 24.874 36.1861C24.8252 36.2929 24.8001 36.4074 24.8001 36.523C24.8001 36.6386 24.8253 36.7531 24.8742 36.8598C24.923 36.9666 24.9946 37.0636 25.0849 37.1453C25.1751 37.2271 25.2823 37.2919 25.4002 37.3361C25.5181 37.3803 25.6444 37.403 25.7721 37.403C26.0298 37.4029 26.2769 37.3102 26.4591 37.145C26.6413 36.9799 26.7436 36.756 26.7435 36.5226C26.7435 36.2891 26.641 36.0653 26.4587 35.9002C26.2765 35.7352 26.0293 35.6425 25.7716 35.6426ZM17.0283 29.0426C16.7706 29.0426 16.5235 29.1354 16.3413 29.3005C16.1591 29.4656 16.0568 29.6896 16.0569 29.923C16.0569 30.1565 16.1594 30.3803 16.3417 30.5453C16.5239 30.7104 16.7711 30.8031 17.0288 30.803C17.2865 30.8029 17.5337 30.7102 17.7159 30.545C17.898 30.3799 18.0004 30.156 18.0003 29.9226C18.0002 29.6891 17.8978 29.4653 17.7155 29.3002C17.5332 29.1352 17.2861 29.0425 17.0283 29.0426ZM16.5426 8.80301C16.5426 8.68741 16.5174 8.57296 16.4685 8.46618C16.4197 8.3594 16.3481 8.26238 16.2578 8.18066C16.1676 8.09895 16.0604 8.03413 15.9425 7.98992C15.8246 7.94572 15.6983 7.92298 15.5707 7.92301C15.443 7.92304 15.3167 7.94583 15.1988 7.99009C15.0809 8.03435 14.9738 8.09922 14.8836 8.18097C14.7934 8.26273 14.7219 8.35978 14.6731 8.46658C14.6243 8.57339 14.5992 8.68785 14.5992 8.80345C14.5992 9.03684 14.7017 9.26065 14.8839 9.42564C15.0661 9.59063 15.3132 9.68328 15.5709 9.68323C15.8285 9.68317 16.0756 9.5904 16.2578 9.42532C16.4399 9.26025 16.5422 9.0364 16.5421 8.80301H16.5426ZM35.972 15.403C35.8444 15.403 35.718 15.4258 35.6002 15.4701C35.4823 15.5144 35.3752 15.5792 35.285 15.661C35.1948 15.7427 35.1232 15.8398 35.0744 15.9466C35.0256 16.0534 35.0005 16.1679 35.0005 16.2834C35.0006 16.399 35.0257 16.5135 35.0746 16.6203C35.1235 16.7271 35.1951 16.8241 35.2853 16.9058C35.3756 16.9875 35.4827 17.0523 35.6006 17.0965C35.7185 17.1407 35.8449 17.1635 35.9725 17.1634C36.2302 17.1634 36.4773 17.0706 36.6595 16.9055C36.8417 16.7404 36.944 16.5165 36.944 16.283C36.9439 16.0496 36.8415 15.8257 36.6592 15.6607C36.4769 15.4956 36.2297 15.4029 35.972 15.403Z" fill="#FBF063"/>
<path d="M35.9719 33.4425C35.7142 33.4426 35.4671 33.5354 35.2849 33.7005C35.1027 33.8656 35.0004 34.0895 35.0005 34.323C35.0005 34.5564 35.103 34.7803 35.2852 34.9453C35.4675 35.1104 35.7147 35.2031 35.9724 35.203C36.1 35.203 36.2264 35.1802 36.3442 35.1359C36.4621 35.0916 36.5692 35.0268 36.6594 34.945C36.7497 34.8633 36.8212 34.7662 36.87 34.6594C36.9188 34.5526 36.9439 34.4381 36.9439 34.3225C36.9438 34.207 36.9187 34.0925 36.8698 33.9857C36.821 33.8789 36.7494 33.7819 36.6591 33.7002C36.5688 33.6185 36.4617 33.5537 36.3438 33.5095C36.2259 33.4653 36.0995 33.4425 35.9719 33.4425ZM29.6574 10.563C29.3997 10.563 29.1526 10.6557 28.9705 10.8207C28.7883 10.9858 28.6859 11.2096 28.6859 11.443C28.6859 11.6764 28.7883 11.9002 28.9705 12.0652C29.1526 12.2303 29.3997 12.323 29.6574 12.323C29.915 12.323 30.1621 12.2303 30.3443 12.0652C30.5265 11.9002 30.6288 11.6764 30.6288 11.443C30.6288 11.2096 30.5265 10.9858 30.3443 10.8207C30.1621 10.6557 29.915 10.563 29.6574 10.563Z" fill="#F57E20"/>
<path d="M30.8505 32.6057C30.8317 32.5201 30.7939 32.4389 30.7396 32.3669C30.6852 32.2948 30.6153 32.2335 30.534 32.1866C30.4528 32.1397 30.3619 32.1082 30.2669 32.0939C30.1719 32.0797 30.0746 32.083 29.981 32.1037C29.7885 32.145 29.621 32.2521 29.5134 32.4026C29.4059 32.5531 29.3667 32.7354 29.404 32.9115L29.9878 35.5299C30.0066 35.6156 30.0443 35.6968 30.0987 35.7689C30.153 35.841 30.2229 35.9024 30.3042 35.9493C30.3854 35.9962 30.4763 36.0278 30.5713 36.0421C30.6664 36.0564 30.7637 36.0531 30.8573 36.0324C31.0498 35.9912 31.2173 35.8841 31.3248 35.7337C31.4324 35.5833 31.4716 35.401 31.4343 35.225L30.8505 32.6057ZM34.5144 27.2826C34.3868 27.2826 34.2604 27.3054 34.1426 27.3497C34.0247 27.3939 33.9176 27.4588 33.8274 27.5405C33.7372 27.6223 33.6656 27.7194 33.6168 27.8262C33.568 27.933 33.5429 28.0474 33.5429 28.163C33.543 28.2786 33.5681 28.3931 33.617 28.4999C33.6658 28.6066 33.7374 28.7036 33.8277 28.7854C33.918 28.8671 34.0251 28.9319 34.143 28.9761C34.2609 29.0203 34.3873 29.0431 34.5149 29.043C34.7726 29.043 35.0197 28.9502 35.2019 28.7851C35.3841 28.6199 35.4864 28.396 35.4863 28.1626C35.4863 27.9291 35.3838 27.7053 35.2016 27.5402C35.0193 27.3752 34.7721 27.2825 34.5144 27.2826ZM13.1421 20.243C13.0145 20.2431 12.8881 20.2658 12.7702 20.3101C12.6523 20.3544 12.5452 20.4192 12.455 20.501C12.3648 20.5827 12.2933 20.6798 12.2445 20.7866C12.1957 20.8934 12.1706 21.0079 12.1706 21.1235C12.1706 21.2391 12.1958 21.3535 12.2447 21.4603C12.2935 21.5671 12.3651 21.6641 12.4554 21.7458C12.5456 21.8275 12.6528 21.8923 12.7707 21.9365C12.8886 21.9808 13.0149 22.0035 13.1425 22.0035C13.4003 22.0034 13.6474 21.9106 13.8296 21.7455C14.0118 21.5804 14.1141 21.3565 14.114 21.123C14.114 20.8896 14.0115 20.6657 13.8292 20.5007C13.647 20.3356 13.3998 20.243 13.1421 20.243ZM22.8568 32.1226C22.599 32.1226 22.3519 32.2154 22.1697 32.3805C21.9875 32.5457 21.8852 32.7696 21.8853 33.003C21.8854 33.2365 21.9878 33.4603 22.1701 33.6254C22.3523 33.7904 22.5995 33.8831 22.8572 33.883C23.115 33.883 23.3621 33.7902 23.5443 33.6251C23.7265 33.4599 23.8288 33.236 23.8287 33.0026C23.8286 32.7691 23.7262 32.5453 23.5439 32.3802C23.3617 32.2152 23.1145 32.1225 22.8568 32.1226ZM32.0857 6.60303C31.9581 6.60306 31.8318 6.62585 31.7139 6.67011C31.596 6.71438 31.4889 6.77924 31.3987 6.86099C31.3085 6.94275 31.2369 7.0398 31.1881 7.1466C31.1393 7.25341 31.1142 7.36787 31.1143 7.48347C31.1143 7.59906 31.1394 7.71351 31.1883 7.8203C31.2372 7.92708 31.3088 8.0241 31.399 8.10581C31.4893 8.18753 31.5964 8.25234 31.7143 8.29655C31.8322 8.34076 31.9586 8.3635 32.0862 8.36347C32.3439 8.36341 32.5911 8.27062 32.7732 8.1055C32.9554 7.94039 33.0577 7.71648 33.0577 7.48303C33.0576 7.24958 32.9552 7.02571 32.7729 6.86068C32.5906 6.69565 32.3434 6.60297 32.0857 6.60303ZM42.2861 16.723C42.0284 16.7231 41.7813 16.8159 41.5991 16.981C41.4169 17.1461 41.3146 17.37 41.3147 17.6035C41.3147 17.8369 41.4172 18.0608 41.5995 18.2258C41.7817 18.3908 42.0289 18.4835 42.2866 18.4835C42.5443 18.4834 42.7915 18.3906 42.9737 18.2255C43.1559 18.0604 43.2582 17.8365 43.2581 17.603C43.258 17.3696 43.1556 17.1457 42.9733 16.9807C42.791 16.8156 42.5439 16.723 42.2861 16.723Z" fill="#6AC9F2"/>
<path d="M25.7601 43.12C12.3441 43.12 1.48404 33.2759 1.48404 21.1235C1.48404 15.2676 4.01084 9.94972 8.12549 6.00732C3.43961 10.0192 0.512573 15.6996 0.512573 22.0035C0.512573 34.1559 11.3726 44 24.7886 44C31.7453 44 38.0147 41.3486 42.4436 37.1043C38.0914 40.8316 32.2228 43.12 25.7601 43.12Z" fill="#D3896D"/>
<path d="M32.9312 21.5618C32.9312 17.7066 29.5088 14.5812 25.2863 14.5812C23.0626 14.5812 21.0667 15.4538 19.6702 16.8376C21.0273 15.7125 22.8236 15.0212 24.8005 15.0212C29.0225 15.0212 32.4455 18.1466 32.4455 22.0018C32.4455 23.8265 31.6727 25.4827 30.4176 26.7261C31.2103 26.0713 31.8434 25.2736 32.2763 24.3844C32.7091 23.4951 32.9322 22.5337 32.9312 21.5618ZM4.36956 15.8911C5.89477 14.6675 7.15428 12.145 7.17079 10.2917C7.17905 9.36592 7.59532 8.467 8.26078 7.76432C7.31943 8.50616 6.69428 9.5978 6.68506 10.7317C6.67146 12.4041 5.64267 14.6186 4.32099 15.9347L4.36956 15.8911ZM16.5241 3.08404C16.6154 2.95644 16.7179 2.8372 16.8262 2.72192C16.5212 2.95244 16.2556 3.22277 16.0384 3.52404C15.8437 3.79159 15.6241 4.0436 15.3821 4.27732C15.8382 3.89716 16.2322 3.4928 16.5241 3.08404ZM43.7082 31.736C42.8971 32.0814 42.0582 32.6815 41.3223 33.397C41.9309 32.8782 42.5852 32.4474 43.2225 32.176C43.7495 31.9516 44.2081 31.6176 44.5874 31.2176C44.321 31.4249 44.0254 31.5992 43.7082 31.736ZM34.5667 39.1645C32.5529 38.9154 29.6399 39.6947 28.0962 40.9003C26.5516 42.1024 24.0234 42.1024 22.4792 40.9003C20.9321 39.6938 18.0202 38.915 16.0082 39.1645C13.9963 39.414 11.8674 38.1652 11.2811 36.3894C10.6948 34.6136 8.7062 32.5187 6.86526 31.736C5.02239 30.9497 3.97029 28.8509 4.52985 27.0689C5.08845 25.2829 4.65614 22.54 3.56907 20.9714C2.56894 19.529 2.79966 17.4742 4.03537 16.2004L3.88382 16.3311C2.35813 17.5583 1.9982 19.8463 3.08333 21.4114C4.17041 22.98 4.60271 25.7229 4.04412 27.5089C3.48504 29.2909 4.53665 31.3897 6.37953 32.176C8.22046 32.9587 10.2091 35.054 10.7953 36.8294C11.3816 38.6044 13.5106 39.8535 15.5225 39.6045C17.5344 39.3554 20.4469 40.1347 21.9935 41.3403C23.5381 42.5424 26.0664 42.5424 27.6105 41.3403C29.1551 40.1338 32.0671 39.355 34.081 39.6045C35.5241 39.7822 37.0216 39.1904 37.9732 38.1881C37.0386 38.9168 35.783 39.315 34.5667 39.1645Z" fill="#854D9B"/>
</g>
<defs>
<clipPath id="clip0_103_166">
<rect width="48.5672" height="44" fill="white" transform="translate(0.512573)"/>
</clipPath>
</defs>
</svg>
