<svg width="50" height="44" viewBox="0 0 50 44" fill="none" xmlns="http://www.w3.org/2000/svg">
<g clip-path="url(#clip0_103_193)">
<path d="M7.58862 26.7361C7.58862 26.7361 9.7326 33.7358 10.2871 37.103C10.9132 40.9053 15.1054 43.912 25.129 43.912C35.1527 43.912 39.3449 40.9041 39.9709 37.103C40.5255 33.7358 42.6695 26.7361 42.6695 26.7361H7.58862Z" fill="#BBDDF5"/>
<path d="M7.71545 26.8511C8.05277 28.341 8.65184 29.2882 9.52886 28.7993C10.4059 28.3104 11.7551 28.5634 11.3423 29.5632C10.9631 30.4799 12.6497 30.9003 13.3662 30.365C14.0529 29.8529 15.4643 29.2882 15.6005 30.4407C15.7274 31.5102 17.1765 31.7974 17.8349 31.014C18.5096 30.2122 20.3648 30.5324 20.7021 31.5102C21.0394 32.488 22.8528 32.3511 23.3588 31.663C23.8378 31.0115 24.3208 30.5813 25.129 30.5813V30.5556C25.9386 30.5556 26.4203 31.0115 26.8993 31.663C27.4053 32.3499 29.2187 32.488 29.556 31.5102C29.8933 30.5324 31.7485 30.2122 32.4232 31.014C33.083 31.7974 34.5307 31.5102 34.6575 30.4407C34.7938 29.2882 36.2052 29.8516 36.8919 30.365C37.6084 30.9003 39.295 30.4799 38.9158 29.5632C38.5016 28.5634 39.8522 28.3104 40.7292 28.7993C41.6063 29.2882 42.2053 28.341 42.5426 26.8511H7.71545Z" fill="#662113"/>
<path d="M45.368 23.1844C45.368 17.1723 36.2861 12.2993 25.0845 12.2993C13.8816 12.2993 4.80103 17.1723 4.80103 23.1844C4.80103 28.0354 16.9444 30.5557 25.0845 30.5557C33.2246 30.5557 45.368 28.1112 45.368 23.1844Z" fill="#C1694F"/>
<path d="M25.129 43.3888C24.9501 43.3888 24.7785 43.3244 24.6519 43.2098C24.5254 43.0952 24.4544 42.9398 24.4544 42.7777V32.2104C24.4544 32.0483 24.5254 31.8928 24.6519 31.7782C24.7785 31.6636 24.9501 31.5992 25.129 31.5992C25.3079 31.5992 25.4795 31.6636 25.606 31.7782C25.7325 31.8928 25.8036 32.0483 25.8036 32.2104V42.7777C25.8036 42.9398 25.7325 43.0952 25.606 43.2098C25.4795 43.3244 25.3079 43.3888 25.129 43.3888ZM16.0903 41.839C15.9264 41.8388 15.7681 41.7846 15.645 41.6866C15.5219 41.5886 15.4423 41.4534 15.421 41.3061L14.0299 31.5504C14.0073 31.3895 14.056 31.2271 14.1652 31.0986C14.2744 30.9701 14.4354 30.886 14.6128 30.8647C14.7008 30.8539 14.7902 30.859 14.876 30.8798C14.9618 30.9006 15.0421 30.9366 15.1124 30.9857C15.1827 31.0348 15.2415 31.0961 15.2855 31.1659C15.3294 31.2358 15.3576 31.3129 15.3684 31.3927L16.7595 41.1485C16.7715 41.2346 16.7632 41.3222 16.7351 41.4052C16.707 41.4883 16.6598 41.565 16.5965 41.6303C16.5333 41.6955 16.4554 41.7479 16.3682 41.7839C16.2809 41.8199 16.1862 41.8387 16.0903 41.839ZM20.3796 43.0319C20.2103 43.0318 20.0473 42.9741 19.9228 42.8702C19.7983 42.7662 19.7215 42.6237 19.7076 42.4709L18.7524 32.0564C18.7451 31.9763 18.7553 31.8958 18.7824 31.8194C18.8095 31.7429 18.8529 31.6721 18.9102 31.6109C18.9676 31.5496 19.0376 31.4992 19.1165 31.4625C19.1953 31.4258 19.2813 31.4036 19.3696 31.397C19.458 31.3904 19.5469 31.3996 19.6313 31.4242C19.7156 31.4487 19.7939 31.4881 19.8615 31.54C19.9291 31.5919 19.9847 31.6554 20.0252 31.7268C20.0657 31.7982 20.0903 31.8761 20.0976 31.9561L21.0529 42.3707C21.0674 42.5321 21.0107 42.6921 20.895 42.8157C20.7794 42.9392 20.6144 43.0161 20.4362 43.0295L20.3796 43.0319ZM12.3393 39.3151C12.2226 39.315 12.1095 39.2782 12.0193 39.2112C11.929 39.1441 11.8672 39.0509 11.8441 38.9472L9.82024 29.8564C9.80706 29.7974 9.80683 29.7368 9.81957 29.6778C9.83231 29.6188 9.85777 29.5626 9.89449 29.5126C9.93121 29.4625 9.97847 29.4195 10.0336 29.386C10.0887 29.3525 10.1505 29.3292 10.2156 29.3174C10.4827 29.2587 10.7553 29.4274 10.8119 29.6755L12.8358 38.7664C12.8509 38.8329 12.8494 38.9017 12.8313 38.9677C12.8133 39.0337 12.7793 39.0952 12.7318 39.1478C12.6842 39.2004 12.6243 39.2427 12.5564 39.2716C12.4885 39.3006 12.4143 39.3154 12.3393 39.3151ZM34.0625 41.7009C33.9656 41.7011 33.8699 41.6824 33.7818 41.6461C33.6937 41.6098 33.6152 41.5568 33.5517 41.4906C33.4882 41.4244 33.4412 41.3466 33.4139 41.2624C33.3865 41.1783 33.3795 41.0898 33.3932 41.003L34.9179 31.3854C34.9456 31.2259 35.0409 31.0825 35.1835 30.9857C35.3261 30.8889 35.5048 30.8464 35.6816 30.8671C35.7693 30.8785 35.8537 30.9054 35.9299 30.9464C36.0061 30.9873 36.0727 31.0414 36.1258 31.1057C36.1789 31.1699 36.2176 31.243 36.2395 31.3208C36.2614 31.3985 36.2663 31.4795 36.2537 31.5589L34.729 41.1766C34.706 41.3219 34.6259 41.4549 34.5035 41.5512C34.3811 41.6475 34.2246 41.7006 34.0625 41.7009ZM29.958 43.0319L29.9013 43.0295C29.7232 43.0161 29.5581 42.9392 29.4425 42.8157C29.3269 42.6921 29.2702 42.5321 29.2847 42.3707L30.24 31.9561C30.2697 31.6188 30.634 31.3768 30.9672 31.3976C31.1454 31.411 31.3104 31.4879 31.426 31.6114C31.5416 31.7349 31.5984 31.895 31.5839 32.0564L30.6286 42.4709C30.615 42.6236 30.5385 42.7661 30.4143 42.8701C30.29 42.974 30.1271 43.0318 29.958 43.0319ZM38.0306 39.3652C37.9562 39.3654 37.8826 39.3506 37.8151 39.3219C37.7477 39.2933 37.6881 39.2514 37.6407 39.1994C37.5932 39.1475 37.559 39.0866 37.5406 39.0212C37.5222 38.9559 37.52 38.8876 37.5341 38.8214L39.4743 29.6804C39.4868 29.6213 39.5119 29.565 39.5483 29.5147C39.5847 29.4645 39.6317 29.4212 39.6866 29.3874C39.7414 29.3536 39.8031 29.3299 39.8681 29.3176C39.9331 29.3054 40.0001 29.3049 40.0653 29.3161C40.1305 29.3274 40.1927 29.3501 40.2481 29.3831C40.3036 29.4161 40.3514 29.4587 40.3888 29.5084C40.4261 29.5581 40.4523 29.614 40.4658 29.6728C40.4792 29.7317 40.4798 29.7924 40.4674 29.8515L38.5272 38.9925C38.5054 39.0973 38.4439 39.192 38.3532 39.2601C38.2625 39.3282 38.1484 39.3654 38.0306 39.3652Z" fill="#88C9F9"/>
<path d="M23.6609 -0.0134277C23.6609 -0.0134277 25.1276 1.38479 26.5956 1.41291C29.6557 1.47279 32.4716 3.02013 32.4716 5.69802C32.4716 5.69802 39.5701 5.69802 39.8157 11.4107C39.8157 11.4107 43.3979 11.4657 44.2183 17.1209C44.8309 21.3449 40.1192 27.1761 25.1289 27.1162C11.9129 27.0637 5.15174 22.8091 6.03956 17.1234C6.89499 11.6478 11.9142 11.4119 11.9142 11.4119C11.9142 11.4119 11.0561 4.27046 20.7236 4.27168C20.7236 4.27168 21.7032 1.41535 23.6609 -0.0134277Z" fill="#FFE8B6"/>
<path d="M25.0077 12.8383C28.9691 11.484 32.5946 9.03105 32.4731 5.69927C32.4731 4.65061 32.0319 3.78283 31.3236 3.10205C32.1911 6.53405 26.3974 10.4354 19.9911 11.0538C11.9751 11.8275 12.8926 7.54361 12.8926 7.54361L12.8832 7.55216C11.6918 9.42949 11.9158 11.4132 11.9158 11.4132C13.1369 14.3257 19.4393 14.7425 25.0077 12.8383Z" fill="#FFCC4D"/>
<path d="M39.8158 11.4119C39.8077 11.2371 39.7753 11.0844 39.7551 10.9206C39.5986 10.0931 39.1439 9.07991 38.7107 8.30746C38.4544 7.98357 38.171 7.69757 37.8607 7.44946C39.357 12.859 30.3548 19.3649 21.764 20.8719C10.5665 22.8348 6.03968 17.1258 6.03968 17.1258C5.57824 20.0775 7.19735 22.6368 10.6933 24.4298C24.4922 29.5252 39.9359 16.9804 39.8158 11.4119Z" fill="#FFCC4D"/>
<path d="M12.566 17.3569L10.9725 19.3296C10.7604 19.5904 10.443 19.7646 10.0895 19.8141C9.73609 19.8635 9.37539 19.7843 9.08627 19.5936C8.79831 19.4014 8.60601 19.1139 8.5514 18.7937C8.49679 18.4735 8.58431 18.1468 8.79483 17.8849L10.3883 15.9122C10.6004 15.6514 10.9179 15.4772 11.2713 15.4277C11.6248 15.3782 11.9855 15.4575 12.2746 15.6482C12.8737 16.0454 13.0045 16.8142 12.566 17.3569Z" fill="#DD2E44"/>
<path d="M20.9936 10.0063L18.3544 9.49423C18.0051 9.42564 17.6999 9.23449 17.5057 8.96261C17.3115 8.69073 17.2441 8.36024 17.3182 8.04345C17.4734 7.38589 18.1952 6.963 18.9198 7.10478L21.5589 7.61689C22.2848 7.75745 22.7517 8.41134 22.5952 9.06767C22.5198 9.38432 22.3088 9.66095 22.0086 9.83692C21.7084 10.0129 21.3433 10.0738 20.9936 10.0063Z" fill="#55ACEE"/>
<path d="M23.0121 17.3226L24.7837 19.1669C25.2708 19.6742 25.2114 20.4503 24.6515 20.8915C24.381 21.1034 24.029 21.2098 23.6723 21.1873C23.3156 21.1649 22.9832 21.0155 22.7477 20.7717L20.9761 18.9274C20.7421 18.6824 20.6247 18.3635 20.6495 18.0404C20.6743 17.7173 20.8392 17.4162 21.1083 17.2028C21.3787 16.9909 21.7308 16.8846 22.0875 16.907C22.4442 16.9294 22.7766 17.0789 23.0121 17.3226Z" fill="#77B255"/>
<path d="M33.7266 14.0544L31.2021 14.9185C30.8673 15.0321 30.4964 15.021 30.1706 14.8877C29.8447 14.7545 29.5903 14.5098 29.4629 14.2071C29.3375 13.9038 29.3497 13.5679 29.4968 13.2727C29.644 12.9775 29.9141 12.7471 30.2482 12.6317L32.7727 11.7676C33.1075 11.654 33.4784 11.665 33.8042 11.7983C34.1301 11.9316 34.3845 12.1763 34.5119 12.4789C34.6373 12.7822 34.6251 13.1182 34.4779 13.4133C34.3308 13.7085 34.0607 13.939 33.7266 14.0544Z" fill="#F4900C"/>
<path d="M41.814 17.1733L40.4647 19.2902C40.0937 19.872 39.2639 20.0737 38.6216 19.7376C38.3125 19.5748 38.0871 19.3079 37.9946 18.995C37.9021 18.6822 37.95 18.349 38.1278 18.068L39.477 15.9511C39.8481 15.3693 40.6779 15.1677 41.3201 15.5038C41.9624 15.8399 42.185 16.5903 41.814 17.1733Z" fill="#AA8DD8"/>
</g>
<defs>
<clipPath id="clip0_103_193">
<rect width="48.5735" height="44" fill="white" transform="translate(0.842285)"/>
</clipPath>
</defs>
</svg>
