<svg width="50" height="44" viewBox="0 0 50 44" fill="none" xmlns="http://www.w3.org/2000/svg">
<path d="M32.147 26.7163L14.9641 26.5788C14.9641 26.5788 14.8047 27.3179 15.1349 28.0638C15.4385 28.7513 16.6642 29.7413 16.6642 29.7413L18.1024 32.6116L19.2864 39.3044L19.5141 41.2397C19.5141 41.2397 20.3565 42.6663 25.119 42.6663C29.8815 42.6663 30.7126 41.1882 30.7126 41.1882L30.8757 39.9438L32.2001 33.031L34.8489 28.8888C34.8489 28.8888 35.4295 28.521 35.7672 27.7372C36.0025 27.1907 35.8773 26.4207 35.8773 26.5101C35.8773 26.5994 32.147 26.7163 32.147 26.7163Z" fill="#E27F13"/>
<path d="M25.4228 33.9694C29.2821 33.99 31.1453 33.77 32.28 33.0482C33.1338 32.505 33.5513 31.8897 34.1319 31.0132C34.9364 29.7997 34.9022 28.8682 34.9022 28.8682C34.9022 28.8682 31.6842 30.3703 25.3203 30.2947C19.0741 30.2225 15.7233 28.875 15.7233 28.875C15.7233 28.875 16.0269 30.2088 16.5316 31.075C17.116 32.0719 18.1823 32.7044 18.1823 32.7044C18.1823 32.7044 20.2049 33.9419 25.4228 33.9694Z" fill="#F5B03E"/>
<path d="M18.8463 34.2615C19.2296 34.3887 19.628 34.509 19.628 34.509L20.1972 40.6518C20.1972 40.6518 19.1764 40.339 19.0588 40.009C18.9905 39.8199 18.6717 37.7815 18.444 36.1246C18.3226 35.2377 18.2126 34.6396 18.1822 34.3233C18.148 33.9796 18.4858 34.1412 18.8463 34.2615Z" fill="#F5B03E"/>
<path d="M22.9484 35.1279C21.6582 34.9801 20.6298 34.7842 20.6298 34.7842C20.6487 34.9114 21.1155 40.8479 21.1155 40.8479C21.1155 40.8479 21.6164 41.1367 23.0243 41.2948L22.9484 35.1279Z" fill="#F5B03E"/>
<path d="M26.3221 35.2274C25.362 35.2756 24.2919 35.2137 23.9351 35.2034L23.9048 41.3668C24.2767 41.3874 24.6865 41.3977 25.1457 41.3943C25.5403 41.3909 25.9122 41.3702 26.2727 41.3427L26.3221 35.2274Z" fill="#F5B03E"/>
<path d="M30.7391 34.8286C30.5569 36.2311 30.1736 39.2699 30.0219 40.5246C30.7391 40.2874 31.0237 40.1636 31.1185 39.8371C31.2134 39.5105 31.961 34.8424 31.98 34.588C31.9951 34.4265 31.9117 34.399 31.4487 34.5743C31.1565 34.6911 31.0161 34.7393 30.7391 34.8286Z" fill="#F5B03E"/>
<path d="M29.8322 34.9558C29.1719 35.0555 28.3029 35.1552 27.2783 35.2308L27.1531 41.243C27.9803 41.1192 28.6862 40.9371 29.263 40.7446C29.4186 39.2939 29.7297 36.1005 29.8322 34.9558Z" fill="#F5B03E"/>
<path d="M22.6866 5.38301C23.1192 5.34863 22.6335 3.70207 23.7226 3.68144C25.214 3.65051 24.7889 5.72676 24.1097 6.35238C22.3109 8.01269 19.499 7.69301 18.8311 10.4018C18.3947 12.1652 20.368 12.7977 20.368 12.7977C20.368 12.7977 17.1121 12.6293 15.5941 15.5064C14.3532 17.8611 15.8522 19.4974 15.8522 19.4974C15.8522 19.4974 14.1331 19.793 13.4235 22.0205C12.5166 24.8668 15.1388 26.7436 15.1388 26.7436L26.4131 27.5652L37.4598 22.9589L37.3953 20.7005C37.3953 20.7005 36.8868 20.0371 36.3859 19.6383C35.828 19.1949 35.2247 18.8305 35.2247 18.8305L35.9343 15.8296C35.9343 15.8296 36.0481 13.9974 33.2817 12.1033C32.0408 11.2508 30.6937 11.0136 30.6937 11.0136C30.6937 11.0136 29.9043 6.73394 29.745 6.44176C29.5818 6.14957 27.802 3.56457 27.4757 3.38926C27.1531 3.21394 24.9218 1.44019 24.9218 1.44019C24.9218 1.44019 23.3279 0.95207 22.2578 2.18613C21.1877 3.42019 21.552 5.47238 22.6866 5.38301Z" fill="#FFEBCA"/>
<path d="M27.3845 9.66957C25.1152 12.4264 20.3604 12.7943 20.3604 12.7943C20.3604 12.7943 21.8783 13.7499 26.4093 13.4268C31.1452 13.0899 32.2419 11.1683 32.1774 9.05426C32.1129 6.94019 30.4963 4.70238 28.1093 2.92863C25.8742 1.27176 24.1855 1.35769 24.1855 1.35769C24.1855 1.35769 25.9767 1.84926 27.3352 3.52332C28.7696 5.28676 28.6748 8.09863 27.3845 9.66957Z" fill="#EAC084"/>
<path d="M15.8521 19.494C15.8521 19.494 18.9941 21.089 26.413 21.0271C33.3764 20.9687 35.3232 18.9131 35.3232 18.9131C35.3232 18.9131 36.1163 17.9334 36.0518 16.2903C35.9873 14.5784 34.9285 13.5884 34.9285 13.5884C34.9285 13.5884 32.959 15.8915 30.3027 17.2424C27.6463 18.5934 22.5233 19.2121 20.1629 19.3565C17.7646 19.4974 15.8521 19.494 15.8521 19.494Z" fill="#EAC084"/>
<path d="M37.3951 20.7007C37.3951 20.7007 38.4349 21.756 38.0744 23.4576C37.6531 25.4547 35.9037 26.8022 35.9037 26.8022C35.9037 26.8022 34.0557 28.4797 24.9254 28.5416C16.759 28.5966 14.9982 26.6338 14.9982 26.6338C14.9982 26.6338 23.5061 26.9604 29.1224 25.2416C33.8508 23.7979 34.8374 23.2135 36.2642 21.9244C36.7538 21.4844 37.3951 20.7007 37.3951 20.7007Z" fill="#EAC084"/>
<path d="M15.3663 25.2106C16.0608 25.1384 15.6699 23.3681 16.5199 22.3678C17.3738 21.3674 17.7684 21.0821 17.5825 20.6903C17.4003 20.2984 15.613 20.2503 14.8388 21.9862C14.1975 23.4334 14.8199 25.2656 15.3663 25.2106Z" fill="white"/>
<path d="M21.4 14.1006C21.438 14.7297 20.1781 14.5887 18.774 16.1562C17.6356 17.4281 17.7912 18.7584 17.0929 18.8203C16.3985 18.8787 16.1177 16.6512 17.055 15.3862C18.3794 13.5919 21.3469 13.2825 21.4 14.1006Z" fill="white"/>
<path d="M24.3184 7.74123C24.584 7.89248 24.2387 8.5731 23.0471 9.39467C21.6278 10.3709 21.1042 11.1409 20.5805 11.0103C20.1972 10.914 19.8329 10.1784 20.607 9.3706C21.199 8.75185 22.3602 8.46654 22.9181 8.22935C23.7264 7.88217 24.0679 7.59685 24.3184 7.74123Z" fill="white"/>
</svg>
